<svg version="1.1" xmlns="http://www.w3.org/2000/svg" viewBox="0 0 244.4134323683993 247.97476135111629" width="244.4134323683993" height="247.97476135111629"><!-- svg-source:excalidraw --><metadata></metadata><defs><style class="style-fonts">
      </style></defs><g stroke-linecap="round"><g transform="translate(26.805047432022548 27.150860076567824) rotate(0 42.0934847632866 72.39784207040884)" fill-rule="evenodd"><path d="M0 0 C-2.78 23.23, -18.17 113.16, -16.71 139.36 C-15.25 165.56, 3.82 161.19, 8.77 157.21 C13.71 153.22, 6.66 125.52, 12.97 115.46 C19.28 105.41, 38.69 98.14, 46.62 96.88 C54.55 95.62, 58.08 100.78, 60.53 107.92 C62.98 115.06, 59.91 131.24, 61.31 139.72 C62.72 148.21, 64.45 156.32, 68.98 158.83 C73.51 161.33, 85.22 165.79, 88.49 154.75 C91.76 143.72, 87.55 112.01, 88.6 92.63 C89.64 73.25, 92.72 55.43, 94.77 38.48 C96.81 21.54, 103.26 -0.28, 100.89 -9.03 C98.53 -17.78, 84.88 -19.48, 80.55 -14.03 C76.22 -8.59, 77.13 9.97, 74.92 23.63 C72.72 37.28, 74.93 59.58, 67.32 67.9 C59.71 76.22, 37.9 72.51, 29.25 73.55 C20.61 74.59, 16.39 83.9, 15.43 74.16 C14.46 64.42, 22.89 28.61, 23.46 15.1 C24.02 1.6, 22.73 -4.33, 18.82 -6.85 C14.91 -9.37, 3.14 -1.14, 0 0" stroke="none" stroke-width="0" fill="#343a40" fill-rule="evenodd"></path><path d="M0 0 C-2.78 23.23, -18.17 113.16, -16.71 139.36 C-15.25 165.56, 3.82 161.19, 8.77 157.21 C13.71 153.22, 6.66 125.52, 12.97 115.46 C19.28 105.41, 38.69 98.14, 46.62 96.88 C54.55 95.62, 58.08 100.78, 60.53 107.92 C62.98 115.06, 59.91 131.24, 61.31 139.72 C62.72 148.21, 64.45 156.32, 68.98 158.83 C73.51 161.33, 85.22 165.79, 88.49 154.75 C91.76 143.72, 87.55 112.01, 88.6 92.63 C89.64 73.25, 92.72 55.43, 94.77 38.48 C96.81 21.54, 103.26 -0.28, 100.89 -9.03 C98.53 -17.78, 84.88 -19.48, 80.55 -14.03 C76.22 -8.59, 77.13 9.97, 74.92 23.63 C72.72 37.28, 74.93 59.58, 67.32 67.9 C59.71 76.22, 37.9 72.51, 29.25 73.55 C20.61 74.59, 16.39 83.9, 15.43 74.16 C14.46 64.42, 22.89 28.61, 23.46 15.1 C24.02 1.6, 22.73 -4.33, 18.82 -6.85 C14.91 -9.37, 3.14 -1.14, 0 0 M0 0 C-2.78 23.23, -18.17 113.16, -16.71 139.36 C-15.25 165.56, 3.82 161.19, 8.77 157.21 C13.71 153.22, 6.66 125.52, 12.97 115.46 C19.28 105.41, 38.69 98.14, 46.62 96.88 C54.55 95.62, 58.08 100.78, 60.53 107.92 C62.98 115.06, 59.91 131.24, 61.31 139.72 C62.72 148.21, 64.45 156.32, 68.98 158.83 C73.51 161.33, 85.22 165.79, 88.49 154.75 C91.76 143.72, 87.55 112.01, 88.6 92.63 C89.64 73.25, 92.72 55.43, 94.77 38.48 C96.81 21.54, 103.26 -0.28, 100.89 -9.03 C98.53 -17.78, 84.88 -19.48, 80.55 -14.03 C76.22 -8.59, 77.13 9.97, 74.92 23.63 C72.72 37.28, 74.93 59.58, 67.32 67.9 C59.71 76.22, 37.9 72.51, 29.25 73.55 C20.61 74.59, 16.39 83.9, 15.43 74.16 C14.46 64.42, 22.89 28.61, 23.46 15.1 C24.02 1.6, 22.73 -4.33, 18.82 -6.85 C14.91 -9.37, 3.14 -1.14, 0 0" stroke="#343a40" stroke-width="4" fill="none"></path></g></g><mask></mask><g stroke-linecap="round"><g transform="translate(161.61737139590332 113.21012642805817) rotate(0 9.078531089916396 23.181351177271154)" fill-rule="evenodd"><path d="M0 0 C-0.02 8.8, -1.97 42.34, -0.13 52.83 C1.72 63.31, 8.02 65.18, 11.09 62.93 C14.16 60.69, 18.31 50.38, 18.28 39.37 C18.26 28.36, 13.78 6.18, 10.93 -3.14 C8.08 -12.46, 3 -17.09, 1.18 -16.57 C-0.64 -16.05, 0.2 -2.76, 0 0" stroke="none" stroke-width="0" fill="#343a40" fill-rule="evenodd"></path><path d="M0 0 C-0.02 8.8, -1.97 42.34, -0.13 52.83 C1.72 63.31, 8.02 65.18, 11.09 62.93 C14.16 60.69, 18.31 50.38, 18.28 39.37 C18.26 28.36, 13.78 6.18, 10.93 -3.14 C8.08 -12.46, 3 -17.09, 1.18 -16.57 C-0.64 -16.05, 0.2 -2.76, 0 0 M0 0 C-0.02 8.8, -1.97 42.34, -0.13 52.83 C1.72 63.31, 8.02 65.18, 11.09 62.93 C14.16 60.69, 18.31 50.38, 18.28 39.37 C18.26 28.36, 13.78 6.18, 10.93 -3.14 C8.08 -12.46, 3 -17.09, 1.18 -16.57 C-0.64 -16.05, 0.2 -2.76, 0 0" stroke="#343a40" stroke-width="4" fill="none"></path></g></g><mask></mask><g stroke-linecap="round"><g transform="translate(155.4094230835126 32.50180316997648) rotate(0 6.954267070290371 17.429232689857827)" fill-rule="evenodd"><path d="M0 0 C-2.09 1.52, -10.74 4.62, -12.54 9.12 C-14.35 13.62, -15.18 22.73, -10.84 27.02 C-6.49 31.3, 7.3 34.18, 13.52 34.86 C19.73 35.54, 25.57 36.38, 26.45 31.12 C27.34 25.85, 23.22 8.44, 18.82 3.25 C14.41 -1.93, 3.14 0.54, 0 0" stroke="none" stroke-width="0" fill="#343a40" fill-rule="evenodd"></path><path d="M0 0 C-2.09 1.52, -10.74 4.62, -12.54 9.12 C-14.35 13.62, -15.18 22.73, -10.84 27.02 C-6.49 31.3, 7.3 34.18, 13.52 34.86 C19.73 35.54, 25.57 36.38, 26.45 31.12 C27.34 25.85, 23.22 8.44, 18.82 3.25 C14.41 -1.93, 3.14 0.54, 0 0 M0 0 C-2.09 1.52, -10.74 4.62, -12.54 9.12 C-14.35 13.62, -15.18 22.73, -10.84 27.02 C-6.49 31.3, 7.3 34.18, 13.52 34.86 C19.73 35.54, 25.57 36.38, 26.45 31.12 C27.34 25.85, 23.22 8.44, 18.82 3.25 C14.41 -1.93, 3.14 0.54, 0 0" stroke="#343a40" stroke-width="4" fill="none"></path></g></g><mask></mask><g stroke-linecap="round"><g transform="translate(214.8094111563878 145.19671170350603) rotate(0 3.7384572841801855 41.4125797276331)" fill-rule="evenodd"><path d="M0 0 C-0.85 6.21, -3.16 24.7, -5.12 37.24 C-7.08 49.77, -12.4 65.96, -11.76 75.21 C-11.12 84.46, -4.95 93.43, -1.29 92.74 C2.38 92.05, 7.14 79.7, 10.22 71.08 C13.3 62.46, 15.68 52.82, 17.19 41.02 C18.69 29.21, 20.35 8.75, 19.24 0.26 C18.13 -8.23, 13.71 -9.87, 10.5 -9.92 C7.29 -9.96, 1.75 -1.65, 0 0" stroke="none" stroke-width="0" fill="#343a40" fill-rule="evenodd"></path><path d="M0 0 C-0.85 6.21, -3.16 24.7, -5.12 37.24 C-7.08 49.77, -12.4 65.96, -11.76 75.21 C-11.12 84.46, -4.95 93.43, -1.29 92.74 C2.38 92.05, 7.14 79.7, 10.22 71.08 C13.3 62.46, 15.68 52.82, 17.19 41.02 C18.69 29.21, 20.35 8.75, 19.24 0.26 C18.13 -8.23, 13.71 -9.87, 10.5 -9.92 C7.29 -9.96, 1.75 -1.65, 0 0 M0 0 C-0.85 6.21, -3.16 24.7, -5.12 37.24 C-7.08 49.77, -12.4 65.96, -11.76 75.21 C-11.12 84.46, -4.95 93.43, -1.29 92.74 C2.38 92.05, 7.14 79.7, 10.22 71.08 C13.3 62.46, 15.68 52.82, 17.19 41.02 C18.69 29.21, 20.35 8.75, 19.24 0.26 C18.13 -8.23, 13.71 -9.87, 10.5 -9.92 C7.29 -9.96, 1.75 -1.65, 0 0" stroke="#343a40" stroke-width="4" fill="none"></path></g></g><mask></mask></svg>