<svg version="1.1" xmlns="http://www.w3.org/2000/svg" viewBox="0 0 249.04482146124428 247.7088148761609" width="249.04482146124428" height="247.7088148761609"><!-- svg-source:excalidraw --><metadata></metadata><defs><style class="style-fonts">
      </style></defs><g stroke-linecap="round"><g transform="translate(26.793956606027677 27.15086007656737) rotate(0 42.09348476328614 76.14088790464143)" fill-rule="evenodd"><path d="M0 0 C-2.78 23.23, -18.08 114.79, -16.71 139.36 C-15.34 163.92, 3.32 152.5, 8.21 147.41 C13.11 142.31, 6.28 117.2, 12.68 108.78 C19.09 100.36, 38.39 98.49, 46.62 96.88 C54.85 95.27, 59.38 92.59, 62.06 99.13 C64.74 105.67, 60.12 124.9, 62.72 136.1 C65.32 147.3, 73.37 163.21, 77.66 166.32 C81.96 169.42, 87.47 167.03, 88.49 154.75 C89.5 142.47, 82.72 112.01, 83.77 92.63 C84.81 73.25, 91.91 55.43, 94.77 38.48 C97.62 21.54, 103.26 -0.28, 100.89 -9.03 C98.53 -17.78, 84.88 -19.48, 80.55 -14.03 C76.22 -8.59, 77.13 9.97, 74.92 23.63 C72.72 37.28, 74.93 59.58, 67.32 67.9 C59.71 76.22, 37.9 72.51, 29.25 73.55 C20.61 74.59, 16.94 83.9, 15.43 74.16 C13.91 64.42, 19.59 28.61, 20.15 15.1 C20.72 1.6, 22.17 -4.33, 18.82 -6.85 C15.46 -9.37, 3.14 -1.14, 0 0" stroke="none" stroke-width="0" fill="#343a40" fill-rule="evenodd"></path><path d="M0 0 C-2.78 23.23, -18.08 114.79, -16.71 139.36 C-15.34 163.92, 3.32 152.5, 8.21 147.41 C13.11 142.31, 6.28 117.2, 12.68 108.78 C19.09 100.36, 38.39 98.49, 46.62 96.88 C54.85 95.27, 59.38 92.59, 62.06 99.13 C64.74 105.67, 60.12 124.9, 62.72 136.1 C65.32 147.3, 73.37 163.21, 77.66 166.32 C81.96 169.42, 87.47 167.03, 88.49 154.75 C89.5 142.47, 82.72 112.01, 83.77 92.63 C84.81 73.25, 91.91 55.43, 94.77 38.48 C97.62 21.54, 103.26 -0.28, 100.89 -9.03 C98.53 -17.78, 84.88 -19.48, 80.55 -14.03 C76.22 -8.59, 77.13 9.97, 74.92 23.63 C72.72 37.28, 74.93 59.58, 67.32 67.9 C59.71 76.22, 37.9 72.51, 29.25 73.55 C20.61 74.59, 16.94 83.9, 15.43 74.16 C13.91 64.42, 19.59 28.61, 20.15 15.1 C20.72 1.6, 22.17 -4.33, 18.82 -6.85 C15.46 -9.37, 3.14 -1.14, 0 0 M0 0 C-2.78 23.23, -18.08 114.79, -16.71 139.36 C-15.34 163.92, 3.32 152.5, 8.21 147.41 C13.11 142.31, 6.28 117.2, 12.68 108.78 C19.09 100.36, 38.39 98.49, 46.62 96.88 C54.85 95.27, 59.38 92.59, 62.06 99.13 C64.74 105.67, 60.12 124.9, 62.72 136.1 C65.32 147.3, 73.37 163.21, 77.66 166.32 C81.96 169.42, 87.47 167.03, 88.49 154.75 C89.5 142.47, 82.72 112.01, 83.77 92.63 C84.81 73.25, 91.91 55.43, 94.77 38.48 C97.62 21.54, 103.26 -0.28, 100.89 -9.03 C98.53 -17.78, 84.88 -19.48, 80.55 -14.03 C76.22 -8.59, 77.13 9.97, 74.92 23.63 C72.72 37.28, 74.93 59.58, 67.32 67.9 C59.71 76.22, 37.9 72.51, 29.25 73.55 C20.61 74.59, 16.94 83.9, 15.43 74.16 C13.91 64.42, 19.59 28.61, 20.15 15.1 C20.72 1.6, 22.17 -4.33, 18.82 -6.85 C15.46 -9.37, 3.14 -1.14, 0 0" stroke="#343a40" stroke-width="4" fill="none"></path></g></g><mask></mask><g stroke-linecap="round"><g transform="translate(152.65489594501014 105.91640562258726) rotate(0 13.201812800260086 30.47507198274161)" fill-rule="evenodd"><path d="M0 0 C1.33 10.02, 4.79 48.42, 7.99 60.12 C11.2 71.82, 16.14 72.47, 19.21 70.23 C22.28 67.98, 26.43 57.68, 26.4 46.66 C26.38 35.65, 21.9 13.48, 19.05 4.15 C16.2 -5.17, 12.48 -8.58, 9.3 -9.28 C6.13 -9.97, 1.55 -1.55, 0 0" stroke="none" stroke-width="0" fill="#343a40" fill-rule="evenodd"></path><path d="M0 0 C1.33 10.02, 4.79 48.42, 7.99 60.12 C11.2 71.82, 16.14 72.47, 19.21 70.23 C22.28 67.98, 26.43 57.68, 26.4 46.66 C26.38 35.65, 21.9 13.48, 19.05 4.15 C16.2 -5.17, 12.48 -8.58, 9.3 -9.28 C6.13 -9.97, 1.55 -1.55, 0 0 M0 0 C1.33 10.02, 4.79 48.42, 7.99 60.12 C11.2 71.82, 16.14 72.47, 19.21 70.23 C22.28 67.98, 26.43 57.68, 26.4 46.66 C26.38 35.65, 21.9 13.48, 19.05 4.15 C16.2 -5.17, 12.48 -8.58, 9.3 -9.28 C6.13 -9.97, 1.55 -1.55, 0 0" stroke="#343a40" stroke-width="4" fill="none"></path></g></g><mask></mask><g stroke-linecap="round"><g transform="translate(154.56745384926035 32.763754983416675) rotate(0 6.954267070290371 17.429232689857827)" fill-rule="evenodd"><path d="M0 0 C-2.09 1.52, -10.7 5.06, -12.54 9.12 C-14.39 13.19, -15.42 20.09, -11.08 24.38 C-6.74 28.67, 7.26 33.74, 13.52 34.86 C19.77 35.98, 24.6 33.65, 26.45 31.12 C28.31 28.58, 29.06 24.83, 24.65 19.65 C20.24 14.46, 4.11 3.27, 0 0" stroke="none" stroke-width="0" fill="#343a40" fill-rule="evenodd"></path><path d="M0 0 C-2.09 1.52, -10.7 5.06, -12.54 9.12 C-14.39 13.19, -15.42 20.09, -11.08 24.38 C-6.74 28.67, 7.26 33.74, 13.52 34.86 C19.77 35.98, 24.6 33.65, 26.45 31.12 C28.31 28.58, 29.06 24.83, 24.65 19.65 C20.24 14.46, 4.11 3.27, 0 0 M0 0 C-2.09 1.52, -10.7 5.06, -12.54 9.12 C-14.39 13.19, -15.42 20.09, -11.08 24.38 C-6.74 28.67, 7.26 33.74, 13.52 34.86 C19.77 35.98, 24.6 33.65, 26.45 31.12 C28.31 28.58, 29.06 24.83, 24.65 19.65 C20.24 14.46, 4.11 3.27, 0 0" stroke="#343a40" stroke-width="4" fill="none"></path></g></g><mask></mask><g stroke-linecap="round"><g transform="translate(214.53227551986492 144.91838790172505) rotate(0 6.308859453560217 41.4125797276331)" fill-rule="evenodd"><path d="M0 0 C-0.85 6.21, -3.16 24.7, -5.12 37.24 C-7.08 49.77, -12.4 65.96, -11.76 75.21 C-11.12 84.46, -5.29 92.1, -1.29 92.74 C2.72 93.39, 9.2 87.7, 12.28 79.08 C15.36 70.46, 15.17 54.37, 17.19 41.02 C19.2 27.66, 25.5 7.43, 24.38 -1.06 C23.27 -9.55, 14.56 -10.09, 10.5 -9.92 C6.44 -9.74, 1.75 -1.65, 0 0" stroke="none" stroke-width="0" fill="#343a40" fill-rule="evenodd"></path><path d="M0 0 C-0.85 6.21, -3.16 24.7, -5.12 37.24 C-7.08 49.77, -12.4 65.96, -11.76 75.21 C-11.12 84.46, -5.29 92.1, -1.29 92.74 C2.72 93.39, 9.2 87.7, 12.28 79.08 C15.36 70.46, 15.17 54.37, 17.19 41.02 C19.2 27.66, 25.5 7.43, 24.38 -1.06 C23.27 -9.55, 14.56 -10.09, 10.5 -9.92 C6.44 -9.74, 1.75 -1.65, 0 0 M0 0 C-0.85 6.21, -3.16 24.7, -5.12 37.24 C-7.08 49.77, -12.4 65.96, -11.76 75.21 C-11.12 84.46, -5.29 92.1, -1.29 92.74 C2.72 93.39, 9.2 87.7, 12.28 79.08 C15.36 70.46, 15.17 54.37, 17.19 41.02 C19.2 27.66, 25.5 7.43, 24.38 -1.06 C23.27 -9.55, 14.56 -10.09, 10.5 -9.92 C6.44 -9.74, 1.75 -1.65, 0 0" stroke="#343a40" stroke-width="4" fill="none"></path></g></g><mask></mask></svg>