<svg version="1.1" xmlns="http://www.w3.org/2000/svg" viewBox="0 0 533.6504847127644 502.52910459239854" width="533.6504847127644" height="502.52910459239854"><!-- svg-source:excalidraw --><metadata></metadata><defs><style class="style-fonts">
      </style></defs><g stroke-linecap="round"><g transform="translate(248.51825807890054 491.631542015028) rotate(0 16.425507082584772 -131.01272133418388)" fill-rule="evenodd"><path d="M0.58 1.85 C11.2 -0.09, 40.24 -4.87, 61.96 -13.74 C83.67 -22.61, 105.66 -29.14, 130.85 -51.36 C156.04 -73.58, 190.89 -116.3, 213.09 -147.07 C235.3 -177.83, 254.44 -216.49, 264.07 -235.96 C273.7 -255.42, 279.2 -267.16, 270.87 -263.87 C262.53 -260.58, 251.61 -246.13, 214.08 -216.21 C176.54 -186.29, 82.05 -109.38, 45.67 -84.38 C9.29 -59.37, 17.1 -65.37, -4.23 -66.17 C-25.55 -66.96, -50.49 -76.06, -82.29 -89.16 C-114.09 -102.25, -169.6 -132.59, -195 -144.74 C-220.41 -156.88, -228.23 -164.09, -234.73 -162.02 C-241.22 -159.94, -236.05 -141.73, -233.98 -132.28 C-231.91 -122.83, -227.95 -112.71, -222.32 -105.32 C-216.69 -97.92, -212.77 -95.63, -200.2 -87.91 C-187.62 -80.18, -171.04 -71.31, -146.86 -58.96 C-122.67 -46.62, -79.91 -23.97, -55.09 -13.84 C-30.27 -3.7, -7.1 -0.68, 2.08 1.84" stroke="none" stroke-width="0" fill="#ffffff" fill-rule="evenodd"></path><path d="M-0.91 0.32 C9.18 -1.6, 37.39 -3.75, 59.86 -12.47 C82.33 -21.2, 108.65 -29.74, 133.93 -52.01 C159.2 -74.29, 189.63 -115.37, 211.5 -146.13 C233.37 -176.89, 255.67 -217.28, 265.15 -236.57 C274.64 -255.86, 276.8 -265.1, 268.4 -261.88 C260.01 -258.66, 252.18 -246.81, 214.77 -217.26 C177.37 -187.71, 80.78 -109.73, 43.97 -84.59 C7.15 -59.45, 14.81 -65.5, -6.12 -66.42 C-27.05 -67.33, -49.83 -77.23, -81.62 -90.08 C-113.41 -102.93, -171.44 -131.6, -196.86 -143.51 C-222.29 -155.42, -227.69 -163.35, -234.15 -161.57 C-240.62 -159.78, -237.33 -142.06, -235.66 -132.79 C-233.99 -123.52, -229.65 -113.49, -224.13 -105.93 C-218.62 -98.38, -215.34 -95.16, -202.58 -87.45 C-189.82 -79.74, -171.71 -71.83, -147.56 -59.66 C-123.42 -47.49, -82.14 -24.43, -57.7 -14.43 C-33.26 -4.43, -10.62 -2.13, -0.94 0.35 M0.82 -0.55 C10.79 -2.77, 36.69 -5.97, 58.84 -14.41 C80.99 -22.86, 108.29 -29.44, 133.71 -51.22 C159.12 -72.99, 189.13 -114.25, 211.32 -145.06 C233.51 -175.87, 257.15 -216.45, 266.84 -236.08 C276.54 -255.71, 278.14 -265.8, 269.47 -262.85 C260.8 -259.89, 252.04 -248.01, 214.83 -218.36 C177.63 -188.7, 82.8 -110, 46.22 -84.91 C9.64 -59.82, 17.06 -66.82, -4.65 -67.83 C-26.37 -68.84, -51.99 -78, -84.06 -90.99 C-116.14 -103.98, -171.89 -134, -197.1 -145.76 C-222.32 -157.51, -229.01 -164.08, -235.34 -161.53 C-241.68 -158.97, -236.86 -139.62, -235.14 -130.43 C-233.42 -121.23, -230.48 -113.45, -225.03 -106.36 C-219.58 -99.27, -215.49 -95.32, -202.45 -87.89 C-189.41 -80.45, -171.24 -73.59, -146.79 -61.74 C-122.35 -49.9, -80.42 -27.26, -55.8 -16.82 C-31.17 -6.38, -8.22 -2.06, 0.94 0.9" stroke="#343a40" stroke-width="4" fill="none"></path></g></g><mask></mask><g stroke-linecap="round"><g transform="translate(14.123565731853887 335.9103763493376) rotate(0 169.60049985324713 -119.19695618243017)" fill-rule="evenodd"><path d="M1.79 -1.85 C11.55 1.61, 26.76 9.11, 58.27 23.1 C89.78 37.09, 161.83 71.59, 190.84 82.08 C219.86 92.58, 224.91 88.44, 232.37 86.05 C239.83 83.66, 232.24 87.48, 235.6 67.75 C238.97 48.01, 245.89 5.86, 252.57 -32.36 C259.25 -70.58, 269.36 -124.64, 275.68 -161.57 C282 -198.5, 285.45 -233.32, 290.5 -253.93 C295.55 -274.54, 298.37 -279.1, 306 -285.23 C313.62 -291.37, 330.61 -287.89, 336.24 -290.75 C341.87 -293.61, 347.04 -298.97, 339.78 -302.4 C332.51 -305.83, 311.65 -307.98, 292.64 -311.32 C273.64 -314.66, 260.92 -320.28, 225.75 -322.43 C190.57 -324.58, 111.87 -331.22, 81.57 -324.21 C51.27 -317.19, 55.03 -310.67, 43.97 -280.33 C32.91 -249.99, 22.97 -184.19, 15.22 -142.17 C7.48 -100.15, 0.19 -52.14, -2.48 -28.22 C-5.16 -4.3, -1.41 -3.45, -0.82 1.35" stroke="none" stroke-width="0" fill="#ffffff" fill-rule="evenodd"></path><path d="M1.1 1.02 C10.82 4.82, 26.33 8.91, 58.01 22.3 C89.69 35.69, 162.46 70.68, 191.18 81.35 C219.9 92.02, 222.49 88.95, 230.34 86.32 C238.2 83.68, 234.46 85.46, 238.3 65.53 C242.14 45.61, 247.23 4.83, 253.36 -33.25 C259.5 -71.33, 268.62 -126.27, 275.1 -162.92 C281.59 -199.57, 287.01 -233.23, 292.27 -253.14 C297.53 -273.06, 299.74 -276.68, 306.67 -282.44 C313.6 -288.19, 328.15 -284.51, 333.84 -287.68 C339.54 -290.85, 347.41 -297.14, 340.84 -301.46 C334.27 -305.77, 313.16 -310.32, 294.43 -313.56 C275.71 -316.81, 264.48 -319.32, 228.48 -320.91 C192.48 -322.49, 109.27 -329.89, 78.44 -323.07 C47.6 -316.25, 53.72 -310.4, 43.45 -279.99 C33.17 -249.57, 24.05 -182.74, 16.77 -140.59 C9.5 -98.44, 2.53 -50.69, -0.18 -27.09 C-2.89 -3.49, 0.39 -3.59, 0.5 0.99 M0.22 0.51 C9.81 3.98, 25.4 7.18, 57.1 20.35 C88.79 33.52, 161.52 68.92, 190.38 79.53 C219.24 90.15, 222.41 86.31, 230.26 84.04 C238.1 81.78, 233.9 85.59, 237.42 65.93 C240.95 46.27, 245.1 3.89, 251.4 -33.9 C257.7 -71.69, 268.61 -124.21, 275.22 -160.79 C281.83 -197.36, 285.54 -232.91, 291.08 -253.34 C296.61 -273.77, 301.23 -277.62, 308.43 -283.36 C315.63 -289.09, 328.78 -284.91, 334.26 -287.73 C339.74 -290.56, 348.19 -295.94, 341.31 -300.3 C334.43 -304.66, 311.69 -310.43, 292.99 -313.91 C274.29 -317.38, 264.5 -319.67, 229.13 -321.13 C193.76 -322.59, 111.72 -329.43, 80.77 -322.68 C49.82 -315.94, 54.47 -311.24, 43.44 -280.66 C32.41 -250.09, 21.97 -181.57, 14.59 -139.25 C7.22 -96.94, 1.7 -49.68, -0.82 -26.77 C-3.34 -3.86, -0.55 -6.39, -0.53 -1.78" stroke="#343a40" stroke-width="4" fill="none"></path></g></g><mask></mask><g stroke-linecap="round"><g transform="translate(249.7747617758805 418.6524530538403) rotate(0 135.96893036116398 -190.5570354188847)" fill-rule="evenodd"><path d="M0.3 -1.21 C5.37 -30.23, 22.95 -120.99, 31.63 -173.84 C40.31 -226.7, 46.06 -286.63, 52.39 -318.34 C58.72 -350.05, 62.59 -355.37, 69.59 -364.09 C76.6 -372.81, 87.65 -367.87, 94.4 -370.65 C101.15 -373.44, 101.32 -382.55, 110.1 -380.8 C118.88 -379.04, 128.02 -371.72, 147.08 -360.13 C166.14 -348.55, 204.91 -328.2, 224.46 -311.3 C244.01 -294.4, 256.84 -277.21, 264.4 -258.74 C271.95 -240.28, 270.12 -212.83, 269.81 -200.49 C269.49 -188.14, 265.94 -189.22, 262.51 -184.67 C259.08 -180.12, 271.16 -190.85, 249.23 -173.19 C227.29 -155.54, 168.61 -107.34, 130.91 -78.74 C93.22 -50.14, 45.04 -14.57, 23.05 -1.59 C1.06 11.4, 2.45 -0.81, -1.04 -0.82" stroke="none" stroke-width="0" fill="#ffa94d" fill-rule="evenodd"></path><path d="M1.12 -0.4 C6.11 -29.43, 20.93 -121.82, 29.62 -174.31 C38.32 -226.8, 46.67 -283.9, 53.29 -315.33 C59.9 -346.75, 62.03 -354.12, 69.32 -362.88 C76.61 -371.64, 90.18 -364.8, 97.04 -367.87 C103.9 -370.94, 102.14 -382.57, 110.47 -381.32 C118.8 -380.08, 128.17 -372.11, 147.03 -360.4 C165.9 -348.68, 204.36 -327.61, 223.65 -311.01 C242.93 -294.41, 254.78 -279.23, 262.73 -260.79 C270.68 -242.35, 271.53 -212.65, 271.35 -200.38 C271.16 -188.1, 265.6 -191.54, 261.63 -187.14 C257.66 -182.73, 269.61 -192.11, 247.53 -173.95 C225.45 -155.8, 166.79 -107.04, 129.16 -78.2 C91.53 -49.37, 43.11 -13.84, 21.77 -0.92 C0.42 12, 4.77 -0.79, 1.07 -0.68 M0.25 -1.65 C5.62 -30.53, 23.13 -120.59, 31.8 -173.19 C40.46 -225.79, 46.05 -285.81, 52.25 -317.24 C58.46 -348.67, 61.74 -353.45, 69.03 -361.77 C76.32 -370.08, 88.85 -363.67, 96 -367.12 C103.15 -370.57, 103.27 -383.35, 111.92 -382.47 C120.58 -381.59, 128.96 -373.76, 147.93 -361.85 C166.9 -349.94, 206.85 -327.65, 225.74 -311.01 C244.62 -294.37, 253.56 -280.46, 261.24 -262.02 C268.91 -243.57, 271.65 -212.98, 271.81 -200.34 C271.96 -187.7, 265.9 -190.6, 262.15 -186.18 C258.4 -181.75, 271.43 -191.7, 249.3 -173.8 C227.16 -155.89, 167.35 -107.57, 129.34 -78.76 C91.33 -49.96, 43.11 -13.83, 21.27 -0.97 C-0.57 11.89, 1.78 -1.9, -1.69 -1.6" stroke="#1e1e1e" stroke-width="4" fill="none"></path></g></g><mask></mask><g stroke-linecap="round"><g transform="translate(200.75842563709466 422.6250354493452) rotate(0 2.4072410895023495 26.782143615275686)" fill-rule="evenodd"><path d="M1.36 0.71 C-0.5 0.54, -8.1 -5.25, -12.08 -2.52 C-16.05 0.21, -22.05 9.5, -22.49 17.08 C-22.93 24.66, -20.43 36.4, -14.73 42.96 C-9.03 49.52, 4.66 55.93, 11.71 56.43 C18.76 56.93, 25.55 52.87, 27.58 45.95 C29.62 39.02, 28.64 22.31, 23.95 14.9 C19.25 7.48, 3.42 3.86, -0.57 1.46" stroke="none" stroke-width="0" fill="#ffa94d" fill-rule="evenodd"></path><path d="M0.82 -0.97 C-1.29 -1.5, -8.08 -4.79, -12.16 -2.31 C-16.23 0.17, -22.81 6.49, -23.63 13.91 C-24.45 21.34, -22.54 35.47, -17.07 42.24 C-11.6 49.01, 1.72 54.39, 9.21 54.54 C16.71 54.69, 25.29 49.72, 27.9 43.16 C30.52 36.6, 29.6 22.39, 24.9 15.18 C20.21 7.96, 3.9 2.26, -0.28 -0.12 M-0.21 1.13 C-2.57 0.69, -9.36 -3.31, -13.41 -1.05 C-17.45 1.2, -23.86 7.29, -24.47 14.68 C-25.09 22.06, -23.03 36.59, -17.09 43.23 C-11.15 49.87, 3.48 54.17, 11.18 54.51 C18.88 54.86, 26.7 52.06, 29.11 45.29 C31.52 38.52, 30.73 21.55, 25.64 13.92 C20.54 6.28, 2.54 1.8, -1.45 -0.53" stroke="#1e1e1e" stroke-width="4" fill="none"></path></g></g><mask></mask><g stroke-linecap="round"><g transform="translate(130.35191208438664 411.68456891603773) rotate(0 -26.77791296309715 -19.310811868245253)" fill-rule="evenodd"><path d="M-0.51 0.62 C-9.62 -3, -41.94 -16.14, -53.8 -21.8 C-65.67 -27.47, -68.95 -29.86, -71.69 -33.37 C-74.43 -36.89, -73.94 -41.63, -70.26 -42.89 C-66.58 -44.16, -58.73 -43.43, -49.61 -40.94 C-40.5 -38.45, -26.81 -33.46, -15.58 -27.94 C-4.35 -22.42, 12.71 -13.29, 17.78 -7.84 C22.85 -2.39, 17.65 3.11, 14.83 4.77 C12.01 6.44, 3.38 2.6, 0.87 2.16" stroke="none" stroke-width="0" fill="#ffa94d" fill-rule="evenodd"></path><path d="M0.24 1.04 C-9.01 -3.02, -43.02 -18.07, -54.65 -23.47 C-66.28 -28.87, -66.97 -27.9, -69.54 -31.36 C-72.11 -34.81, -73.77 -42.49, -70.08 -44.21 C-66.4 -45.94, -56.67 -44.87, -47.43 -41.69 C-38.18 -38.51, -25.22 -30.56, -14.63 -25.14 C-4.03 -19.72, 11.65 -14.07, 16.16 -9.18 C20.68 -4.3, 15.14 2.48, 12.46 4.17 C9.79 5.87, 2.13 1.68, 0.11 0.99 M-1.09 0.55 C-10.03 -3.98, -40.75 -20.33, -52.31 -25.44 C-63.88 -30.55, -67.61 -27.14, -70.46 -30.13 C-73.31 -33.11, -73.1 -41.54, -69.42 -43.33 C-65.75 -45.11, -57.21 -43.75, -48.4 -40.84 C-39.6 -37.93, -27.34 -31, -16.58 -25.87 C-5.81 -20.73, 11.01 -15.49, 16.2 -10.02 C21.38 -4.55, 17.5 5.27, 14.55 6.96 C11.6 8.65, 0.71 1.36, -1.51 0.12" stroke="#1e1e1e" stroke-width="4" fill="none"></path></g></g><mask></mask><g stroke-linecap="round"><g transform="translate(14.901644788397789 357.9129797287453) rotate(0 12.158894360682552 12.192739578109865)" fill-rule="evenodd"><path d="M-0.97 0.43 C0.4 -2.07, 4.05 -12.61, 7.87 -13.71 C11.69 -14.81, 18.8 -12.3, 21.92 -6.17 C25.04 -0.05, 27.26 15.91, 26.59 23.04 C25.92 30.17, 20.89 36.13, 17.9 36.61 C14.91 37.09, 11.61 31.96, 8.66 25.94 C5.7 19.93, 1.46 5.09, 0.18 0.52" stroke="none" stroke-width="0" fill="#ffa94d" fill-rule="evenodd"></path><path d="M0.65 0.27 C1.35 -1.84, 1.97 -11.56, 5.31 -12.52 C8.66 -13.49, 17.56 -11.24, 20.72 -5.51 C23.88 0.21, 24.79 14.88, 24.28 21.84 C23.77 28.79, 20.59 35.81, 17.67 36.2 C14.74 36.59, 9.7 30.24, 6.74 24.19 C3.78 18.13, 0.94 3.84, -0.1 -0.12 M-0.46 -0.64 C-0.05 -2.6, 0.28 -10.17, 4.21 -11.28 C8.14 -12.39, 19.74 -13.03, 23.12 -7.3 C26.5 -1.57, 25.07 15.8, 24.5 23.1 C23.93 30.41, 23 36.47, 19.7 36.52 C16.4 36.56, 7.9 29.72, 4.7 23.38 C1.5 17.04, 1.32 2.31, 0.5 -1.53" stroke="#1e1e1e" stroke-width="4" fill="none"></path></g></g><mask></mask><g stroke-linecap="round"><g transform="translate(440.8225528474586 341.30314448943216) rotate(0 -33.644261448618636 42.57305287110336)" fill-rule="evenodd"><path d="M1.89 2.45 C-1.95 5.45, -15.59 11.75, -25.35 19.15 C-35.11 26.56, -49.86 36.51, -56.65 46.9 C-63.44 57.29, -66.48 74.76, -66.11 81.49 C-65.75 88.21, -60.7 91.39, -54.48 87.26 C-48.25 83.14, -37.71 67.91, -28.75 56.75 C-19.79 45.59, -5.71 29.85, -0.71 20.28 C4.29 10.71, 0.94 2.95, 1.26 -0.67" stroke="none" stroke-width="0" fill="#ffffff" fill-rule="evenodd"></path><path d="M1.1 -1.14 C-3.26 2.32, -16.54 12.52, -26.31 20.12 C-36.08 27.71, -50.4 34.1, -57.54 44.43 C-64.68 54.76, -69.59 75.44, -69.14 82.1 C-68.7 88.75, -61.66 88.47, -54.85 84.37 C-48.04 80.28, -37.42 68.51, -28.27 57.52 C-19.13 46.53, -4.64 28.04, 0.01 18.43 C4.67 8.82, -0.21 2.82, -0.34 -0.14 M0.21 0.87 C-4.26 4, -17.38 10.71, -27.07 18.1 C-36.77 25.49, -50.89 34.39, -57.94 45.2 C-64.99 56.02, -69.73 76.48, -69.38 83.01 C-69.03 89.53, -62.92 88.7, -55.86 84.36 C-48.8 80.01, -36.37 68.17, -27.03 56.95 C-17.69 45.74, -4.08 26.64, 0.17 17.06 C4.41 7.47, -1.65 2.35, -1.55 -0.56" stroke="#1e1e1e" stroke-width="4" fill="none"></path></g></g><mask></mask><g stroke-linecap="round"><g transform="translate(263.33823265978754 89.75309140171704) rotate(0 -113.46186077214725 128.23106752689478)" fill-rule="evenodd"><path d="M-0.88 -2.43 C-23.33 -6.14, -106.01 -17.61, -136.33 -21.35 C-166.64 -25.09, -172.72 -33.31, -182.77 -24.86 C-192.83 -16.4, -191.32 1.69, -196.66 29.38 C-201.99 57.07, -209.71 112.15, -214.78 141.26 C-219.85 170.36, -230.42 190.36, -227.07 204 C-223.72 217.64, -219.68 211.6, -194.69 223.08 C-169.71 234.56, -101.08 262.52, -77.17 272.87 C-53.25 283.22, -56.63 290.66, -51.22 285.19 C-45.8 279.73, -49.09 269.12, -44.69 240.08 C-40.29 211.04, -31.93 151.37, -24.83 110.96 C-17.74 70.56, -6.24 16.47, -2.12 -2.35" stroke="none" stroke-width="0" fill="#868e96" fill-rule="evenodd"></path><path d="M1.07 -0.12 C-21.54 -3.5, -104.25 -16.14, -135.38 -20.68 C-166.5 -25.21, -174.96 -35.39, -185.67 -27.31 C-196.39 -19.23, -194.31 -0.16, -199.68 27.8 C-205.06 55.77, -213.31 110.66, -217.92 140.47 C-222.53 170.28, -231.48 192.91, -227.33 206.66 C-223.18 220.41, -217.88 211.67, -193.04 222.97 C-168.19 234.26, -102.08 264.52, -78.26 274.43 C-54.43 284.33, -56.02 288.33, -50.11 282.4 C-44.2 276.47, -47.32 267.44, -42.8 238.87 C-38.28 210.3, -29.92 150.75, -22.97 110.99 C-16.01 71.23, -4.87 18.67, -1.09 0.31 M0.17 -1.23 C-22.07 -4.44, -101.85 -15.39, -133.01 -19.58 C-164.17 -23.77, -175.64 -33.92, -186.79 -26.38 C-197.95 -18.84, -195.02 -2.2, -199.94 25.65 C-204.85 53.51, -211.92 110.72, -216.29 140.76 C-220.65 170.8, -229.57 192.42, -226.13 205.87 C-222.69 219.33, -220.66 210.14, -195.64 221.47 C-170.61 232.8, -100.56 263.38, -76 273.86 C-51.45 284.34, -53.98 290.17, -48.28 284.34 C-42.58 278.5, -46.05 267.57, -41.78 238.85 C-37.52 210.14, -29.74 151.85, -22.68 112.05 C-15.62 72.25, -3.16 18.65, 0.58 0.05" stroke="#1e1e1e" stroke-width="4" fill="none"></path></g></g><mask></mask></svg>