<svg version="1.1" xmlns="http://www.w3.org/2000/svg" viewBox="0 0 238.07995600356662 249.7350468544446" width="238.07995600356662" height="249.7350468544446"><!-- svg-source:excalidraw --><metadata></metadata><defs><style class="style-fonts">
      </style></defs><g stroke-linecap="round"><g transform="translate(13.237307718060038 21.128307859299184) rotate(0 53.73806147011146 78.43501277078394)" fill-rule="evenodd"><path d="M0 0 C-0.38 24.98, -5.24 122.65, -2.3 149.86 C0.64 177.07, 13.03 169.36, 17.64 163.24 C22.26 157.12, 19.11 123.18, 25.42 113.13 C31.73 103.08, 48.17 102.78, 55.5 102.92 C62.83 103.06, 66.96 106.82, 69.41 113.96 C71.86 121.1, 68.78 137.28, 70.19 145.76 C71.6 154.25, 73.33 162.36, 77.86 164.87 C82.38 167.37, 94.09 171.82, 97.36 160.79 C100.63 149.76, 96.9 117.99, 97.47 98.67 C98.05 79.34, 98.79 61.79, 100.84 44.84 C102.89 27.9, 111.67 5.81, 109.77 -2.99 C107.87 -11.8, 93.76 -13.44, 89.43 -8 C85.1 -2.55, 86.01 16.01, 83.8 29.67 C81.6 43.32, 83.34 65.62, 76.2 73.94 C69.05 82.26, 49.15 80.21, 40.94 79.59 C32.72 78.96, 28.33 79.92, 26.9 70.18 C25.46 60.44, 32.2 32.97, 32.34 21.14 C32.47 9.31, 33.08 2.71, 27.69 -0.81 C22.3 -4.34, 4.62 -0.14, 0 0" stroke="none" stroke-width="0" fill="#343a40" fill-rule="evenodd"></path><path d="M0 0 C-0.38 24.98, -5.24 122.65, -2.3 149.86 C0.64 177.07, 13.03 169.36, 17.64 163.24 C22.26 157.12, 19.11 123.18, 25.42 113.13 C31.73 103.08, 48.17 102.78, 55.5 102.92 C62.83 103.06, 66.96 106.82, 69.41 113.96 C71.86 121.1, 68.78 137.28, 70.19 145.76 C71.6 154.25, 73.33 162.36, 77.86 164.87 C82.38 167.37, 94.09 171.82, 97.36 160.79 C100.63 149.76, 96.9 117.99, 97.47 98.67 C98.05 79.34, 98.79 61.79, 100.84 44.84 C102.89 27.9, 111.67 5.81, 109.77 -2.99 C107.87 -11.8, 93.76 -13.44, 89.43 -8 C85.1 -2.55, 86.01 16.01, 83.8 29.67 C81.6 43.32, 83.34 65.62, 76.2 73.94 C69.05 82.26, 49.15 80.21, 40.94 79.59 C32.72 78.96, 28.33 79.92, 26.9 70.18 C25.46 60.44, 32.2 32.97, 32.34 21.14 C32.47 9.31, 33.08 2.71, 27.69 -0.81 C22.3 -4.34, 4.62 -0.14, 0 0 M0 0 C-0.38 24.98, -5.24 122.65, -2.3 149.86 C0.64 177.07, 13.03 169.36, 17.64 163.24 C22.26 157.12, 19.11 123.18, 25.42 113.13 C31.73 103.08, 48.17 102.78, 55.5 102.92 C62.83 103.06, 66.96 106.82, 69.41 113.96 C71.86 121.1, 68.78 137.28, 70.19 145.76 C71.6 154.25, 73.33 162.36, 77.86 164.87 C82.38 167.37, 94.09 171.82, 97.36 160.79 C100.63 149.76, 96.9 117.99, 97.47 98.67 C98.05 79.34, 98.79 61.79, 100.84 44.84 C102.89 27.9, 111.67 5.81, 109.77 -2.99 C107.87 -11.8, 93.76 -13.44, 89.43 -8 C85.1 -2.55, 86.01 16.01, 83.8 29.67 C81.6 43.32, 83.34 65.62, 76.2 73.94 C69.05 82.26, 49.15 80.21, 40.94 79.59 C32.72 78.96, 28.33 79.92, 26.9 70.18 C25.46 60.44, 32.2 32.97, 32.34 21.14 C32.47 9.31, 33.08 2.71, 27.69 -0.81 C22.3 -4.34, 4.62 -0.14, 0 0" stroke="#343a40" stroke-width="4" fill="none"></path></g></g><mask></mask><g stroke-linecap="round"><g transform="translate(155.06912168271447 114.03515833399388) rotate(0 9.078531089916396 23.181351177271154)" fill-rule="evenodd"><path d="M0 0 C-0.02 8.8, -1.97 42.34, -0.13 52.83 C1.72 63.31, 8.02 65.18, 11.09 62.93 C14.16 60.69, 18.31 50.38, 18.28 39.37 C18.26 28.36, 13.78 6.18, 10.93 -3.14 C8.08 -12.46, 3 -17.09, 1.18 -16.57 C-0.64 -16.05, 0.2 -2.76, 0 0" stroke="none" stroke-width="0" fill="#343a40" fill-rule="evenodd"></path><path d="M0 0 C-0.02 8.8, -1.97 42.34, -0.13 52.83 C1.72 63.31, 8.02 65.18, 11.09 62.93 C14.16 60.69, 18.31 50.38, 18.28 39.37 C18.26 28.36, 13.78 6.18, 10.93 -3.14 C8.08 -12.46, 3 -17.09, 1.18 -16.57 C-0.64 -16.05, 0.2 -2.76, 0 0 M0 0 C-0.02 8.8, -1.97 42.34, -0.13 52.83 C1.72 63.31, 8.02 65.18, 11.09 62.93 C14.16 60.69, 18.31 50.38, 18.28 39.37 C18.26 28.36, 13.78 6.18, 10.93 -3.14 C8.08 -12.46, 3 -17.09, 1.18 -16.57 C-0.64 -16.05, 0.2 -2.76, 0 0" stroke="#343a40" stroke-width="4" fill="none"></path></g></g><mask></mask><g stroke-linecap="round"><g transform="translate(157.77981401853685 30.89150181033756) rotate(0 0.4034252357478181 18.520016413010126)" fill-rule="evenodd"><path d="M0 0 C-2.79 2.11, -14.1 7.35, -16.73 12.66 C-19.36 17.97, -19.34 27.8, -15.79 31.86 C-12.23 35.92, -0.95 36.8, 4.6 37.04 C10.15 37.28, 16.11 38.56, 17.53 33.3 C18.96 28.03, 16.08 10.98, 13.16 5.44 C10.23 -0.11, 2.19 0.91, 0 0" stroke="none" stroke-width="0" fill="#343a40" fill-rule="evenodd"></path><path d="M0 0 C-2.79 2.11, -14.1 7.35, -16.73 12.66 C-19.36 17.97, -19.34 27.8, -15.79 31.86 C-12.23 35.92, -0.95 36.8, 4.6 37.04 C10.15 37.28, 16.11 38.56, 17.53 33.3 C18.96 28.03, 16.08 10.98, 13.16 5.44 C10.23 -0.11, 2.19 0.91, 0 0 M0 0 C-2.79 2.11, -14.1 7.35, -16.73 12.66 C-19.36 17.97, -19.34 27.8, -15.79 31.86 C-12.23 35.92, -0.95 36.8, 4.6 37.04 C10.15 37.28, 16.11 38.56, 17.53 33.3 C18.96 28.03, 16.08 10.98, 13.16 5.44 C10.23 -0.11, 2.19 0.91, 0 0" stroke="#343a40" stroke-width="4" fill="none"></path></g></g><mask></mask><g stroke-linecap="round"><g transform="translate(199.40391575125795 160.36360539528187) rotate(0 12.898584760410813 27.979363294662335)" fill-rule="evenodd"><path d="M0 0 C0.08 3.93, 0.94 13.26, 0.51 23.55 C0.07 33.85, -3.83 52.49, -2.6 61.78 C-1.38 71.07, 3.59 80.23, 7.87 79.31 C12.16 78.39, 20.05 64.8, 23.1 56.27 C26.15 47.73, 25.3 39.65, 26.18 28.08 C27.06 16.5, 29.49 -4.6, 28.4 -13.18 C27.31 -21.75, 24.39 -25.54, 19.66 -23.35 C14.93 -21.15, 3.28 -3.89, 0 0" stroke="none" stroke-width="0" fill="#343a40" fill-rule="evenodd"></path><path d="M0 0 C0.08 3.93, 0.94 13.26, 0.51 23.55 C0.07 33.85, -3.83 52.49, -2.6 61.78 C-1.38 71.07, 3.59 80.23, 7.87 79.31 C12.16 78.39, 20.05 64.8, 23.1 56.27 C26.15 47.73, 25.3 39.65, 26.18 28.08 C27.06 16.5, 29.49 -4.6, 28.4 -13.18 C27.31 -21.75, 24.39 -25.54, 19.66 -23.35 C14.93 -21.15, 3.28 -3.89, 0 0 M0 0 C0.08 3.93, 0.94 13.26, 0.51 23.55 C0.07 33.85, -3.83 52.49, -2.6 61.78 C-1.38 71.07, 3.59 80.23, 7.87 79.31 C12.16 78.39, 20.05 64.8, 23.1 56.27 C26.15 47.73, 25.3 39.65, 26.18 28.08 C27.06 16.5, 29.49 -4.6, 28.4 -13.18 C27.31 -21.75, 24.39 -25.54, 19.66 -23.35 C14.93 -21.15, 3.28 -3.89, 0 0" stroke="#343a40" stroke-width="4" fill="none"></path></g></g><mask></mask></svg>