<svg version="1.1" xmlns="http://www.w3.org/2000/svg" viewBox="0 0 1333.7102126628188 840.440243342387" width="1333.7102126628188" height="840.440243342387"><!-- svg-source:excalidraw --><metadata></metadata><defs><style class="style-fonts">
      </style></defs><g stroke-linecap="round"><g transform="translate(28.866305831491445 282.7885068599703) rotate(0 179.93922894191417 -34.16337677440424)" fill-rule="evenodd"><path d="M0 0 C4.15 -13.81, -0.88 -69.1, 24.92 -82.85 C50.71 -96.6, 119.46 -76.97, 154.75 -82.49 C190.05 -88.01, 208.87 -112.04, 236.66 -115.97 C264.46 -119.91, 300.99 -119.4, 321.52 -106.11 C342.06 -92.82, 365.36 -54.29, 359.88 -36.24 C354.4 -18.2, 312.2 1.58, 288.62 2.16 C265.05 2.74, 238 -32.69, 218.42 -32.76 C198.83 -32.84, 192.51 -11.68, 171.12 1.72 C149.73 15.12, 115.25 42.94, 90.08 47.65 C64.91 52.35, 35.1 37.88, 20.09 29.94 C5.07 22, 3.35 4.99, 0 0" stroke="none" stroke-width="0" fill="#000000" fill-rule="evenodd"></path><path d="M0 0 C4.15 -13.81, -0.88 -69.1, 24.92 -82.85 C50.71 -96.6, 119.46 -76.97, 154.75 -82.49 C190.05 -88.01, 208.87 -112.04, 236.66 -115.97 C264.46 -119.91, 300.99 -119.4, 321.52 -106.11 C342.06 -92.82, 365.36 -54.29, 359.88 -36.24 C354.4 -18.2, 312.2 1.58, 288.62 2.16 C265.05 2.74, 238 -32.69, 218.42 -32.76 C198.83 -32.84, 192.51 -11.68, 171.12 1.72 C149.73 15.12, 115.25 42.94, 90.08 47.65 C64.91 52.35, 35.1 37.88, 20.09 29.94 C5.07 22, 3.35 4.99, 0 0 M0 0 C4.15 -13.81, -0.88 -69.1, 24.92 -82.85 C50.71 -96.6, 119.46 -76.97, 154.75 -82.49 C190.05 -88.01, 208.87 -112.04, 236.66 -115.97 C264.46 -119.91, 300.99 -119.4, 321.52 -106.11 C342.06 -92.82, 365.36 -54.29, 359.88 -36.24 C354.4 -18.2, 312.2 1.58, 288.62 2.16 C265.05 2.74, 238 -32.69, 218.42 -32.76 C198.83 -32.84, 192.51 -11.68, 171.12 1.72 C149.73 15.12, 115.25 42.94, 90.08 47.65 C64.91 52.35, 35.1 37.88, 20.09 29.94 C5.07 22, 3.35 4.99, 0 0" stroke="00000" stroke-width="4" fill="none"></path></g></g><mask></mask><g stroke-linecap="round"><g transform="translate(327.7252496620388 344.3553273818143) rotate(0 33.28436911693984 52.876812953843)" fill-rule="evenodd"><path d="M0 0 C-12.19 -7.98, -50.84 -53.9, -73.12 -47.87 C-95.4 -41.83, -130.64 2.63, -133.67 36.22 C-136.7 69.8, -133.91 139.33, -91.3 153.62 C-48.7 167.91, 112.44 130.68, 121.95 121.95 C131.46 113.21, -47.3 109.22, -34.26 101.21 C-21.21 93.21, 169.61 88.58, 200.24 73.93 C230.86 59.27, 168.64 28.48, 149.48 13.28 C130.31 -1.93, 110.16 -15.11, 85.24 -17.32 C60.33 -19.53, 14.21 -2.89, 0 0" stroke="none" stroke-width="0" fill="#000000" fill-rule="evenodd"></path><path d="M0 0 C-12.19 -7.98, -50.84 -53.9, -73.12 -47.87 C-95.4 -41.83, -130.64 2.63, -133.67 36.22 C-136.7 69.8, -133.91 139.33, -91.3 153.62 C-48.7 167.91, 112.44 130.68, 121.95 121.95 C131.46 113.21, -47.3 109.22, -34.26 101.21 C-21.21 93.21, 169.61 88.58, 200.24 73.93 C230.86 59.27, 168.64 28.48, 149.48 13.28 C130.31 -1.93, 110.16 -15.11, 85.24 -17.32 C60.33 -19.53, 14.21 -2.89, 0 0 M0 0 C-12.19 -7.98, -50.84 -53.9, -73.12 -47.87 C-95.4 -41.83, -130.64 2.63, -133.67 36.22 C-136.7 69.8, -133.91 139.33, -91.3 153.62 C-48.7 167.91, 112.44 130.68, 121.95 121.95 C131.46 113.21, -47.3 109.22, -34.26 101.21 C-21.21 93.21, 169.61 88.58, 200.24 73.93 C230.86 59.27, 168.64 28.48, 149.48 13.28 C130.31 -1.93, 110.16 -15.11, 85.24 -17.32 C60.33 -19.53, 14.21 -2.89, 0 0" stroke="00000" stroke-width="4" fill="none"></path></g></g><mask></mask><g stroke-linecap="round"><g transform="translate(470.7939559106287 279.3360396613489) rotate(0 9.352601389182723 -112.40667446525367)" fill-rule="evenodd"><path d="M0 0 C24.79 -0.44, 116.61 15.63, 148.76 -2.63 C180.91 -20.89, 204.61 -93.83, 192.89 -109.54 C181.17 -125.25, 97.19 -89.02, 78.42 -96.89 C59.65 -104.76, 96.7 -144.96, 80.26 -156.78 C63.81 -168.59, 8.06 -156.44, -20.25 -167.78 C-48.55 -179.12, -63.91 -217.14, -89.57 -224.81 C-115.23 -232.49, -174.6 -225.43, -174.19 -213.81 C-173.77 -202.19, -112.57 -170.97, -87.09 -155.11 C-61.6 -139.25, -39.34 -132.05, -21.28 -118.67 C-3.21 -105.3, 0.97 -84.03, 21.31 -74.87 C41.64 -65.72, 95.06 -70.9, 100.75 -63.76 C106.43 -56.62, 73.75 -34.67, 55.42 -32.04 C37.09 -29.42, 2.81 -52.3, -9.25 -48 C-21.31 -43.71, -18.48 -14.29, -16.94 -6.29 C-15.39 1.71, -2.82 -1.05, 0 0" stroke="none" stroke-width="0" fill="#000000" fill-rule="evenodd"></path><path d="M0 0 C24.79 -0.44, 116.61 15.63, 148.76 -2.63 C180.91 -20.89, 204.61 -93.83, 192.89 -109.54 C181.17 -125.25, 97.19 -89.02, 78.42 -96.89 C59.65 -104.76, 96.7 -144.96, 80.26 -156.78 C63.81 -168.59, 8.06 -156.44, -20.25 -167.78 C-48.55 -179.12, -63.91 -217.14, -89.57 -224.81 C-115.23 -232.49, -174.6 -225.43, -174.19 -213.81 C-173.77 -202.19, -112.57 -170.97, -87.09 -155.11 C-61.6 -139.25, -39.34 -132.05, -21.28 -118.67 C-3.21 -105.3, 0.97 -84.03, 21.31 -74.87 C41.64 -65.72, 95.06 -70.9, 100.75 -63.76 C106.43 -56.62, 73.75 -34.67, 55.42 -32.04 C37.09 -29.42, 2.81 -52.3, -9.25 -48 C-21.31 -43.71, -18.48 -14.29, -16.94 -6.29 C-15.39 1.71, -2.82 -1.05, 0 0 M0 0 C24.79 -0.44, 116.61 15.63, 148.76 -2.63 C180.91 -20.89, 204.61 -93.83, 192.89 -109.54 C181.17 -125.25, 97.19 -89.02, 78.42 -96.89 C59.65 -104.76, 96.7 -144.96, 80.26 -156.78 C63.81 -168.59, 8.06 -156.44, -20.25 -167.78 C-48.55 -179.12, -63.91 -217.14, -89.57 -224.81 C-115.23 -232.49, -174.6 -225.43, -174.19 -213.81 C-173.77 -202.19, -112.57 -170.97, -87.09 -155.11 C-61.6 -139.25, -39.34 -132.05, -21.28 -118.67 C-3.21 -105.3, 0.97 -84.03, 21.31 -74.87 C41.64 -65.72, 95.06 -70.9, 100.75 -63.76 C106.43 -56.62, 73.75 -34.67, 55.42 -32.04 C37.09 -29.42, 2.81 -52.3, -9.25 -48 C-21.31 -43.71, -18.48 -14.29, -16.94 -6.29 C-15.39 1.71, -2.82 -1.05, 0 0" stroke="00000" stroke-width="4" fill="none"></path></g></g><mask></mask><g stroke-linecap="round"><g transform="translate(590.6494525648802 469.86030925711157) rotate(0 27.395974307818847 39.71050164031476)" fill-rule="evenodd"><path d="M0 0 C-10.72 -2.2, -48.43 -17.49, -64.34 -13.18 C-80.24 -8.87, -93.76 2.38, -95.42 25.87 C-97.07 49.37, -101.21 113.12, -74.28 127.8 C-47.35 142.49, 52.76 125.89, 66.17 113.97 C79.58 102.06, 12.77 71.12, 6.18 56.29 C-0.41 41.47, 2.6 28.21, 26.61 25.03 C50.61 21.85, 135.49 47.82, 150.21 37.21 C164.92 26.61, 128.98 -27.79, 114.9 -38.62 C100.82 -49.44, 79.68 -26.1, 65.72 -27.73 C51.76 -29.36, 42.09 -53, 31.14 -48.38 C20.19 -43.76, 5.19 -8.06, 0 0" stroke="none" stroke-width="0" fill="#000000" fill-rule="evenodd"></path><path d="M0 0 C-10.72 -2.2, -48.43 -17.49, -64.34 -13.18 C-80.24 -8.87, -93.76 2.38, -95.42 25.87 C-97.07 49.37, -101.21 113.12, -74.28 127.8 C-47.35 142.49, 52.76 125.89, 66.17 113.97 C79.58 102.06, 12.77 71.12, 6.18 56.29 C-0.41 41.47, 2.6 28.21, 26.61 25.03 C50.61 21.85, 135.49 47.82, 150.21 37.21 C164.92 26.61, 128.98 -27.79, 114.9 -38.62 C100.82 -49.44, 79.68 -26.1, 65.72 -27.73 C51.76 -29.36, 42.09 -53, 31.14 -48.38 C20.19 -43.76, 5.19 -8.06, 0 0 M0 0 C-10.72 -2.2, -48.43 -17.49, -64.34 -13.18 C-80.24 -8.87, -93.76 2.38, -95.42 25.87 C-97.07 49.37, -101.21 113.12, -74.28 127.8 C-47.35 142.49, 52.76 125.89, 66.17 113.97 C79.58 102.06, 12.77 71.12, 6.18 56.29 C-0.41 41.47, 2.6 28.21, 26.61 25.03 C50.61 21.85, 135.49 47.82, 150.21 37.21 C164.92 26.61, 128.98 -27.79, 114.9 -38.62 C100.82 -49.44, 79.68 -26.1, 65.72 -27.73 C51.76 -29.36, 42.09 -53, 31.14 -48.38 C20.19 -43.76, 5.19 -8.06, 0 0" stroke="00000" stroke-width="4" fill="none"></path></g></g><mask></mask><g stroke-linecap="round"><g transform="translate(845.9418117138318 234.21167170473973) rotate(0 -23.269937868029956 67.46742824590797)" fill-rule="evenodd"><path d="M0 0 C-4.43 -5.96, -9.01 -32.8, -26.56 -35.79 C-44.1 -38.77, -95.5 -33.23, -105.27 -17.89 C-115.05 -2.56, -78.46 43.64, -85.2 56.22 C-91.94 68.81, -125.35 51.41, -145.7 57.61 C-166.06 63.8, -210.63 84.58, -207.32 93.38 C-204.01 102.18, -142.59 97.52, -125.83 110.41 C-109.08 123.3, -124 163.1, -106.79 170.72 C-89.59 178.34, -34.63 168.51, -22.61 156.13 C-10.58 143.75, -48.3 105, -34.64 96.45 C-20.99 87.91, 49.12 110.36, 59.32 104.87 C69.51 99.38, 9.6 72.01, 26.51 63.53 C43.42 55.05, 142.9 70.03, 160.78 53.99 C178.66 37.95, 151.26 -23.6, 133.8 -32.7 C116.33 -41.8, 78.32 -6.07, 56.02 -0.62 C33.72 4.83, 9.34 -0.1, 0 0" stroke="none" stroke-width="0" fill="#000000" fill-rule="evenodd"></path><path d="M0 0 C-4.43 -5.96, -9.01 -32.8, -26.56 -35.79 C-44.1 -38.77, -95.5 -33.23, -105.27 -17.89 C-115.05 -2.56, -78.46 43.64, -85.2 56.22 C-91.94 68.81, -125.35 51.41, -145.7 57.61 C-166.06 63.8, -210.63 84.58, -207.32 93.38 C-204.01 102.18, -142.59 97.52, -125.83 110.41 C-109.08 123.3, -124 163.1, -106.79 170.72 C-89.59 178.34, -34.63 168.51, -22.61 156.13 C-10.58 143.75, -48.3 105, -34.64 96.45 C-20.99 87.91, 49.12 110.36, 59.32 104.87 C69.51 99.38, 9.6 72.01, 26.51 63.53 C43.42 55.05, 142.9 70.03, 160.78 53.99 C178.66 37.95, 151.26 -23.6, 133.8 -32.7 C116.33 -41.8, 78.32 -6.07, 56.02 -0.62 C33.72 4.83, 9.34 -0.1, 0 0 M0 0 C-4.43 -5.96, -9.01 -32.8, -26.56 -35.79 C-44.1 -38.77, -95.5 -33.23, -105.27 -17.89 C-115.05 -2.56, -78.46 43.64, -85.2 56.22 C-91.94 68.81, -125.35 51.41, -145.7 57.61 C-166.06 63.8, -210.63 84.58, -207.32 93.38 C-204.01 102.18, -142.59 97.52, -125.83 110.41 C-109.08 123.3, -124 163.1, -106.79 170.72 C-89.59 178.34, -34.63 168.51, -22.61 156.13 C-10.58 143.75, -48.3 105, -34.64 96.45 C-20.99 87.91, 49.12 110.36, 59.32 104.87 C69.51 99.38, 9.6 72.01, 26.51 63.53 C43.42 55.05, 142.9 70.03, 160.78 53.99 C178.66 37.95, 151.26 -23.6, 133.8 -32.7 C116.33 -41.8, 78.32 -6.07, 56.02 -0.62 C33.72 4.83, 9.34 -0.1, 0 0" stroke="00000" stroke-width="4" fill="none"></path></g></g><mask></mask><g stroke-linecap="round"><g transform="translate(317.4763415485395 574.0422893953778) rotate(0 32.263260190502706 29.808377694042747)" fill-rule="evenodd"><path d="M0 0 C19.42 -11.82, 92.51 -81.36, 116.5 -70.94 C140.5 -60.51, 152.14 28.96, 143.95 62.54 C135.76 96.12, 104.59 121.94, 67.36 130.55 C30.14 139.17, -68.19 135.99, -79.42 114.23 C-90.65 92.47, -13.24 19.04, 0 0" stroke="none" stroke-width="0" fill="#000000" fill-rule="evenodd"></path><path d="M0 0 C19.42 -11.82, 92.51 -81.36, 116.5 -70.94 C140.5 -60.51, 152.14 28.96, 143.95 62.54 C135.76 96.12, 104.59 121.94, 67.36 130.55 C30.14 139.17, -68.19 135.99, -79.42 114.23 C-90.65 92.47, -13.24 19.04, 0 0 M0 0 C19.42 -11.82, 92.51 -81.36, 116.5 -70.94 C140.5 -60.51, 152.14 28.96, 143.95 62.54 C135.76 96.12, 104.59 121.94, 67.36 130.55 C30.14 139.17, -68.19 135.99, -79.42 114.23 C-90.65 92.47, -13.24 19.04, 0 0" stroke="00000" stroke-width="4" fill="none"></path></g></g><mask></mask><g stroke-linecap="round"><g transform="translate(111.37874134438425 459.0250206352471) rotate(0 55.491597324493 158.61532688297666)" fill-rule="evenodd"><path d="M0 0 C-14.58 2.54, -74.51 -4.58, -87.45 15.26 C-100.4 35.09, -98.91 96.47, -77.66 119.01 C-56.42 141.56, 29.84 132.88, 39.99 150.52 C50.14 168.15, 6.22 207.46, -16.78 224.83 C-39.77 242.2, -88.04 239.39, -97.97 254.75 C-107.91 270.11, -94.72 306.59, -76.37 317 C-58.02 327.42, -10.86 331.23, 12.11 317.23 C35.08 303.23, 39.72 261.3, 61.46 233 C83.19 204.71, 117.94 173.37, 142.52 147.44 C167.11 121.51, 220.01 88.55, 208.96 77.44 C197.9 66.33, 101.3 92.78, 76.19 80.77 C51.08 68.76, 70.99 18.85, 58.29 5.39 C45.6 -8.07, 9.72 0.9, 0 0" stroke="none" stroke-width="0" fill="#000000" fill-rule="evenodd"></path><path d="M0 0 C-14.58 2.54, -74.51 -4.58, -87.45 15.26 C-100.4 35.09, -98.91 96.47, -77.66 119.01 C-56.42 141.56, 29.84 132.88, 39.99 150.52 C50.14 168.15, 6.22 207.46, -16.78 224.83 C-39.77 242.2, -88.04 239.39, -97.97 254.75 C-107.91 270.11, -94.72 306.59, -76.37 317 C-58.02 327.42, -10.86 331.23, 12.11 317.23 C35.08 303.23, 39.72 261.3, 61.46 233 C83.19 204.71, 117.94 173.37, 142.52 147.44 C167.11 121.51, 220.01 88.55, 208.96 77.44 C197.9 66.33, 101.3 92.78, 76.19 80.77 C51.08 68.76, 70.99 18.85, 58.29 5.39 C45.6 -8.07, 9.72 0.9, 0 0 M0 0 C-14.58 2.54, -74.51 -4.58, -87.45 15.26 C-100.4 35.09, -98.91 96.47, -77.66 119.01 C-56.42 141.56, 29.84 132.88, 39.99 150.52 C50.14 168.15, 6.22 207.46, -16.78 224.83 C-39.77 242.2, -88.04 239.39, -97.97 254.75 C-107.91 270.11, -94.72 306.59, -76.37 317 C-58.02 327.42, -10.86 331.23, 12.11 317.23 C35.08 303.23, 39.72 261.3, 61.46 233 C83.19 204.71, 117.94 173.37, 142.52 147.44 C167.11 121.51, 220.01 88.55, 208.96 77.44 C197.9 66.33, 101.3 92.78, 76.19 80.77 C51.08 68.76, 70.99 18.85, 58.29 5.39 C45.6 -8.07, 9.72 0.9, 0 0" stroke="00000" stroke-width="4" fill="none"></path></g></g><mask></mask><g stroke-linecap="round"><g transform="translate(25.5829002141827 376.6194015905753) rotate(0 72.66135482828872 7.98668066479172)" fill-rule="evenodd"><path d="M0 0 C6.64 7.66, 19.58 38.29, 39.85 45.93 C60.12 53.58, 104.05 58.53, 121.63 45.88 C139.2 33.23, 156.41 -21.69, 145.32 -29.96 C134.23 -38.23, 79.31 -8.73, 55.09 -3.73 C30.87 1.26, 9.18 -0.62, 0 0" stroke="none" stroke-width="0" fill="#000000" fill-rule="evenodd"></path><path d="M0 0 C6.64 7.66, 19.58 38.29, 39.85 45.93 C60.12 53.58, 104.05 58.53, 121.63 45.88 C139.2 33.23, 156.41 -21.69, 145.32 -29.96 C134.23 -38.23, 79.31 -8.73, 55.09 -3.73 C30.87 1.26, 9.18 -0.62, 0 0 M0 0 C6.64 7.66, 19.58 38.29, 39.85 45.93 C60.12 53.58, 104.05 58.53, 121.63 45.88 C139.2 33.23, 156.41 -21.69, 145.32 -29.96 C134.23 -38.23, 79.31 -8.73, 55.09 -3.73 C30.87 1.26, 9.18 -0.62, 0 0" stroke="00000" stroke-width="4" fill="none"></path></g></g><mask></mask><g stroke-linecap="round"><g transform="translate(686.7168931180574 368.7233927970965) rotate(0 -93.73779944693524 -3.388861190311445)" fill-rule="evenodd"><path d="M0 0 C-13.86 -3.63, -61.03 -11.71, -83.17 -21.77 C-105.31 -31.82, -115.46 -56.72, -132.84 -60.33 C-150.23 -63.94, -189.04 -55.93, -187.48 -43.44 C-185.91 -30.95, -133.35 -1.47, -123.45 14.64 C-113.55 30.74, -133.15 46.72, -128.08 53.21 C-123.01 59.69, -103.51 58.36, -93.03 53.55 C-82.55 48.74, -77.91 25.84, -65.2 24.36 C-52.49 22.88, -27.62 48.72, -16.75 44.66 C-5.89 40.6, -2.79 7.44, 0 0" stroke="none" stroke-width="0" fill="#000000" fill-rule="evenodd"></path><path d="M0 0 C-13.86 -3.63, -61.03 -11.71, -83.17 -21.77 C-105.31 -31.82, -115.46 -56.72, -132.84 -60.33 C-150.23 -63.94, -189.04 -55.93, -187.48 -43.44 C-185.91 -30.95, -133.35 -1.47, -123.45 14.64 C-113.55 30.74, -133.15 46.72, -128.08 53.21 C-123.01 59.69, -103.51 58.36, -93.03 53.55 C-82.55 48.74, -77.91 25.84, -65.2 24.36 C-52.49 22.88, -27.62 48.72, -16.75 44.66 C-5.89 40.6, -2.79 7.44, 0 0 M0 0 C-13.86 -3.63, -61.03 -11.71, -83.17 -21.77 C-105.31 -31.82, -115.46 -56.72, -132.84 -60.33 C-150.23 -63.94, -189.04 -55.93, -187.48 -43.44 C-185.91 -30.95, -133.35 -1.47, -123.45 14.64 C-113.55 30.74, -133.15 46.72, -128.08 53.21 C-123.01 59.69, -103.51 58.36, -93.03 53.55 C-82.55 48.74, -77.91 25.84, -65.2 24.36 C-52.49 22.88, -27.62 48.72, -16.75 44.66 C-5.89 40.6, -2.79 7.44, 0 0" stroke="00000" stroke-width="4" fill="none"></path></g></g><mask></mask><g stroke-linecap="round"><g transform="translate(428.6410666733361 772.2358881063383) rotate(0 94.26348144980477 -62.654263077059795)" fill-rule="evenodd"><path d="M0 0 C9.72 -20.12, 31.34 -99.83, 58.34 -120.71 C85.34 -141.6, 140.33 -142.33, 162.02 -125.31 C183.72 -108.29, 198.9 -35.32, 188.53 -18.59 C178.15 -1.86, 109.64 -15.97, 99.77 -24.93 C89.91 -33.9, 134.14 -65.62, 129.33 -72.4 C124.51 -79.18, 82.63 -77.6, 70.86 -65.62 C59.09 -53.65, 70.52 -11.47, 58.71 -0.53 C46.9 10.41, 9.78 -0.09, 0 0" stroke="none" stroke-width="0" fill="#000000" fill-rule="evenodd"></path><path d="M0 0 C9.72 -20.12, 31.34 -99.83, 58.34 -120.71 C85.34 -141.6, 140.33 -142.33, 162.02 -125.31 C183.72 -108.29, 198.9 -35.32, 188.53 -18.59 C178.15 -1.86, 109.64 -15.97, 99.77 -24.93 C89.91 -33.9, 134.14 -65.62, 129.33 -72.4 C124.51 -79.18, 82.63 -77.6, 70.86 -65.62 C59.09 -53.65, 70.52 -11.47, 58.71 -0.53 C46.9 10.41, 9.78 -0.09, 0 0 M0 0 C9.72 -20.12, 31.34 -99.83, 58.34 -120.71 C85.34 -141.6, 140.33 -142.33, 162.02 -125.31 C183.72 -108.29, 198.9 -35.32, 188.53 -18.59 C178.15 -1.86, 109.64 -15.97, 99.77 -24.93 C89.91 -33.9, 134.14 -65.62, 129.33 -72.4 C124.51 -79.18, 82.63 -77.6, 70.86 -65.62 C59.09 -53.65, 70.52 -11.47, 58.71 -0.53 C46.9 10.41, 9.78 -0.09, 0 0" stroke="00000" stroke-width="4" fill="none"></path></g></g><mask></mask><g stroke-linecap="round"><g transform="translate(827.5921061172644 562.8669812560906) rotate(0 -98.88116292824873 76.17192789192472)" fill-rule="evenodd"><path d="M0 0 C-19.91 -5.94, -93.08 -30.01, -119.48 -35.65 C-145.87 -41.28, -154.7 -39.59, -158.39 -33.81 C-162.07 -28.03, -144.5 -14, -141.59 -0.97 C-138.69 12.05, -131.58 33.58, -140.94 44.33 C-150.3 55.08, -191.2 47.51, -197.76 63.52 C-204.33 79.52, -188.57 119.64, -180.32 140.38 C-172.07 161.13, -162.41 185.07, -148.27 187.99 C-134.12 190.91, -99 171.1, -95.44 157.9 C-91.87 144.69, -136.31 113.89, -126.87 108.76 C-117.44 103.63, -49.83 130.26, -38.8 127.1 C-27.78 123.93, -64.75 101.58, -60.74 89.77 C-56.72 77.96, -24.85 71.2, -14.73 56.24 C-4.6 41.28, -2.45 9.37, 0 0" stroke="none" stroke-width="0" fill="#000000" fill-rule="evenodd"></path><path d="M0 0 C-19.91 -5.94, -93.08 -30.01, -119.48 -35.65 C-145.87 -41.28, -154.7 -39.59, -158.39 -33.81 C-162.07 -28.03, -144.5 -14, -141.59 -0.97 C-138.69 12.05, -131.58 33.58, -140.94 44.33 C-150.3 55.08, -191.2 47.51, -197.76 63.52 C-204.33 79.52, -188.57 119.64, -180.32 140.38 C-172.07 161.13, -162.41 185.07, -148.27 187.99 C-134.12 190.91, -99 171.1, -95.44 157.9 C-91.87 144.69, -136.31 113.89, -126.87 108.76 C-117.44 103.63, -49.83 130.26, -38.8 127.1 C-27.78 123.93, -64.75 101.58, -60.74 89.77 C-56.72 77.96, -24.85 71.2, -14.73 56.24 C-4.6 41.28, -2.45 9.37, 0 0 M0 0 C-19.91 -5.94, -93.08 -30.01, -119.48 -35.65 C-145.87 -41.28, -154.7 -39.59, -158.39 -33.81 C-162.07 -28.03, -144.5 -14, -141.59 -0.97 C-138.69 12.05, -131.58 33.58, -140.94 44.33 C-150.3 55.08, -191.2 47.51, -197.76 63.52 C-204.33 79.52, -188.57 119.64, -180.32 140.38 C-172.07 161.13, -162.41 185.07, -148.27 187.99 C-134.12 190.91, -99 171.1, -95.44 157.9 C-91.87 144.69, -136.31 113.89, -126.87 108.76 C-117.44 103.63, -49.83 130.26, -38.8 127.1 C-27.78 123.93, -64.75 101.58, -60.74 89.77 C-56.72 77.96, -24.85 71.2, -14.73 56.24 C-4.6 41.28, -2.45 9.37, 0 0" stroke="00000" stroke-width="4" fill="none"></path></g></g><mask></mask><g stroke-linecap="round"><g transform="translate(56.4884637210198 47.50317669338938) rotate(0 122.43852404964582 52.08343407985694)" fill-rule="evenodd"><path d="M0 0 C-0.15 17.35, -13.66 84.01, -0.9 104.12 C11.85 124.23, 49.82 122.46, 76.53 120.65 C103.24 118.85, 132.27 97.52, 159.37 93.27 C186.47 89.02, 224.73 101.06, 239.13 95.17 C253.53 89.28, 256.01 69.3, 245.78 57.93 C235.54 46.56, 188.51 36.45, 177.71 26.93 C166.91 17.41, 186.34 8.03, 181 0.79 C175.66 -6.44, 157.87 -19.61, 145.65 -16.49 C133.43 -13.36, 120.69 10.15, 107.69 19.54 C94.7 28.93, 78.06 44.22, 67.67 39.87 C57.28 35.52, 56.63 0.09, 45.35 -6.55 C34.07 -13.2, 7.56 -1.09, 0 0" stroke="none" stroke-width="0" fill="#000000" fill-rule="evenodd"></path><path d="M0 0 C-0.15 17.35, -13.66 84.01, -0.9 104.12 C11.85 124.23, 49.82 122.46, 76.53 120.65 C103.24 118.85, 132.27 97.52, 159.37 93.27 C186.47 89.02, 224.73 101.06, 239.13 95.17 C253.53 89.28, 256.01 69.3, 245.78 57.93 C235.54 46.56, 188.51 36.45, 177.71 26.93 C166.91 17.41, 186.34 8.03, 181 0.79 C175.66 -6.44, 157.87 -19.61, 145.65 -16.49 C133.43 -13.36, 120.69 10.15, 107.69 19.54 C94.7 28.93, 78.06 44.22, 67.67 39.87 C57.28 35.52, 56.63 0.09, 45.35 -6.55 C34.07 -13.2, 7.56 -1.09, 0 0 M0 0 C-0.15 17.35, -13.66 84.01, -0.9 104.12 C11.85 124.23, 49.82 122.46, 76.53 120.65 C103.24 118.85, 132.27 97.52, 159.37 93.27 C186.47 89.02, 224.73 101.06, 239.13 95.17 C253.53 89.28, 256.01 69.3, 245.78 57.93 C235.54 46.56, 188.51 36.45, 177.71 26.93 C166.91 17.41, 186.34 8.03, 181 0.79 C175.66 -6.44, 157.87 -19.61, 145.65 -16.49 C133.43 -13.36, 120.69 10.15, 107.69 19.54 C94.7 28.93, 78.06 44.22, 67.67 39.87 C57.28 35.52, 56.63 0.09, 45.35 -6.55 C34.07 -13.2, 7.56 -1.09, 0 0" stroke="00000" stroke-width="4" fill="none"></path></g></g><mask></mask><g stroke-linecap="round"><g transform="translate(601.4126970265156 124.98984671934795) rotate(0 168.18042206912014 25.47501784422434)" fill-rule="evenodd"><path d="M0 0 C0.33 3.64, -13.21 20.47, 1.96 21.84 C17.12 23.2, 75.01 1.14, 90.98 8.2 C106.96 15.26, 87.1 56.21, 97.78 64.19 C108.46 72.17, 137.56 64.12, 155.06 56.07 C172.57 48.01, 185.61 16.63, 202.82 15.84 C220.03 15.06, 246.29 39.71, 258.31 51.35 C270.33 62.99, 261.92 83.11, 274.93 85.68 C287.94 88.26, 326.38 77.89, 336.36 66.78 C346.34 55.67, 345.21 35.71, 334.79 19.03 C324.37 2.36, 297.32 -25.97, 273.85 -33.25 C250.37 -40.54, 213.44 -30.49, 193.94 -24.68 C174.43 -18.87, 169 2.78, 156.8 1.6 C144.61 0.43, 134.08 -25.68, 120.76 -31.74 C107.43 -37.79, 93.19 -37.67, 76.86 -34.73 C60.52 -31.8, 35.56 -19.89, 22.75 -14.1 C9.94 -8.31, 3.79 -2.35, 0 0" stroke="none" stroke-width="0" fill="#000000" fill-rule="evenodd"></path><path d="M0 0 C0.33 3.64, -13.21 20.47, 1.96 21.84 C17.12 23.2, 75.01 1.14, 90.98 8.2 C106.96 15.26, 87.1 56.21, 97.78 64.19 C108.46 72.17, 137.56 64.12, 155.06 56.07 C172.57 48.01, 185.61 16.63, 202.82 15.84 C220.03 15.06, 246.29 39.71, 258.31 51.35 C270.33 62.99, 261.92 83.11, 274.93 85.68 C287.94 88.26, 326.38 77.89, 336.36 66.78 C346.34 55.67, 345.21 35.71, 334.79 19.03 C324.37 2.36, 297.32 -25.97, 273.85 -33.25 C250.37 -40.54, 213.44 -30.49, 193.94 -24.68 C174.43 -18.87, 169 2.78, 156.8 1.6 C144.61 0.43, 134.08 -25.68, 120.76 -31.74 C107.43 -37.79, 93.19 -37.67, 76.86 -34.73 C60.52 -31.8, 35.56 -19.89, 22.75 -14.1 C9.94 -8.31, 3.79 -2.35, 0 0 M0 0 C0.33 3.64, -13.21 20.47, 1.96 21.84 C17.12 23.2, 75.01 1.14, 90.98 8.2 C106.96 15.26, 87.1 56.21, 97.78 64.19 C108.46 72.17, 137.56 64.12, 155.06 56.07 C172.57 48.01, 185.61 16.63, 202.82 15.84 C220.03 15.06, 246.29 39.71, 258.31 51.35 C270.33 62.99, 261.92 83.11, 274.93 85.68 C287.94 88.26, 326.38 77.89, 336.36 66.78 C346.34 55.67, 345.21 35.71, 334.79 19.03 C324.37 2.36, 297.32 -25.97, 273.85 -33.25 C250.37 -40.54, 213.44 -30.49, 193.94 -24.68 C174.43 -18.87, 169 2.78, 156.8 1.6 C144.61 0.43, 134.08 -25.68, 120.76 -31.74 C107.43 -37.79, 93.19 -37.67, 76.86 -34.73 C60.52 -31.8, 35.56 -19.89, 22.75 -14.1 C9.94 -8.31, 3.79 -2.35, 0 0" stroke="00000" stroke-width="4" fill="none"></path></g></g><mask></mask><g stroke-linecap="round"><g transform="translate(472.48067658171135 34.69577487047354) rotate(0 99.23287822513248 15.773127613767883)" fill-rule="evenodd"><path d="M0 0 C-0.24 5.63, -9.77 26.96, -1.46 33.8 C6.85 40.63, 32.78 41.08, 49.88 41 C66.97 40.91, 85.77 32.6, 101.1 33.29 C116.44 33.99, 125.44 46.47, 141.91 45.17 C158.38 43.87, 194.33 35.27, 199.93 25.47 C205.52 15.67, 189.91 -8.09, 175.46 -13.62 C161 -19.16, 142.43 -10, 113.19 -7.73 C83.95 -5.46, 18.87 -1.29, 0 0" stroke="none" stroke-width="0" fill="#000000" fill-rule="evenodd"></path><path d="M0 0 C-0.24 5.63, -9.77 26.96, -1.46 33.8 C6.85 40.63, 32.78 41.08, 49.88 41 C66.97 40.91, 85.77 32.6, 101.1 33.29 C116.44 33.99, 125.44 46.47, 141.91 45.17 C158.38 43.87, 194.33 35.27, 199.93 25.47 C205.52 15.67, 189.91 -8.09, 175.46 -13.62 C161 -19.16, 142.43 -10, 113.19 -7.73 C83.95 -5.46, 18.87 -1.29, 0 0 M0 0 C-0.24 5.63, -9.77 26.96, -1.46 33.8 C6.85 40.63, 32.78 41.08, 49.88 41 C66.97 40.91, 85.77 32.6, 101.1 33.29 C116.44 33.99, 125.44 46.47, 141.91 45.17 C158.38 43.87, 194.33 35.27, 199.93 25.47 C205.52 15.67, 189.91 -8.09, 175.46 -13.62 C161 -19.16, 142.43 -10, 113.19 -7.73 C83.95 -5.46, 18.87 -1.29, 0 0" stroke="00000" stroke-width="4" fill="none"></path></g></g><mask></mask><g stroke-linecap="round"><g transform="translate(735.9570346818116 20.770086634701784) rotate(0 138.08040004869883 70.68250168286977)" fill-rule="evenodd"><path d="M0 0 C-0.35 6.11, -9.07 30.71, -2.13 36.65 C4.82 42.59, 24.55 35.8, 41.68 35.63 C58.81 35.47, 71.57 28.94, 100.65 35.63 C129.73 42.32, 194.34 56.37, 216.17 75.78 C238.01 95.19, 221.3 142.54, 231.65 152.1 C242 161.66, 271.8 151.98, 278.29 133.14 C284.78 114.31, 278.36 55.26, 270.59 39.1 C262.82 22.95, 242.41 41.51, 231.67 36.22 C220.93 30.92, 223.49 11.87, 206.13 7.34 C188.77 2.8, 144.5 12.03, 127.53 9.02 C110.55 6.01, 117.54 -9.94, 104.29 -10.74 C91.04 -11.54, 65.43 2.43, 48.05 4.22 C30.66 6.01, 8.01 0.7, 0 0" stroke="none" stroke-width="0" fill="#000000" fill-rule="evenodd"></path><path d="M0 0 C-0.35 6.11, -9.07 30.71, -2.13 36.65 C4.82 42.59, 24.55 35.8, 41.68 35.63 C58.81 35.47, 71.57 28.94, 100.65 35.63 C129.73 42.32, 194.34 56.37, 216.17 75.78 C238.01 95.19, 221.3 142.54, 231.65 152.1 C242 161.66, 271.8 151.98, 278.29 133.14 C284.78 114.31, 278.36 55.26, 270.59 39.1 C262.82 22.95, 242.41 41.51, 231.67 36.22 C220.93 30.92, 223.49 11.87, 206.13 7.34 C188.77 2.8, 144.5 12.03, 127.53 9.02 C110.55 6.01, 117.54 -9.94, 104.29 -10.74 C91.04 -11.54, 65.43 2.43, 48.05 4.22 C30.66 6.01, 8.01 0.7, 0 0 M0 0 C-0.35 6.11, -9.07 30.71, -2.13 36.65 C4.82 42.59, 24.55 35.8, 41.68 35.63 C58.81 35.47, 71.57 28.94, 100.65 35.63 C129.73 42.32, 194.34 56.37, 216.17 75.78 C238.01 95.19, 221.3 142.54, 231.65 152.1 C242 161.66, 271.8 151.98, 278.29 133.14 C284.78 114.31, 278.36 55.26, 270.59 39.1 C262.82 22.95, 242.41 41.51, 231.67 36.22 C220.93 30.92, 223.49 11.87, 206.13 7.34 C188.77 2.8, 144.5 12.03, 127.53 9.02 C110.55 6.01, 117.54 -9.94, 104.29 -10.74 C91.04 -11.54, 65.43 2.43, 48.05 4.22 C30.66 6.01, 8.01 0.7, 0 0" stroke="00000" stroke-width="4" fill="none"></path></g></g><mask></mask><g stroke-linecap="round"><g transform="translate(1064.9053843911004 361.9305584379258) rotate(0 -157.64409070225327 55.268283559714746)" fill-rule="evenodd"><path d="M0 0 C-14.68 -5.24, -67.77 -26.31, -88.1 -31.42 C-108.42 -36.53, -117.39 -37.88, -121.97 -30.67 C-126.55 -23.46, -107.61 4.83, -115.58 11.86 C-123.56 18.9, -154.42 11.74, -169.83 11.52 C-185.24 11.3, -205.18 3.95, -208.03 10.55 C-210.87 17.14, -183.81 41.81, -186.91 51.09 C-190 60.37, -211.66 62.92, -226.6 66.24 C-241.55 69.55, -261.81 67.34, -276.59 70.97 C-291.37 74.59, -310.82 79.22, -315.29 87.97 C-319.75 96.73, -318.03 114.48, -303.39 123.48 C-288.75 132.48, -247.32 144.86, -227.47 141.95 C-207.62 139.05, -202.72 112.58, -184.29 106.05 C-165.86 99.51, -130.47 110.46, -116.91 102.75 C-103.36 95.05, -120.13 65.55, -102.97 59.81 C-85.81 54.06, -31.12 78.23, -13.96 68.26 C3.21 58.29, -2.33 11.38, 0 0" stroke="none" stroke-width="0" fill="#000000" fill-rule="evenodd"></path><path d="M0 0 C-14.68 -5.24, -67.77 -26.31, -88.1 -31.42 C-108.42 -36.53, -117.39 -37.88, -121.97 -30.67 C-126.55 -23.46, -107.61 4.83, -115.58 11.86 C-123.56 18.9, -154.42 11.74, -169.83 11.52 C-185.24 11.3, -205.18 3.95, -208.03 10.55 C-210.87 17.14, -183.81 41.81, -186.91 51.09 C-190 60.37, -211.66 62.92, -226.6 66.24 C-241.55 69.55, -261.81 67.34, -276.59 70.97 C-291.37 74.59, -310.82 79.22, -315.29 87.97 C-319.75 96.73, -318.03 114.48, -303.39 123.48 C-288.75 132.48, -247.32 144.86, -227.47 141.95 C-207.62 139.05, -202.72 112.58, -184.29 106.05 C-165.86 99.51, -130.47 110.46, -116.91 102.75 C-103.36 95.05, -120.13 65.55, -102.97 59.81 C-85.81 54.06, -31.12 78.23, -13.96 68.26 C3.21 58.29, -2.33 11.38, 0 0 M0 0 C-14.68 -5.24, -67.77 -26.31, -88.1 -31.42 C-108.42 -36.53, -117.39 -37.88, -121.97 -30.67 C-126.55 -23.46, -107.61 4.83, -115.58 11.86 C-123.56 18.9, -154.42 11.74, -169.83 11.52 C-185.24 11.3, -205.18 3.95, -208.03 10.55 C-210.87 17.14, -183.81 41.81, -186.91 51.09 C-190 60.37, -211.66 62.92, -226.6 66.24 C-241.55 69.55, -261.81 67.34, -276.59 70.97 C-291.37 74.59, -310.82 79.22, -315.29 87.97 C-319.75 96.73, -318.03 114.48, -303.39 123.48 C-288.75 132.48, -247.32 144.86, -227.47 141.95 C-207.62 139.05, -202.72 112.58, -184.29 106.05 C-165.86 99.51, -130.47 110.46, -116.91 102.75 C-103.36 95.05, -120.13 65.55, -102.97 59.81 C-85.81 54.06, -31.12 78.23, -13.96 68.26 C3.21 58.29, -2.33 11.38, 0 0" stroke="00000" stroke-width="4" fill="none"></path></g></g><mask></mask><g stroke-linecap="round"><g transform="translate(854.5569455450363 598.7201503709825) rotate(0 60.55932310755168 -37.88195223550906)" fill-rule="evenodd"><path d="M0 0 C0.32 -9.92, -2.08 -43.3, 1.94 -59.5 C5.96 -75.71, 6.19 -92.26, 24.11 -97.22 C42.03 -102.17, 93.28 -101.84, 109.45 -89.24 C125.62 -76.65, 124.32 -40.07, 121.12 -21.63 C117.91 -3.18, 105.74 14.74, 90.21 21.45 C74.68 28.16, 42.97 22.22, 27.93 18.65 C12.9 15.07, 4.66 3.11, 0 0" stroke="none" stroke-width="0" fill="#000000" fill-rule="evenodd"></path><path d="M0 0 C0.32 -9.92, -2.08 -43.3, 1.94 -59.5 C5.96 -75.71, 6.19 -92.26, 24.11 -97.22 C42.03 -102.17, 93.28 -101.84, 109.45 -89.24 C125.62 -76.65, 124.32 -40.07, 121.12 -21.63 C117.91 -3.18, 105.74 14.74, 90.21 21.45 C74.68 28.16, 42.97 22.22, 27.93 18.65 C12.9 15.07, 4.66 3.11, 0 0 M0 0 C0.32 -9.92, -2.08 -43.3, 1.94 -59.5 C5.96 -75.71, 6.19 -92.26, 24.11 -97.22 C42.03 -102.17, 93.28 -101.84, 109.45 -89.24 C125.62 -76.65, 124.32 -40.07, 121.12 -21.63 C117.91 -3.18, 105.74 14.74, 90.21 21.45 C74.68 28.16, 42.97 22.22, 27.93 18.65 C12.9 15.07, 4.66 3.11, 0 0" stroke="00000" stroke-width="4" fill="none"></path></g></g><mask></mask><g stroke-linecap="round"><g transform="translate(1071.4934279090767 211.86105542616906) rotate(0 102.16005714758592 52.98637479834542)" fill-rule="evenodd"><path d="M0 0 C-0.51 11.69, -9.98 57.79, -3.08 70.11 C3.82 82.44, 32.31 63.63, 41.39 73.95 C50.47 84.27, 37.31 124.7, 51.42 132.04 C65.53 139.38, 109.29 128.07, 126.04 118.01 C142.8 107.95, 138.4 83.65, 151.96 71.69 C165.52 59.73, 200.05 60, 207.4 46.25 C214.75 32.5, 209.11 -2.96, 196.04 -10.84 C182.96 -18.71, 144.95 1.52, 128.95 -1.02 C112.94 -3.56, 113.43 -26.95, 99.99 -26.07 C86.56 -25.19, 64.99 -0.1, 48.32 4.25 C31.66 8.59, 8.05 0.71, 0 0" stroke="none" stroke-width="0" fill="#000000" fill-rule="evenodd"></path><path d="M0 0 C-0.51 11.69, -9.98 57.79, -3.08 70.11 C3.82 82.44, 32.31 63.63, 41.39 73.95 C50.47 84.27, 37.31 124.7, 51.42 132.04 C65.53 139.38, 109.29 128.07, 126.04 118.01 C142.8 107.95, 138.4 83.65, 151.96 71.69 C165.52 59.73, 200.05 60, 207.4 46.25 C214.75 32.5, 209.11 -2.96, 196.04 -10.84 C182.96 -18.71, 144.95 1.52, 128.95 -1.02 C112.94 -3.56, 113.43 -26.95, 99.99 -26.07 C86.56 -25.19, 64.99 -0.1, 48.32 4.25 C31.66 8.59, 8.05 0.71, 0 0 M0 0 C-0.51 11.69, -9.98 57.79, -3.08 70.11 C3.82 82.44, 32.31 63.63, 41.39 73.95 C50.47 84.27, 37.31 124.7, 51.42 132.04 C65.53 139.38, 109.29 128.07, 126.04 118.01 C142.8 107.95, 138.4 83.65, 151.96 71.69 C165.52 59.73, 200.05 60, 207.4 46.25 C214.75 32.5, 209.11 -2.96, 196.04 -10.84 C182.96 -18.71, 144.95 1.52, 128.95 -1.02 C112.94 -3.56, 113.43 -26.95, 99.99 -26.07 C86.56 -25.19, 64.99 -0.1, 48.32 4.25 C31.66 8.59, 8.05 0.71, 0 0" stroke="00000" stroke-width="4" fill="none"></path></g></g><mask></mask><g stroke-linecap="round"><g transform="translate(1052.1831235446753 62.10134797473029) rotate(0 122.60492698580651 56.601915666938794)" fill-rule="evenodd"><path d="M0 0 C-0.19 14.76, -9.59 69.71, -1.16 88.58 C7.28 107.45, 32.25 114.4, 50.6 113.2 C68.95 112.01, 89.96 82.55, 108.93 81.39 C127.91 80.24, 142 104.07, 164.47 106.28 C186.93 108.49, 230.08 106.75, 243.73 94.65 C257.38 82.54, 255.36 41.91, 246.37 33.63 C237.38 25.36, 209.37 46.26, 189.77 45 C170.18 43.74, 147.36 24.69, 128.8 26.08 C110.25 27.46, 91.1 57.14, 78.43 53.33 C65.76 49.52, 65.87 12.11, 52.8 3.23 C39.72 -5.66, 8.8 0.54, 0 0" stroke="none" stroke-width="0" fill="#000000" fill-rule="evenodd"></path><path d="M0 0 C-0.19 14.76, -9.59 69.71, -1.16 88.58 C7.28 107.45, 32.25 114.4, 50.6 113.2 C68.95 112.01, 89.96 82.55, 108.93 81.39 C127.91 80.24, 142 104.07, 164.47 106.28 C186.93 108.49, 230.08 106.75, 243.73 94.65 C257.38 82.54, 255.36 41.91, 246.37 33.63 C237.38 25.36, 209.37 46.26, 189.77 45 C170.18 43.74, 147.36 24.69, 128.8 26.08 C110.25 27.46, 91.1 57.14, 78.43 53.33 C65.76 49.52, 65.87 12.11, 52.8 3.23 C39.72 -5.66, 8.8 0.54, 0 0 M0 0 C-0.19 14.76, -9.59 69.71, -1.16 88.58 C7.28 107.45, 32.25 114.4, 50.6 113.2 C68.95 112.01, 89.96 82.55, 108.93 81.39 C127.91 80.24, 142 104.07, 164.47 106.28 C186.93 108.49, 230.08 106.75, 243.73 94.65 C257.38 82.54, 255.36 41.91, 246.37 33.63 C237.38 25.36, 209.37 46.26, 189.77 45 C170.18 43.74, 147.36 24.69, 128.8 26.08 C110.25 27.46, 91.1 57.14, 78.43 53.33 C65.76 49.52, 65.87 12.11, 52.8 3.23 C39.72 -5.66, 8.8 0.54, 0 0" stroke="00000" stroke-width="4" fill="none"></path></g></g><mask></mask><g stroke-linecap="round"><g transform="translate(1269.9591843593416 302.6840465243672) rotate(0 -53.071190980345364 73.52733164530514)" fill-rule="evenodd"><path d="M0 0 C-2.77 11.17, -3.66 53.17, -16.65 67.03 C-29.64 80.89, -55.91 80.07, -77.93 83.15 C-99.95 86.24, -135.84 76.22, -148.76 85.54 C-161.67 94.86, -168.85 128.82, -155.42 139.07 C-141.99 149.32, -99.56 150.1, -68.17 147.05 C-36.79 144.01, 13.33 142.65, 32.9 120.79 C52.48 98.93, 54.76 36.01, 49.28 15.88 C43.79 -4.25, 8.21 2.65, 0 0" stroke="none" stroke-width="0" fill="#000000" fill-rule="evenodd"></path><path d="M0 0 C-2.77 11.17, -3.66 53.17, -16.65 67.03 C-29.64 80.89, -55.91 80.07, -77.93 83.15 C-99.95 86.24, -135.84 76.22, -148.76 85.54 C-161.67 94.86, -168.85 128.82, -155.42 139.07 C-141.99 149.32, -99.56 150.1, -68.17 147.05 C-36.79 144.01, 13.33 142.65, 32.9 120.79 C52.48 98.93, 54.76 36.01, 49.28 15.88 C43.79 -4.25, 8.21 2.65, 0 0 M0 0 C-2.77 11.17, -3.66 53.17, -16.65 67.03 C-29.64 80.89, -55.91 80.07, -77.93 83.15 C-99.95 86.24, -135.84 76.22, -148.76 85.54 C-161.67 94.86, -168.85 128.82, -155.42 139.07 C-141.99 149.32, -99.56 150.1, -68.17 147.05 C-36.79 144.01, 13.33 142.65, 32.9 120.79 C52.48 98.93, 54.76 36.01, 49.28 15.88 C43.79 -4.25, 8.21 2.65, 0 0" stroke="00000" stroke-width="4" fill="none"></path></g></g><mask></mask><g stroke-linecap="round"><g transform="translate(1007.4736801063766 478.48169302109636) rotate(0 -44.15350635612708 119.13528291558168)" fill-rule="evenodd"><path d="M0 0 C-0.21 14.8, 4.66 62.96, -1.24 88.81 C-7.14 114.65, -17.35 139.64, -35.38 155.09 C-53.41 170.54, -88.75 181.17, -109.43 181.51 C-130.1 181.85, -150.37 150.89, -159.45 157.15 C-168.53 163.41, -177.73 208.74, -163.9 219.06 C-150.07 229.39, -99.83 215.91, -76.47 219.11 C-53.11 222.31, -38.67 240.6, -23.74 238.27 C-8.81 235.94, -1.22 213.95, 13.11 205.15 C27.44 196.36, 54.56 199.69, 62.24 185.51 C69.93 171.34, 61.13 140.54, 59.22 120.12 C57.31 99.7, 48.05 78.65, 50.78 62.99 C53.51 47.33, 84.06 36.66, 75.59 26.16 C67.13 15.66, 12.6 4.36, 0 0" stroke="none" stroke-width="0" fill="#000000" fill-rule="evenodd"></path><path d="M0 0 C-0.21 14.8, 4.66 62.96, -1.24 88.81 C-7.14 114.65, -17.35 139.64, -35.38 155.09 C-53.41 170.54, -88.75 181.17, -109.43 181.51 C-130.1 181.85, -150.37 150.89, -159.45 157.15 C-168.53 163.41, -177.73 208.74, -163.9 219.06 C-150.07 229.39, -99.83 215.91, -76.47 219.11 C-53.11 222.31, -38.67 240.6, -23.74 238.27 C-8.81 235.94, -1.22 213.95, 13.11 205.15 C27.44 196.36, 54.56 199.69, 62.24 185.51 C69.93 171.34, 61.13 140.54, 59.22 120.12 C57.31 99.7, 48.05 78.65, 50.78 62.99 C53.51 47.33, 84.06 36.66, 75.59 26.16 C67.13 15.66, 12.6 4.36, 0 0 M0 0 C-0.21 14.8, 4.66 62.96, -1.24 88.81 C-7.14 114.65, -17.35 139.64, -35.38 155.09 C-53.41 170.54, -88.75 181.17, -109.43 181.51 C-130.1 181.85, -150.37 150.89, -159.45 157.15 C-168.53 163.41, -177.73 208.74, -163.9 219.06 C-150.07 229.39, -99.83 215.91, -76.47 219.11 C-53.11 222.31, -38.67 240.6, -23.74 238.27 C-8.81 235.94, -1.22 213.95, 13.11 205.15 C27.44 196.36, 54.56 199.69, 62.24 185.51 C69.93 171.34, 61.13 140.54, 59.22 120.12 C57.31 99.7, 48.05 78.65, 50.78 62.99 C53.51 47.33, 84.06 36.66, 75.59 26.16 C67.13 15.66, 12.6 4.36, 0 0" stroke="00000" stroke-width="4" fill="none"></path></g></g><mask></mask><g stroke-linecap="round"><g transform="translate(1147.9707046143108 487.45820828105116) rotate(0 61.028276836729844 62.2084597097728)" fill-rule="evenodd"><path d="M0 0 C-5.91 6.31, -26.57 26.34, -35.44 37.84 C-44.32 49.35, -56.23 50.32, -53.26 69.03 C-50.3 87.75, -35.11 137.79, -17.64 150.12 C-0.17 162.45, 35.88 150.68, 51.56 143.02 C67.25 135.36, 74.67 120.32, 76.48 104.14 C78.28 87.96, 52.11 58.59, 62.39 45.94 C72.68 33.29, 119.38 40.19, 138.21 28.24 C157.03 16.3, 179.06 -17.59, 175.32 -25.71 C171.58 -33.82, 133.81 -25.09, 115.76 -20.43 C97.72 -15.78, 86.35 -1.18, 67.05 2.22 C47.76 5.63, 11.18 0.37, 0 0" stroke="none" stroke-width="0" fill="#000000" fill-rule="evenodd"></path><path d="M0 0 C-5.91 6.31, -26.57 26.34, -35.44 37.84 C-44.32 49.35, -56.23 50.32, -53.26 69.03 C-50.3 87.75, -35.11 137.79, -17.64 150.12 C-0.17 162.45, 35.88 150.68, 51.56 143.02 C67.25 135.36, 74.67 120.32, 76.48 104.14 C78.28 87.96, 52.11 58.59, 62.39 45.94 C72.68 33.29, 119.38 40.19, 138.21 28.24 C157.03 16.3, 179.06 -17.59, 175.32 -25.71 C171.58 -33.82, 133.81 -25.09, 115.76 -20.43 C97.72 -15.78, 86.35 -1.18, 67.05 2.22 C47.76 5.63, 11.18 0.37, 0 0 M0 0 C-5.91 6.31, -26.57 26.34, -35.44 37.84 C-44.32 49.35, -56.23 50.32, -53.26 69.03 C-50.3 87.75, -35.11 137.79, -17.64 150.12 C-0.17 162.45, 35.88 150.68, 51.56 143.02 C67.25 135.36, 74.67 120.32, 76.48 104.14 C78.28 87.96, 52.11 58.59, 62.39 45.94 C72.68 33.29, 119.38 40.19, 138.21 28.24 C157.03 16.3, 179.06 -17.59, 175.32 -25.71 C171.58 -33.82, 133.81 -25.09, 115.76 -20.43 C97.72 -15.78, 86.35 -1.18, 67.05 2.22 C47.76 5.63, 11.18 0.37, 0 0" stroke="00000" stroke-width="4" fill="none"></path></g></g><mask></mask><g stroke-linecap="round"><g transform="translate(239.05517599816676 718.4448004500964) rotate(0 59.58359680006663 50.79891590292755)" fill-rule="evenodd"><path d="M0 0 C-5.74 3.99, -23.87 11.78, -34.45 23.93 C-45.03 36.08, -64.36 61.89, -63.48 72.91 C-62.59 83.93, -39.38 92.17, -29.14 90.05 C-18.89 87.94, -13.84 60.64, -1.98 60.21 C9.88 59.77, 20.6 80.56, 42.04 87.46 C63.47 94.36, 103.19 100.89, 126.63 101.6 C150.06 102.3, 181.18 99.03, 182.64 91.7 C184.1 84.37, 142.38 68.88, 135.4 57.59 C128.42 46.3, 150.45 29.9, 140.78 23.97 C131.12 18.03, 100.89 25.97, 77.43 21.97 C53.97 17.98, 12.91 3.66, 0 0" stroke="none" stroke-width="0" fill="#000000" fill-rule="evenodd"></path><path d="M0 0 C-5.74 3.99, -23.87 11.78, -34.45 23.93 C-45.03 36.08, -64.36 61.89, -63.48 72.91 C-62.59 83.93, -39.38 92.17, -29.14 90.05 C-18.89 87.94, -13.84 60.64, -1.98 60.21 C9.88 59.77, 20.6 80.56, 42.04 87.46 C63.47 94.36, 103.19 100.89, 126.63 101.6 C150.06 102.3, 181.18 99.03, 182.64 91.7 C184.1 84.37, 142.38 68.88, 135.4 57.59 C128.42 46.3, 150.45 29.9, 140.78 23.97 C131.12 18.03, 100.89 25.97, 77.43 21.97 C53.97 17.98, 12.91 3.66, 0 0 M0 0 C-5.74 3.99, -23.87 11.78, -34.45 23.93 C-45.03 36.08, -64.36 61.89, -63.48 72.91 C-62.59 83.93, -39.38 92.17, -29.14 90.05 C-18.89 87.94, -13.84 60.64, -1.98 60.21 C9.88 59.77, 20.6 80.56, 42.04 87.46 C63.47 94.36, 103.19 100.89, 126.63 101.6 C150.06 102.3, 181.18 99.03, 182.64 91.7 C184.1 84.37, 142.38 68.88, 135.4 57.59 C128.42 46.3, 150.45 29.9, 140.78 23.97 C131.12 18.03, 100.89 25.97, 77.43 21.97 C53.97 17.98, 12.91 3.66, 0 0" stroke="00000" stroke-width="4" fill="none"></path></g></g><mask></mask><g stroke-linecap="round"><g transform="translate(962.7869279775543 744.5582993881476) rotate(0 -160.01155065762237 36.31786245536523)" fill-rule="evenodd"><path d="M0 0 C-15.47 -0.7, -65.77 -2.05, -92.83 -4.19 C-119.89 -6.32, -141.85 -15.62, -162.36 -12.81 C-182.88 -10.01, -189.96 3.86, -215.94 12.62 C-241.92 21.38, -295.68 29.92, -318.25 39.75 C-340.82 49.59, -355.7 64.01, -351.37 71.63 C-347.03 79.25, -318.33 87.93, -292.24 85.45 C-266.16 82.97, -227.33 63.98, -194.85 56.76 C-162.37 49.54, -128.38 44.56, -97.38 42.12 C-66.37 39.69, -30.25 46.48, -8.8 42.12 C12.66 37.77, 29.88 23.04, 31.34 16.02 C32.81 9, 5.22 2.67, 0 0" stroke="none" stroke-width="0" fill="#000000" fill-rule="evenodd"></path><path d="M0 0 C-15.47 -0.7, -65.77 -2.05, -92.83 -4.19 C-119.89 -6.32, -141.85 -15.62, -162.36 -12.81 C-182.88 -10.01, -189.96 3.86, -215.94 12.62 C-241.92 21.38, -295.68 29.92, -318.25 39.75 C-340.82 49.59, -355.7 64.01, -351.37 71.63 C-347.03 79.25, -318.33 87.93, -292.24 85.45 C-266.16 82.97, -227.33 63.98, -194.85 56.76 C-162.37 49.54, -128.38 44.56, -97.38 42.12 C-66.37 39.69, -30.25 46.48, -8.8 42.12 C12.66 37.77, 29.88 23.04, 31.34 16.02 C32.81 9, 5.22 2.67, 0 0 M0 0 C-15.47 -0.7, -65.77 -2.05, -92.83 -4.19 C-119.89 -6.32, -141.85 -15.62, -162.36 -12.81 C-182.88 -10.01, -189.96 3.86, -215.94 12.62 C-241.92 21.38, -295.68 29.92, -318.25 39.75 C-340.82 49.59, -355.7 64.01, -351.37 71.63 C-347.03 79.25, -318.33 87.93, -292.24 85.45 C-266.16 82.97, -227.33 63.98, -194.85 56.76 C-162.37 49.54, -128.38 44.56, -97.38 42.12 C-66.37 39.69, -30.25 46.48, -8.8 42.12 C12.66 37.77, 29.88 23.04, 31.34 16.02 C32.81 9, 5.22 2.67, 0 0" stroke="00000" stroke-width="4" fill="none"></path></g></g><mask></mask><g stroke-linecap="round"><g transform="translate(1039.801232340396 750.0363916132887) rotate(0 26.37108349646917 20.159379388518346)" fill-rule="evenodd"><path d="M0 0 C-2.03 8.73, -18.34 44.39, -12.19 52.37 C-6.03 60.35, 29.32 53.46, 36.94 47.9 C44.56 42.35, 28.87 26.58, 33.53 19.02 C38.19 11.46, 63.21 7.72, 64.93 2.54 C66.65 -2.64, 54.67 -11.63, 43.85 -12.05 C33.03 -12.47, 7.31 -2.01, 0 0" stroke="none" stroke-width="0" fill="#000000" fill-rule="evenodd"></path><path d="M0 0 C-2.03 8.73, -18.34 44.39, -12.19 52.37 C-6.03 60.35, 29.32 53.46, 36.94 47.9 C44.56 42.35, 28.87 26.58, 33.53 19.02 C38.19 11.46, 63.21 7.72, 64.93 2.54 C66.65 -2.64, 54.67 -11.63, 43.85 -12.05 C33.03 -12.47, 7.31 -2.01, 0 0 M0 0 C-2.03 8.73, -18.34 44.39, -12.19 52.37 C-6.03 60.35, 29.32 53.46, 36.94 47.9 C44.56 42.35, 28.87 26.58, 33.53 19.02 C38.19 11.46, 63.21 7.72, 64.93 2.54 C66.65 -2.64, 54.67 -11.63, 43.85 -12.05 C33.03 -12.47, 7.31 -2.01, 0 0" stroke="00000" stroke-width="4" fill="none"></path></g></g><mask></mask><g stroke-linecap="round"><g transform="translate(1181.9849775194073 684.6770843754002) rotate(0 30.103803905334132 49.68818547934711)" fill-rule="evenodd"><path d="M0 0 C-3.84 3.55, -21.21 9.15, -23.03 21.3 C-24.86 33.45, -7.41 63.04, -10.96 72.88 C-14.51 82.71, -34.21 76.42, -44.32 80.32 C-54.44 84.22, -75.13 87.39, -71.65 96.29 C-68.18 105.18, -44.95 127.65, -23.48 133.7 C-2 139.74, 31.32 134.75, 57.2 132.56 C83.09 130.37, 119.42 137.17, 131.86 120.57 C144.3 103.97, 141.16 49.45, 131.86 32.95 C122.56 16.46, 79.88 32.36, 76.07 21.61 C72.26 10.86, 110.85 -22.25, 109 -31.58 C107.15 -40.9, 75.47 -43.84, 64.96 -34.32 C54.45 -24.8, 56.77 19.8, 45.94 25.52 C35.12 31.24, 7.66 4.25, 0 0" stroke="none" stroke-width="0" fill="#000000" fill-rule="evenodd"></path><path d="M0 0 C-3.84 3.55, -21.21 9.15, -23.03 21.3 C-24.86 33.45, -7.41 63.04, -10.96 72.88 C-14.51 82.71, -34.21 76.42, -44.32 80.32 C-54.44 84.22, -75.13 87.39, -71.65 96.29 C-68.18 105.18, -44.95 127.65, -23.48 133.7 C-2 139.74, 31.32 134.75, 57.2 132.56 C83.09 130.37, 119.42 137.17, 131.86 120.57 C144.3 103.97, 141.16 49.45, 131.86 32.95 C122.56 16.46, 79.88 32.36, 76.07 21.61 C72.26 10.86, 110.85 -22.25, 109 -31.58 C107.15 -40.9, 75.47 -43.84, 64.96 -34.32 C54.45 -24.8, 56.77 19.8, 45.94 25.52 C35.12 31.24, 7.66 4.25, 0 0 M0 0 C-3.84 3.55, -21.21 9.15, -23.03 21.3 C-24.86 33.45, -7.41 63.04, -10.96 72.88 C-14.51 82.71, -34.21 76.42, -44.32 80.32 C-54.44 84.22, -75.13 87.39, -71.65 96.29 C-68.18 105.18, -44.95 127.65, -23.48 133.7 C-2 139.74, 31.32 134.75, 57.2 132.56 C83.09 130.37, 119.42 137.17, 131.86 120.57 C144.3 103.97, 141.16 49.45, 131.86 32.95 C122.56 16.46, 79.88 32.36, 76.07 21.61 C72.26 10.86, 110.85 -22.25, 109 -31.58 C107.15 -40.9, 75.47 -43.84, 64.96 -34.32 C54.45 -24.8, 56.77 19.8, 45.94 25.52 C35.12 31.24, 7.66 4.25, 0 0" stroke="00000" stroke-width="4" fill="none"></path></g></g><mask></mask><g stroke-linecap="round"><g transform="translate(1116.9895034092233 655.0802743810873) rotate(0 -6.629644252016362 34.19085147415535)" fill-rule="evenodd"><path d="M0 0 C-5.74 4.35, -30.82 15.32, -34.42 26.08 C-38.01 36.85, -29.56 57.55, -21.54 64.6 C-13.52 71.65, 6.59 73.33, 13.71 68.38 C20.82 63.43, 23.44 46.28, 21.16 34.89 C18.87 23.49, 3.53 5.81, 0 0" stroke="none" stroke-width="0" fill="#000000" fill-rule="evenodd"></path><path d="M0 0 C-5.74 4.35, -30.82 15.32, -34.42 26.08 C-38.01 36.85, -29.56 57.55, -21.54 64.6 C-13.52 71.65, 6.59 73.33, 13.71 68.38 C20.82 63.43, 23.44 46.28, 21.16 34.89 C18.87 23.49, 3.53 5.81, 0 0 M0 0 C-5.74 4.35, -30.82 15.32, -34.42 26.08 C-38.01 36.85, -29.56 57.55, -21.54 64.6 C-13.52 71.65, 6.59 73.33, 13.71 68.38 C20.82 63.43, 23.44 46.28, 21.16 34.89 C18.87 23.49, 3.53 5.81, 0 0" stroke="00000" stroke-width="4" fill="none"></path></g></g><mask></mask></svg>