<?xml version="1.0" encoding="utf-8"?>
<!-- Generator: Adobe Illustrator 27.9.0, SVG Export Plug-In . SVG Version: 6.00 Build 0)  -->
<svg version="1.1" xmlns="http://www.w3.org/2000/svg" xmlns:xlink="http://www.w3.org/1999/xlink" x="0px" y="0px"
	 viewBox="0 0 595.3 841.9" style="enable-background:new 0 0 595.3 841.9;" xml:space="preserve">
<style type="text/css">
	.st0{display:none;fill:#414042;}
	.st1{font-family:'Afacad-Regular';}
	.st2{font-size:120px;}
	.st3{display:none;}
	.st4{display:inline;}
	.st5{fill:#6D6E71;}
	.st6{fill:#F4BA41;}
	.st7{display:inline;fill:#282829;}
	.st8{display:inline;fill:#F4BA41;}
	.st9{display:inline;fill:#FFFFFF;}
	.st10{fill:#FFFFFF;}
	.st11{display:inline;fill-rule:evenodd;clip-rule:evenodd;fill:#FDDE16;}
	.st12{fill:#414042;}
	.st13{display:none;fill:#58595B;}
	.st14{font-size:30px;}
</style>
<g id="Text">
	<text transform="matrix(1 0 0 1 191.2246 185.417)" class="st0 st1 st2">FabLab</text>
</g>
<g id="Logo_Graphic" class="st3">
	<g id="xSwiN3.tif_00000090981721489902480650000003081970196060576185_" class="st4">
		<g>
			<path class="st5" d="M155.5,131.6c-1-2-1.8-3.9-2.7-5.6c-0.9-1.7-0.8-3.1,0.3-4.6c2.1-2.9,4.1-5.9,6.2-8.7
				c0.7-0.9,0.8-1.6-0.1-2.5c-2.4-2.3-4.8-4.6-7-7c-0.9-0.9-1.4-0.3-2.1,0.1c-2.9,2-5.8,4.1-8.8,6.1c-2.2,1.5-4,1.4-5.3-0.3
				c-1.2-1.7-0.7-3.6,1.4-5.1c4-2.9,8-5.6,12-8.5c1.8-1.3,3.6-1.3,5.1,0.6c3,3.8,7.1,6.3,9.8,10.3c0.1,0.1,0.2,0.2,0.3,0.4
				c3.9,3.9,3.9,3.9,1,8.4c-0.6,1-1.2,1.9-1.9,2.9c-1.4,2.1-3.6,4-3.9,6.2c-0.2,2.1,1.7,4.4,2.5,6.6c0.4,1,0.9,1.4,1.9,1.5
				c3.8,0.6,7.5,1.3,11.3,2c2.7,0.5,3.5,1.4,3.5,4.2c0,5.6,0,11.1,0,16.7c0,3-0.7,3.7-3.7,4.3c-3.5,0.6-7,1.3-10.5,1.8
				c-1.5,0.2-2.4,0.8-2.7,2.3c0,0.2-0.1,0.5-0.2,0.7c-2.7,3.9-2,7.4,1.2,10.6c1.8,1.8,2.5,4.4,4.3,6.4c1.2,1.3,0.7,2.8-0.4,4
				c-4.2,4.3-8.5,8.5-12.8,12.8c-1.5,1.5-3.1,1.4-4.7,0.2c-3-2.2-6.1-4.2-9.2-6.5c-1.2-0.9-2.2-1.3-3.5-0.3
				c-0.1,0.1-0.3,0.2-0.5,0.2c-5.1,0.8-6.9,4.2-7.1,9c-0.1,2.1-0.7,4.2-1.1,6.4c-0.3,2-1.5,3.2-3.5,3.2c-6,0.1-12,0-17.9,0
				c-2.2,0-3.3-1.3-3.6-3.4c-0.6-3.8-1.3-7.5-2-11.3c-0.2-1.1-0.4-1.8-1.7-2c-0.9-0.2-1.9-0.6-2.7-1.2c-2.8-1.9-5.2-1.4-7.7,0.8
				c-2.2,1.9-4.7,3.4-7.1,5.1c-1.9,1.4-3.5,1.1-5.1-0.4c-4.1-4-8.1-8.1-12.2-12.1c-1.7-1.7-1.7-3.4-0.3-5.3c2.2-3,4.3-6.1,6.5-9.1
				c0.8-1.1,0.9-2,0.3-3.1c-0.7-1.3-1.4-2.7-1.7-4.1c-0.5-2.5-2.4-3-4.3-3.1c-3.3-0.2-6.4-1-9.6-1.5c-2.3-0.3-3.3-1.7-3.2-3.9
				c0-5.2,0.2-10.3,0-15.5c-0.2-5.8,2-5.3,6.1-6.1c3.2-0.6,6.4-1.1,9.6-1.7c0.6-0.1,0.8-0.5,1-1c0.9-2.2,1.8-4.3,2.7-6.4
				c0.7-1.8-1-2.8-1.7-4.1c-1.6-2.6-3.6-5-5.4-7.4c-1.4-1.9-1.3-3.6,0.5-5.3c4-4,8-8,12-12c1.5-1.5,3.1-2,4.9-0.7
				c4.2,2.9,8.4,5.8,12.5,8.9c2.1,1.5,2.3,3.3,0.9,5c-1.4,1.7-3.5,2-5.4,0.2c-2.5-2.4-5.7-3.9-8.3-6.2c-1-0.8-1.6-0.7-2.5,0.2
				c-2.2,2.3-4.4,4.5-6.7,6.7c-0.9,0.9-1,1.5-0.2,2.5c2.1,2.8,4,5.7,6.1,8.5c1.4,2,1.5,3.8-0.2,5.6c-0.4,0.4-0.6,1-1,1.4
				c-0.8,1-1,2.3-0.7,3.2c0.3,1,1.7,0.4,2.7,0.5c7.1,0,14.3,0,21.4,0c1.8,0,3.5-0.1,4.5,1.9c0.9,1.9-0.2,3.1-1.1,4.5
				c-4.3,6.1-3.8,13.9,1.3,19.2c5.1,5.3,13,6.1,19.1,2c7.9-5.2,8.2-15.6,3.5-21.5c-1.1-1.4-1.6-2.7-0.8-4.3c0.8-1.6,2.3-1.7,3.8-1.7
				c8.1,0,16.1,0,24.2,0C154.8,131.7,154.9,131.7,155.5,131.6z M95.5,138.4c-12,0.3-23.8-0.9-35.4,1.9c-1.2,0.3-1.4,0.8-1.4,1.9
				c0,3.1,0.1,6.2,0,9.2c-0.1,1.6,0.6,2,1.9,2.2c3.2,0.5,6.4,1.2,9.6,1.6c2.4,0.3,3.8,1.4,4.5,3.9c0.9,3,2.1,5.9,3.4,8.8
				c0.8,1.7,0.6,3-0.3,4.5c-1.7,3-3.9,5.6-5.9,8.4c-0.8,1.2-0.8,2.1,0.4,3.1c2.2,2,4.3,4.2,6.3,6.3c0.9,1,1.7,1,2.7,0.2
				c2.7-2,5.6-3.9,8.3-5.9c1.7-1.2,3.2-1.5,5-0.4c2.9,1.7,6,2.9,9.2,3.8c1.9,0.5,2.9,1.7,3.2,3.6c0.5,3.5,1.3,7,1.8,10.5
				c0.2,1.1,0.5,1.6,1.7,1.5c3.2-0.1,6.5-0.1,9.7,0c1.2,0,1.6-0.4,1.8-1.5c0.5-3.4,1.3-6.8,1.8-10.3c0.3-2.3,1.4-3.6,3.6-4.1
				c3-0.7,5.8-1.9,8.5-3.5c2-1.1,3.7-1.1,5.5,0.3c2.7,2,5.2,4.2,8.2,5.8c1.4,0.8,2.1,0.7,3.1-0.4c1.9-2.1,3.9-4.1,6-6
				c1.3-1.1,1.3-2.1,0.4-3.3c-2-2.8-4-5.6-6.1-8.4c-1.1-1.5-1.3-3.1-0.2-4.6c2-2.7,2.8-5.9,3.7-9.1c0.6-2.2,1.9-3.1,4-3.4
				c3.4-0.5,6.7-1.1,10.1-1.7c0.9-0.2,1.8-0.2,1.7-1.6c-0.1-3.4,0-6.8,0-10.2c0-0.8-0.2-1.2-1.1-1.3c-4.1-0.6-8.2-1.7-12.3-1.9
				c-7.1-0.3-14.3,0-21.4-0.1c-1.8,0-1.9,0.6-1.4,2c1.1,3.1,1.2,6.3,0.8,9.6c-1.2,10.4-10.9,18.9-21.6,18.6
				c-12.8-0.4-20-9.2-21.4-19.7C93.6,145.3,94.3,141.9,95.5,138.4z"/>
			<path class="st6" d="M112.1,106.5c0-1.4,0-2.2,0-3c0-12.1,0-24.3,0-36.4c0-1.6-0.3-2.7-1.9-3.6c-3.6-2-5.2-6.8-4-10.9
				c1.2-4,5-7,9.3-7c4.3-0.1,7.9,2.6,9.3,6.9c1.3,4.2-0.2,8.7-3.9,10.8c-1.6,0.9-2,1.9-1.9,3.5c0.1,8.8,0,17.6,0,26.4
				c0,0.6-0.3,1.5,0.3,1.8c0.8,0.4,1.1-0.5,1.6-0.9c3.3-2.8,6.6-5.6,8.5-9.6c0.8-1.8,1.3-3.1-1.1-4.4c-3.5-1.9-4.9-7.1-3.6-11.3
				c1.3-3.9,5.2-6.5,9.4-6.4c4.3,0.1,7.9,2.9,9.1,7.2c1.1,3.9-0.5,8.5-4.2,10.6c-1.5,0.8-2.2,1.8-2.5,3.4c-1.1,5.1-4,9.1-7.7,12.5
				c-1.4,1.3-2.8,2.6-4.3,3.8c-4.1,3.5-6,7.9-5.7,13.4c0.3,6.8,0.1,13.6,0,20.4c0,1.7,0.5,2.7,1.9,3.6c5.9,3.6,7.3,10.3,3.5,15.9
				c-3.4,4.9-10.5,5.8-15.7,1.9c-5.8-4.3-5.1-14.1,1.4-17.7c1.5-0.8,2.1-1.7,2.1-3.5c-0.1-3.4-0.3-6.8,0-10.2
				c0.5-6.3-2.4-10.9-7.1-14.5c-4.6-3.5-8.3-7.6-9.9-13.2c-0.8-2.5-1.6-4.5-4-6.1c-3.8-2.6-4.5-7.5-2.5-11.7c1.8-3.8,6.7-6,11.3-4.9
				c3.6,0.8,7.1,5.1,7.1,9c0,3.5-1.2,6.6-4.4,8.4c-1.6,0.9-1.7,2-1.1,3.5c0.9,2.5,2.5,4.5,4.3,6.3
				C107.6,102.7,109.6,104.3,112.1,106.5z M119.5,146.9c0-2.3-1.7-4.1-4-4c-2.3,0-4,1.8-3.9,4.2c0,2.3,1.9,4.2,4.1,4.1
				C118,151,119.5,149.4,119.5,146.9z M118.5,55.5c-0.1-1.7-1.2-2.9-2.8-3c-1.7-0.1-3,1.1-3.1,2.9c-0.1,1.8,1,3.1,2.8,3.1
				C117.1,58.5,118.4,57.5,118.5,55.5z M136.9,72.3c-0.2-1.7-1.3-2.9-3-2.9c-1.8,0-2.9,1.1-2.9,3c0,1.8,1.1,2.9,2.8,2.9
				C135.5,75.3,136.7,74.3,136.9,72.3z M100.1,82.6c-0.3-1.5-1.2-2.7-3.1-2.6c-1.7,0.1-2.8,1.2-2.8,2.9c0.1,1.8,1.3,2.9,3,2.9
				C99.1,85.9,100.1,84.7,100.1,82.6z"/>
		</g>
	</g>
</g>
<g id="Black" class="st3">
	<rect x="0" y="480.6" class="st7" width="595.3" height="223.5"/>
</g>
<g id="Yellow" class="st3">
	<rect y="239.8" class="st8" width="595.3" height="223.5"/>
</g>
<g id="White" class="st3">
	<text transform="matrix(1 0 0 1 198.6375 399.0515)" class="st9 st1 st2">FabLab</text>
	<g id="xSwiN3.tif_00000117649363576791086290000011405158387282103456_" class="st4">
		<g>
			<path class="st10" d="M159.5,353c-1-2-1.8-3.9-2.7-5.6c-0.9-1.7-0.8-3.1,0.3-4.6c2.1-2.9,4.1-5.9,6.2-8.7
				c0.7-0.9,0.8-1.6-0.1-2.5c-2.4-2.3-4.8-4.6-7-7c-0.9-0.9-1.4-0.3-2.1,0.1c-2.9,2-5.8,4.1-8.8,6.1c-2.2,1.5-4,1.4-5.3-0.3
				c-1.2-1.7-0.7-3.6,1.4-5.1c4-2.9,8-5.6,12-8.5c1.8-1.3,3.6-1.3,5.1,0.6c3,3.8,7.1,6.3,9.8,10.3c0.1,0.1,0.2,0.2,0.3,0.4
				c3.9,3.9,3.9,3.9,1,8.4c-0.6,1-1.2,1.9-1.9,2.9c-1.4,2.1-3.6,4-3.9,6.2c-0.2,2.1,1.7,4.4,2.5,6.6c0.4,1,0.9,1.4,1.9,1.5
				c3.8,0.6,7.5,1.3,11.3,2c2.7,0.5,3.5,1.4,3.5,4.2c0,5.6,0,11.1,0,16.7c0,3-0.7,3.7-3.7,4.3c-3.5,0.6-7,1.3-10.5,1.8
				c-1.5,0.2-2.4,0.8-2.7,2.3c0,0.2-0.1,0.5-0.2,0.7c-2.7,3.9-2,7.4,1.2,10.6c1.8,1.8,2.5,4.4,4.3,6.4c1.2,1.3,0.7,2.8-0.4,4
				c-4.2,4.3-8.5,8.5-12.8,12.8c-1.5,1.5-3.1,1.4-4.7,0.2c-3-2.2-6.1-4.2-9.2-6.5c-1.2-0.9-2.2-1.3-3.5-0.3
				c-0.1,0.1-0.3,0.2-0.5,0.2c-5.1,0.8-6.9,4.2-7.1,9c-0.1,2.1-0.7,4.2-1.1,6.4c-0.3,2-1.5,3.2-3.5,3.2c-6,0.1-12,0-17.9,0
				c-2.2,0-3.3-1.3-3.6-3.4c-0.6-3.8-1.3-7.5-2-11.3c-0.2-1.1-0.4-1.8-1.7-2c-0.9-0.2-1.9-0.6-2.7-1.2c-2.8-1.9-5.2-1.4-7.7,0.8
				c-2.2,1.9-4.7,3.4-7.1,5.1c-1.9,1.4-3.5,1.1-5.1-0.4c-4.1-4-8.1-8.1-12.2-12.1c-1.7-1.7-1.7-3.4-0.3-5.3c2.2-3,4.3-6.1,6.5-9.1
				c0.8-1.1,0.9-2,0.3-3.1c-0.7-1.3-1.4-2.7-1.7-4.1c-0.5-2.5-2.4-3-4.3-3.1c-3.3-0.2-6.4-1-9.6-1.5c-2.3-0.3-3.3-1.7-3.2-3.9
				c0-5.2,0.2-10.3,0-15.5c-0.2-5.8,2-5.3,6.1-6.1c3.2-0.6,6.4-1.1,9.6-1.7c0.6-0.1,0.8-0.5,1-1c0.9-2.2,1.8-4.3,2.7-6.4
				c0.7-1.8-1-2.8-1.7-4.1c-1.6-2.6-3.6-5-5.4-7.4c-1.4-1.9-1.3-3.6,0.5-5.3c4-4,8-8,12-12c1.5-1.5,3.1-2,4.9-0.7
				c4.2,2.9,8.4,5.8,12.5,8.9c2.1,1.5,2.3,3.3,0.9,5c-1.4,1.7-3.5,2-5.4,0.2c-2.5-2.4-5.7-3.9-8.3-6.2c-1-0.8-1.6-0.7-2.5,0.2
				c-2.2,2.3-4.4,4.5-6.7,6.7c-0.9,0.9-1,1.5-0.2,2.5c2.1,2.8,4,5.7,6.1,8.5c1.4,2,1.5,3.8-0.2,5.6c-0.4,0.4-0.6,1-1,1.4
				c-0.8,1-1,2.3-0.7,3.2c0.3,1,1.7,0.4,2.7,0.5c7.1,0,14.3,0,21.4,0c1.8,0,3.5-0.1,4.5,1.9c0.9,1.9-0.2,3.1-1.1,4.5
				c-4.3,6.1-3.8,13.9,1.3,19.2c5.1,5.3,13,6.1,19.1,2c7.9-5.2,8.2-15.6,3.5-21.5c-1.1-1.4-1.6-2.7-0.8-4.3c0.8-1.6,2.3-1.7,3.8-1.7
				c8.1,0,16.1,0,24.2,0C158.8,353.1,158.9,353,159.5,353z M99.5,359.8c-12,0.3-23.8-0.9-35.4,1.9c-1.2,0.3-1.4,0.8-1.4,1.9
				c0,3.1,0.1,6.2,0,9.2c-0.1,1.6,0.6,2,1.9,2.2c3.2,0.5,6.4,1.2,9.6,1.6c2.4,0.3,3.8,1.4,4.5,3.9c0.9,3,2.1,5.9,3.4,8.8
				c0.8,1.7,0.6,3-0.3,4.5c-1.7,3-3.9,5.6-5.9,8.4c-0.8,1.2-0.8,2.1,0.4,3.1c2.2,2,4.3,4.2,6.3,6.3c0.9,1,1.7,1,2.7,0.2
				c2.7-2,5.6-3.9,8.3-5.9c1.7-1.2,3.2-1.5,5-0.4c2.9,1.7,6,2.9,9.2,3.8c1.9,0.5,2.9,1.7,3.2,3.6c0.5,3.5,1.3,7,1.8,10.5
				c0.2,1.1,0.5,1.6,1.7,1.5c3.2-0.1,6.5-0.1,9.7,0c1.2,0,1.6-0.4,1.8-1.5c0.5-3.4,1.3-6.8,1.8-10.3c0.3-2.3,1.4-3.6,3.6-4.1
				c3-0.7,5.8-1.9,8.5-3.5c2-1.1,3.7-1.1,5.5,0.3c2.7,2,5.2,4.2,8.2,5.8c1.4,0.8,2.1,0.7,3.1-0.4c1.9-2.1,3.9-4.1,6-6
				c1.3-1.1,1.3-2.1,0.4-3.3c-2-2.8-4-5.6-6.1-8.4c-1.1-1.5-1.3-3.1-0.2-4.6c2-2.7,2.8-5.9,3.7-9.1c0.6-2.2,1.9-3.1,4-3.4
				c3.4-0.5,6.7-1.1,10.1-1.7c0.9-0.2,1.8-0.2,1.7-1.6c-0.1-3.4,0-6.8,0-10.2c0-0.8-0.2-1.2-1.1-1.3c-4.1-0.6-8.2-1.7-12.3-1.9
				c-7.1-0.3-14.3,0-21.4-0.1c-1.8,0-1.9,0.6-1.4,2c1.1,3.1,1.2,6.3,0.8,9.6c-1.2,10.4-10.9,18.9-21.6,18.6
				c-12.8-0.4-20-9.2-21.4-19.7C97.6,366.7,98.3,363.3,99.5,359.8z"/>
			<path class="st10" d="M116.1,327.9c0-1.4,0-2.2,0-3c0-12.1,0-24.3,0-36.4c0-1.6-0.3-2.7-1.9-3.6c-3.6-2-5.2-6.8-4-10.9
				c1.2-4,5-7,9.3-7c4.3-0.1,7.9,2.6,9.3,6.9c1.3,4.2-0.2,8.7-3.9,10.8c-1.6,0.9-2,1.9-1.9,3.5c0.1,8.8,0,17.6,0,26.4
				c0,0.6-0.3,1.5,0.3,1.8c0.8,0.4,1.1-0.5,1.6-0.9c3.3-2.8,6.6-5.6,8.5-9.6c0.8-1.8,1.3-3.1-1.1-4.4c-3.5-1.9-4.9-7.1-3.6-11.3
				c1.3-3.9,5.2-6.5,9.4-6.4c4.3,0.1,7.9,2.9,9.1,7.2c1.1,3.9-0.5,8.5-4.2,10.6c-1.5,0.8-2.2,1.8-2.5,3.4c-1.1,5.1-4,9.1-7.7,12.5
				c-1.4,1.3-2.8,2.6-4.3,3.8c-4.1,3.5-6,7.9-5.7,13.4c0.3,6.8,0.1,13.6,0,20.4c0,1.7,0.5,2.7,1.9,3.6c5.9,3.6,7.3,10.3,3.5,15.9
				c-3.4,4.9-10.5,5.8-15.7,1.9c-5.8-4.3-5.1-14.1,1.4-17.7c1.5-0.8,2.1-1.7,2.1-3.5c-0.1-3.4-0.3-6.8,0-10.2
				c0.5-6.3-2.4-10.9-7.1-14.5c-4.6-3.5-8.3-7.6-9.9-13.2c-0.8-2.5-1.6-4.5-4-6.1c-3.8-2.6-4.5-7.5-2.5-11.7c1.8-3.8,6.7-6,11.3-4.9
				c3.6,0.8,7.1,5.1,7.1,9c0,3.5-1.2,6.6-4.4,8.4c-1.6,0.9-1.7,2-1.1,3.5c0.9,2.5,2.5,4.5,4.3,6.3
				C111.6,324,113.6,325.7,116.1,327.9z M123.5,368.2c0-2.3-1.7-4.1-4-4c-2.3,0-4,1.8-3.9,4.2c0,2.3,1.9,4.2,4.1,4.1
				C122,372.4,123.5,370.8,123.5,368.2z M122.5,276.8c-0.1-1.7-1.2-2.9-2.8-3c-1.7-0.1-3,1.1-3.1,2.9c-0.1,1.8,1,3.1,2.8,3.1
				C121.1,279.8,122.4,278.9,122.5,276.8z M140.9,293.6c-0.2-1.7-1.3-2.9-3-2.9c-1.8,0-2.9,1.1-2.9,3c0,1.8,1.1,2.9,2.8,2.9
				C139.5,296.6,140.7,295.7,140.9,293.6z M104.1,304c-0.3-1.5-1.2-2.7-3.1-2.6c-1.7,0.1-2.8,1.2-2.8,2.9c0.1,1.8,1.3,2.9,3,2.9
				C103.1,307.3,104.1,306.1,104.1,304z"/>
		</g>
	</g>
	<path class="st11" d="M698.8,114.6h369.5c15.6,0,28.2,12.6,28.2,28.2v28.2h-426v-28.2C670.6,127.2,683.2,114.6,698.8,114.6z"/>
	<text transform="matrix(1 0 0 1 199.0077 638.7162)" class="st9 st1 st2">FabLab</text>
	<g id="xSwiN3.tif_00000109742622328771394840000013126743535610497460_" class="st4">
		<g>
			<path class="st10" d="M159.9,592.6c-1-2-1.8-3.9-2.7-5.6c-0.9-1.7-0.8-3.1,0.3-4.6c2.1-2.9,4.1-5.9,6.2-8.7
				c0.7-0.9,0.8-1.6-0.1-2.5c-2.4-2.3-4.8-4.6-7-7c-0.9-0.9-1.4-0.3-2.1,0.1c-2.9,2-5.8,4.1-8.8,6.1c-2.2,1.5-4,1.4-5.3-0.3
				c-1.2-1.7-0.7-3.6,1.4-5.1c4-2.9,8-5.6,12-8.5c1.8-1.3,3.6-1.3,5.1,0.6c3,3.8,7.1,6.3,9.8,10.3c0.1,0.1,0.2,0.2,0.3,0.4
				c3.9,3.9,3.9,3.9,1,8.4c-0.6,1-1.2,1.9-1.9,2.9c-1.4,2.1-3.6,4-3.9,6.2c-0.2,2.1,1.7,4.4,2.5,6.6c0.4,1,0.9,1.4,1.9,1.5
				c3.8,0.6,7.5,1.3,11.3,2c2.7,0.5,3.5,1.4,3.5,4.2c0,5.6,0,11.1,0,16.7c0,3-0.7,3.7-3.7,4.3c-3.5,0.6-7,1.3-10.5,1.8
				c-1.5,0.2-2.4,0.8-2.7,2.3c0,0.2-0.1,0.5-0.2,0.7c-2.7,3.9-2,7.4,1.2,10.6c1.8,1.8,2.5,4.4,4.3,6.4c1.2,1.3,0.7,2.8-0.4,4
				c-4.2,4.3-8.5,8.5-12.8,12.8c-1.5,1.5-3.1,1.4-4.7,0.2c-3-2.2-6.1-4.2-9.2-6.5c-1.2-0.9-2.2-1.3-3.5-0.3
				c-0.1,0.1-0.3,0.2-0.5,0.2c-5.1,0.8-6.9,4.2-7.1,9c-0.1,2.1-0.7,4.2-1.1,6.4c-0.3,2-1.5,3.2-3.5,3.2c-6,0.1-12,0-17.9,0
				c-2.2,0-3.3-1.3-3.6-3.4c-0.6-3.8-1.3-7.5-2-11.3c-0.2-1.1-0.4-1.8-1.7-2c-0.9-0.2-1.9-0.6-2.7-1.2c-2.8-1.9-5.2-1.4-7.7,0.8
				c-2.2,1.9-4.7,3.4-7.1,5.1c-1.9,1.4-3.5,1.1-5.1-0.4c-4.1-4-8.1-8.1-12.2-12.1c-1.7-1.7-1.7-3.4-0.3-5.3c2.2-3,4.3-6.1,6.5-9.1
				c0.8-1.1,0.9-2,0.3-3.1c-0.7-1.3-1.4-2.7-1.7-4.1c-0.5-2.5-2.4-3-4.3-3.1c-3.3-0.2-6.4-1-9.6-1.5c-2.3-0.3-3.3-1.7-3.2-3.9
				c0-5.2,0.2-10.3,0-15.5c-0.2-5.8,2-5.3,6.1-6.1c3.2-0.6,6.4-1.1,9.6-1.7c0.6-0.1,0.8-0.5,1-1c0.9-2.2,1.8-4.3,2.7-6.4
				c0.7-1.8-1-2.8-1.7-4.1c-1.6-2.6-3.6-5-5.4-7.4c-1.4-1.9-1.3-3.6,0.5-5.3c4-4,8-8,12-12c1.5-1.5,3.1-2,4.9-0.7
				c4.2,2.9,8.4,5.8,12.5,8.9c2.1,1.5,2.3,3.3,0.9,5c-1.4,1.7-3.5,2-5.4,0.2c-2.5-2.4-5.7-3.9-8.3-6.2c-1-0.8-1.6-0.7-2.5,0.2
				c-2.2,2.3-4.4,4.5-6.7,6.7c-0.9,0.9-1,1.5-0.2,2.5c2.1,2.8,4,5.7,6.1,8.5c1.4,2,1.5,3.8-0.2,5.6c-0.4,0.4-0.6,1-1,1.4
				c-0.8,1-1,2.3-0.7,3.2c0.3,1,1.7,0.4,2.7,0.5c7.1,0,14.3,0,21.4,0c1.8,0,3.5-0.1,4.5,1.9c0.9,1.9-0.2,3.1-1.1,4.5
				c-4.3,6.1-3.8,13.9,1.3,19.2c5.1,5.3,13,6.1,19.1,2c7.9-5.2,8.2-15.6,3.5-21.5c-1.1-1.4-1.6-2.7-0.8-4.3c0.8-1.6,2.3-1.7,3.8-1.7
				c8.1,0,16.1,0,24.2,0C159.2,592.8,159.3,592.7,159.9,592.6z M99.9,599.4c-12,0.3-23.8-0.9-35.4,1.9c-1.2,0.3-1.4,0.8-1.4,1.9
				c0,3.1,0.1,6.2,0,9.2c-0.1,1.6,0.6,2,1.9,2.2c3.2,0.5,6.4,1.2,9.6,1.6c2.4,0.3,3.8,1.4,4.5,3.9c0.9,3,2.1,5.9,3.4,8.8
				c0.8,1.7,0.6,3-0.3,4.5c-1.7,3-3.9,5.6-5.9,8.4c-0.8,1.2-0.8,2.1,0.4,3.1c2.2,2,4.3,4.2,6.3,6.3c0.9,1,1.7,1,2.7,0.2
				c2.7-2,5.6-3.9,8.3-5.9c1.7-1.2,3.2-1.5,5-0.4c2.9,1.7,6,2.9,9.2,3.8c1.9,0.5,2.9,1.7,3.2,3.6c0.5,3.5,1.3,7,1.8,10.5
				c0.2,1.1,0.5,1.6,1.7,1.5c3.2-0.1,6.5-0.1,9.7,0c1.2,0,1.6-0.4,1.8-1.5c0.5-3.4,1.3-6.8,1.8-10.3c0.3-2.3,1.4-3.6,3.6-4.1
				c3-0.7,5.8-1.9,8.5-3.5c2-1.1,3.7-1.1,5.5,0.3c2.7,2,5.2,4.2,8.2,5.8c1.4,0.8,2.1,0.7,3.1-0.4c1.9-2.1,3.9-4.1,6-6
				c1.3-1.1,1.3-2.1,0.4-3.3c-2-2.8-4-5.6-6.1-8.4c-1.1-1.5-1.3-3.1-0.2-4.6c2-2.7,2.8-5.9,3.7-9.1c0.6-2.2,1.9-3.1,4-3.4
				c3.4-0.5,6.7-1.1,10.1-1.7c0.9-0.2,1.8-0.2,1.7-1.6c-0.1-3.4,0-6.8,0-10.2c0-0.8-0.2-1.2-1.1-1.3c-4.1-0.6-8.2-1.7-12.3-1.9
				c-7.1-0.3-14.3,0-21.4-0.1c-1.8,0-1.9,0.6-1.4,2c1.1,3.1,1.2,6.3,0.8,9.6c-1.2,10.4-10.9,18.9-21.6,18.6
				c-12.8-0.4-20-9.2-21.4-19.7C98,606.4,98.7,603,99.9,599.4z"/>
			<path class="st10" d="M116.5,567.6c0-1.4,0-2.2,0-3c0-12.1,0-24.3,0-36.4c0-1.6-0.3-2.7-1.9-3.6c-3.6-2-5.2-6.8-4-10.9
				c1.2-4,5-7,9.3-7c4.3-0.1,7.9,2.6,9.3,6.9c1.3,4.2-0.2,8.7-3.9,10.8c-1.6,0.9-2,1.9-1.9,3.5c0.1,8.8,0,17.6,0,26.4
				c0,0.6-0.3,1.5,0.3,1.8c0.8,0.4,1.1-0.5,1.6-0.9c3.3-2.8,6.6-5.6,8.5-9.6c0.8-1.8,1.3-3.1-1.1-4.4c-3.5-1.9-4.9-7.1-3.6-11.3
				c1.3-3.9,5.2-6.5,9.4-6.4c4.3,0.1,7.9,2.9,9.1,7.2c1.1,3.9-0.5,8.5-4.2,10.6c-1.5,0.8-2.2,1.8-2.5,3.4c-1.1,5.1-4,9.1-7.7,12.5
				c-1.4,1.3-2.8,2.6-4.3,3.8c-4.1,3.5-6,7.9-5.7,13.4c0.3,6.8,0.1,13.6,0,20.4c0,1.7,0.5,2.7,1.9,3.6c5.9,3.6,7.3,10.3,3.5,15.9
				c-3.4,4.9-10.5,5.8-15.7,1.9c-5.8-4.3-5.1-14.1,1.4-17.7c1.5-0.8,2.1-1.7,2.1-3.5c-0.1-3.4-0.3-6.8,0-10.2
				c0.5-6.3-2.4-10.9-7.1-14.5c-4.6-3.5-8.3-7.6-9.9-13.2c-0.8-2.5-1.6-4.5-4-6.1c-3.8-2.6-4.5-7.5-2.5-11.7c1.8-3.8,6.7-6,11.3-4.9
				c3.6,0.8,7.1,5.1,7.1,9c0,3.5-1.2,6.6-4.4,8.4c-1.6,0.9-1.7,2-1.1,3.5c0.9,2.5,2.5,4.5,4.3,6.3
				C111.9,563.7,114,565.4,116.5,567.6z M123.9,607.9c0-2.3-1.7-4.1-4-4c-2.3,0-4,1.8-3.9,4.2c0,2.3,1.9,4.2,4.1,4.1
				C122.4,612.1,123.9,610.4,123.9,607.9z M122.9,516.5c-0.1-1.7-1.2-2.9-2.8-3c-1.7-0.1-3,1.1-3.1,2.9c-0.1,1.8,1,3.1,2.8,3.1
				C121.5,519.5,122.7,518.6,122.9,516.5z M141.3,533.3c-0.2-1.7-1.3-2.9-3-2.9c-1.8,0-2.9,1.1-2.9,3c0,1.8,1.1,2.9,2.8,2.9
				C139.9,536.3,141.1,535.3,141.3,533.3z M104.5,543.7c-0.3-1.5-1.2-2.7-3.1-2.6c-1.7,0.1-2.8,1.2-2.8,2.9c0.1,1.8,1.3,2.9,3,2.9
				C103.5,546.9,104.4,545.7,104.5,543.7z"/>
		</g>
	</g>
</g>
<g id="Logo_Main">
	<text transform="matrix(1 0 0 1 189.8867 189.6219)" class="st12 st1 st2">FabLab</text>
	<g id="xSwiN3.tif_00000043444409342620934340000011169104784507214209_">
		<g>
			<path class="st5" d="M154.2,135.8c-1-2-1.8-3.9-2.7-5.6c-0.9-1.7-0.8-3.1,0.3-4.6c2.1-2.9,4.1-5.9,6.2-8.7
				c0.7-0.9,0.8-1.6-0.1-2.5c-2.4-2.3-4.8-4.6-7-7c-0.9-0.9-1.4-0.3-2.1,0.1c-2.9,2-5.8,4.1-8.8,6.1c-2.2,1.5-4,1.4-5.3-0.3
				c-1.2-1.7-0.7-3.6,1.4-5.1c4-2.9,8-5.6,12-8.5c1.8-1.3,3.6-1.3,5.1,0.6c3,3.8,10.1,10.5,10.2,10.6c3.9,3.9,3.9,3.9,1,8.4
				c-0.6,1-1.2,1.9-1.9,2.9c-1.4,2.1-3.6,4-3.9,6.2c-0.2,2.1,1.7,4.4,2.5,6.6c0.4,1,0.9,1.4,1.9,1.5c3.8,0.6,7.5,1.3,11.3,2
				c2.7,0.5,3.5,1.4,3.5,4.2c0,5.6,0,11.1,0,16.7c0,3-0.7,3.7-3.7,4.3c-3.5,0.6-7,1.3-10.5,1.8c-1.5,0.2-2.8,2.8-3,3
				c-2.7,3.9-2,7.4,1.2,10.6c1.8,1.8,2.5,4.4,4.3,6.4c1.2,1.3,0.7,2.8-0.4,4c-4.2,4.3-8.5,8.5-12.8,12.8c-1.5,1.5-3.1,1.4-4.7,0.2
				c-3-2.2-6.1-4.2-9.2-6.5c-1.2-0.9-3.8-0.1-4-0.1c-5.1,0.8-6.9,4.2-7.1,9c-0.1,2.1-0.7,4.2-1.1,6.4c-0.3,2-1.5,3.2-3.5,3.2
				c-6,0.1-12,0-17.9,0c-2.2,0-3.3-1.3-3.6-3.4c-0.6-3.8-1.3-7.5-2-11.3c-0.2-1.1-3.6-2.7-4.4-3.2c-2.8-1.9-5.2-1.4-7.7,0.8
				c-2.2,1.9-4.7,3.4-7.1,5.1c-1.9,1.4-3.5,1.1-5.1-0.4c-4.1-4-8.1-8.1-12.2-12.1c-1.7-1.7-1.7-3.4-0.3-5.3c2.2-3,4.3-6.1,6.5-9.1
				c0.8-1.1,0.9-2,0.3-3.1c-0.7-1.3-1.4-2.7-1.7-4.1c-0.5-2.5-2.4-3-4.3-3.1c-3.3-0.2-6.4-1-9.6-1.5c-2.3-0.3-3.3-1.7-3.2-3.9
				c0-5.2,0.2-10.3,0-15.5c-0.2-5.8,2-5.3,6.1-6.1c3.2-0.6,6.4-1.1,9.6-1.7c0.6-0.1,0.8-0.5,1-1c0.9-2.2,1.8-4.3,2.7-6.4
				c0.7-1.8-1-2.8-1.7-4.1c-1.6-2.6-3.6-5-5.4-7.4c-1.4-1.9-1.3-3.6,0.5-5.3c4-4,8-8,12-12c1.5-1.5,3.1-2,4.9-0.7
				c4.2,2.9,8.4,5.8,12.5,8.9c2.1,1.5,2.3,3.3,0.9,5c-1.4,1.7-3.5,2-5.4,0.2c-2.5-2.4-5.7-3.9-8.3-6.2c-1-0.8-1.6-0.7-2.5,0.2
				c-2.2,2.3-4.4,4.5-6.7,6.7c-0.9,0.9-1,1.5-0.2,2.5c2.1,2.8,4,5.7,6.1,8.5c1.4,2,1.5,3.8-0.2,5.6c-0.4,0.4-0.6,1-1,1.4
				c-0.8,1-1,2.3-0.7,3.2c0.3,1,1.7,0.4,2.7,0.5c7.1,0,14.3,0,21.4,0c1.8,0,3.5-0.1,4.5,1.9c0.9,1.9-0.2,3.1-1.1,4.5
				c-4.3,6.1-3.8,13.9,1.3,19.2c5.1,5.3,13,6.1,19.1,2c7.9-5.2,8.2-15.6,3.5-21.5c-1.1-1.4-1.6-2.7-0.8-4.3c0.8-1.6,2.3-1.7,3.8-1.7
				C137.2,136,153.6,135.9,154.2,135.8z M94.2,142.6c-12,0.3-23.8-0.9-35.4,1.9c-1.2,0.3-1.4,0.8-1.4,1.9c0,3.1,0.1,6.2,0,9.2
				c-0.1,1.6,0.6,2,1.9,2.2c3.2,0.5,6.4,1.2,9.6,1.6c2.4,0.3,3.8,1.4,4.5,3.9c0.9,3,2.1,5.9,3.4,8.8c0.8,1.7,0.6,3-0.3,4.5
				c-1.7,3-3.9,5.6-5.9,8.4c-0.8,1.2-0.8,2.1,0.4,3.1c2.2,2,4.3,4.2,6.3,6.3c0.9,1,1.7,1,2.7,0.2c2.7-2,5.6-3.9,8.3-5.9
				c1.7-1.2,3.2-1.5,5-0.4c2.9,1.7,6,2.9,9.2,3.8c1.9,0.5,2.9,1.7,3.2,3.6c0.5,3.5,1.3,7,1.8,10.5c0.2,1.1,0.5,1.6,1.7,1.5
				c3.2-0.1,6.5-0.1,9.7,0c1.2,0,1.6-0.4,1.8-1.5c0.5-3.4,1.3-6.8,1.8-10.3c0.3-2.3,1.4-3.6,3.6-4.1c3-0.7,5.8-1.9,8.5-3.5
				c2-1.1,3.7-1.1,5.5,0.3c2.7,2,5.2,4.2,8.2,5.8c1.4,0.8,2.1,0.7,3.1-0.4c1.9-2.1,3.9-4.1,6-6c1.3-1.1,1.3-2.1,0.4-3.3
				c-2-2.8-4-5.6-6.1-8.4c-1.1-1.5-1.3-3.1-0.2-4.6c2-2.7,2.8-5.9,3.7-9.1c0.6-2.2,1.9-3.1,4-3.4c3.4-0.5,6.7-1.1,10.1-1.7
				c0.9-0.2,1.8-0.2,1.7-1.6c-0.1-3.4,0-6.8,0-10.2c0-0.8-0.2-1.2-1.1-1.3c-4.1-0.6-8.2-1.7-12.3-1.9c-7.1-0.3-14.3,0-21.4-0.1
				c-1.8,0-1.9,0.6-1.4,2c1.1,3.1,1.2,6.3,0.8,9.6c-1.2,10.4-10.9,18.9-21.6,18.6c-12.8-0.4-20-9.2-21.4-19.7
				C92.2,149.5,93,146.1,94.2,142.6z"/>
			<path class="st6" d="M110.8,110.8c0-1.4,0-2.2,0-3c0-12.1,0-24.3,0-36.4c0-1.6-0.3-2.7-1.9-3.6c-3.6-2-5.2-6.8-4-10.9
				c1.2-4,5-7,9.3-7c4.3-0.1,7.9,2.6,9.3,6.9c1.3,4.2-0.2,8.7-3.9,10.8c-1.6,0.9-2,1.9-1.9,3.5c0.1,8.8,0,17.6,0,26.4
				c0,0.6-0.3,1.5,0.3,1.8c0.8,0.4,1.1-0.5,1.6-0.9c3.3-2.8,6.6-5.6,8.5-9.6c0.8-1.8,1.3-3.1-1.1-4.4c-3.5-1.9-4.9-7.1-3.6-11.3
				c1.3-3.9,5.2-6.5,9.4-6.4c4.3,0.1,7.9,2.9,9.1,7.2c1.1,3.9-0.5,8.5-4.2,10.6c-1.5,0.8-2.2,1.8-2.5,3.4c-1.1,5.1-4,9.1-7.7,12.5
				c-1.4,1.3-2.8,2.6-4.3,3.8c-4.1,3.5-6,7.9-5.7,13.4c0.3,6.8,0.1,13.6,0,20.4c0,1.7,0.5,2.7,1.9,3.6c5.9,3.6,7.3,10.3,3.5,15.9
				c-3.4,4.9-10.5,5.8-15.7,1.9c-5.8-4.3-5.1-14.1,1.4-17.7c1.5-0.8,2.1-1.7,2.1-3.5c-0.1-3.4-0.3-6.8,0-10.2
				c0.5-6.3-2.4-10.9-7.1-14.5c-4.6-3.5-8.3-7.6-9.9-13.2c-0.8-2.5-1.6-4.5-4-6.1c-3.8-2.6-4.5-7.5-2.5-11.7c1.8-3.8,6.7-6,11.3-4.9
				c3.6,0.8,7.1,5.1,7.1,9c0,3.5-1.2,6.6-4.4,8.4c-1.6,0.9-1.7,2-1.1,3.5c0.9,2.5,2.5,4.5,4.3,6.3
				C106.2,106.9,108.3,108.5,110.8,110.8z M118.2,151.1c0-2.3-1.7-4.1-4-4c-2.3,0-4,1.8-3.9,4.2c0,2.3,1.9,4.2,4.1,4.1
				C116.7,155.2,118.2,153.6,118.2,151.1z M117.2,59.7c-0.1-1.7-1.2-2.9-2.8-3c-1.7-0.1-3,1.1-3.1,2.9c-0.1,1.8,1,3.1,2.8,3.1
				C115.8,62.7,117,61.7,117.2,59.7z M135.6,76.5c-0.2-1.7-1.3-2.9-3-2.9c-1.8,0-2.9,1.1-2.9,3c0,1.8,1.1,2.9,2.8,2.9
				C134.2,79.5,135.4,78.5,135.6,76.5z M98.8,86.8c-0.3-1.5-1.2-2.7-3.1-2.6c-1.7,0.1-2.8,1.2-2.8,2.9c0.1,1.8,1.3,2.9,3,2.9
				C97.8,90.1,98.7,88.9,98.8,86.8z"/>
		</g>
	</g>
	<text transform="matrix(1 0 0 1 16.4678 409.0187)" class="st13 st1 st14">Digital Fabrication</text>
	<text transform="matrix(1 0 0 1 17.5531 371.6862)" class="st13 st1 st14">Emerging Technologies </text>
</g>
</svg>
