<svg version="1.1" xmlns="http://www.w3.org/2000/svg" viewBox="0 0 250.57903754695963 219.23036043629918" width="751.7371126408789" height="657.6910813088975"><!-- svg-source:excalidraw --><metadata></metadata><defs><style class="style-fonts">
      </style></defs><g stroke-linecap="round"><g transform="translate(93.27062901213503 15.160968486185084) rotate(0 32.019663833154254 93.90184059970375)" fill-rule="evenodd"><path d="M0 0 C-7.14 3.63, -30.79 11.27, -42.85 21.78 C-54.92 32.3, -65.66 49.2, -72.4 63.09 C-79.13 76.98, -83.39 92.2, -83.27 105.11 C-83.15 118.02, -78.34 129.59, -71.69 140.56 C-65.03 151.52, -56.52 162.26, -43.34 170.89 C-30.15 179.52, -10.13 189.1, 7.43 192.34 C24.99 195.58, 45.93 193.89, 62.03 190.35 C78.13 186.8, 91.9 180.75, 104.03 171.05 C116.15 161.36, 127.55 145.47, 134.76 132.17 C141.98 118.88, 147.39 105.16, 147.31 91.27 C147.23 77.38, 142.71 61.45, 134.29 48.85 C125.88 36.25, 111.47 24.59, 96.8 15.69 C82.13 6.8, 62.39 -1.92, 46.26 -4.54 C30.12 -7.15, 7.71 -0.76, 0 0" stroke="none" stroke-width="0" fill="#1e1e1e" fill-rule="evenodd"></path><path d="M0 0 C-7.14 3.63, -30.79 11.27, -42.85 21.78 C-54.92 32.3, -65.66 49.2, -72.4 63.09 C-79.13 76.98, -83.39 92.2, -83.27 105.11 C-83.15 118.02, -78.34 129.59, -71.69 140.56 C-65.03 151.52, -56.52 162.26, -43.34 170.89 C-30.15 179.52, -10.13 189.1, 7.43 192.34 C24.99 195.58, 45.93 193.89, 62.03 190.35 C78.13 186.8, 91.9 180.75, 104.03 171.05 C116.15 161.36, 127.55 145.47, 134.76 132.17 C141.98 118.88, 147.39 105.16, 147.31 91.27 C147.23 77.38, 142.71 61.45, 134.29 48.85 C125.88 36.25, 111.47 24.59, 96.8 15.69 C82.13 6.8, 62.39 -1.92, 46.26 -4.54 C30.12 -7.15, 7.71 -0.76, 0 0 M0 0 C-7.14 3.63, -30.79 11.27, -42.85 21.78 C-54.92 32.3, -65.66 49.2, -72.4 63.09 C-79.13 76.98, -83.39 92.2, -83.27 105.11 C-83.15 118.02, -78.34 129.59, -71.69 140.56 C-65.03 151.52, -56.52 162.26, -43.34 170.89 C-30.15 179.52, -10.13 189.1, 7.43 192.34 C24.99 195.58, 45.93 193.89, 62.03 190.35 C78.13 186.8, 91.9 180.75, 104.03 171.05 C116.15 161.36, 127.55 145.47, 134.76 132.17 C141.98 118.88, 147.39 105.16, 147.31 91.27 C147.23 77.38, 142.71 61.45, 134.29 48.85 C125.88 36.25, 111.47 24.59, 96.8 15.69 C82.13 6.8, 62.39 -1.92, 46.26 -4.54 C30.12 -7.15, 7.71 -0.76, 0 0" stroke="#1e1e1e" stroke-width="4" fill="none"></path></g></g><mask></mask><g stroke-linecap="round" transform="translate(21.889697401902595 22.649975099967833) rotate(0 101.84256507273176 88.51926568744807)"><path d="M203.69 88.52 C203.69 91.41, 203.52 94.32, 203.19 97.2 C202.87 100.07, 202.38 102.95, 201.73 105.79 C201.08 108.63, 200.27 111.45, 199.3 114.22 C198.33 116.98, 197.21 119.72, 195.93 122.39 C194.66 125.07, 193.23 127.7, 191.66 130.25 C190.09 132.8, 188.37 135.29, 186.52 137.7 C184.67 140.1, 182.68 142.44, 180.57 144.68 C178.46 146.91, 176.21 149.07, 173.86 151.11 C171.5 153.16, 169.02 155.11, 166.45 156.95 C163.88 158.78, 161.19 160.51, 158.42 162.12 C155.66 163.73, 152.79 165.22, 149.85 166.59 C146.92 167.95, 143.89 169.19, 140.82 170.3 C137.74 171.41, 134.59 172.39, 131.41 173.23 C128.22 174.07, 124.97 174.77, 121.71 175.34 C118.45 175.9, 115.14 176.33, 111.82 176.61 C108.51 176.9, 105.17 177.04, 101.84 177.04 C98.52 177.04, 95.17 176.9, 91.86 176.61 C88.55 176.33, 85.24 175.9, 81.97 175.34 C78.71 174.77, 75.46 174.07, 72.28 173.23 C69.1 172.39, 65.94 171.41, 62.87 170.3 C59.79 169.19, 56.77 167.95, 53.83 166.59 C50.9 165.22, 48.03 163.73, 45.26 162.12 C42.5 160.51, 39.81 158.78, 37.23 156.95 C34.66 155.11, 32.18 153.16, 29.83 151.11 C27.48 149.07, 25.23 146.91, 23.12 144.68 C21.01 142.44, 19.01 140.1, 17.16 137.7 C15.31 135.29, 13.59 132.8, 12.03 130.25 C10.46 127.7, 9.03 125.07, 7.75 122.39 C6.48 119.72, 5.35 116.98, 4.39 114.22 C3.42 111.45, 2.61 108.63, 1.96 105.79 C1.31 102.95, 0.82 100.07, 0.49 97.2 C0.16 94.32, 0 91.41, 0 88.52 C0 85.63, 0.16 82.72, 0.49 79.84 C0.82 76.96, 1.31 74.09, 1.96 71.25 C2.61 68.41, 3.42 65.59, 4.39 62.82 C5.35 60.06, 6.48 57.32, 7.75 54.64 C9.03 51.97, 10.46 49.34, 12.03 46.79 C13.59 44.24, 15.31 41.75, 17.16 39.34 C19.01 36.94, 21.01 34.6, 23.12 32.36 C25.23 30.13, 27.48 27.97, 29.83 25.93 C32.18 23.88, 34.66 21.93, 37.23 20.09 C39.81 18.26, 42.5 16.52, 45.26 14.92 C48.03 13.31, 50.9 11.82, 53.83 10.45 C56.77 9.09, 59.79 7.84, 62.87 6.74 C65.94 5.63, 69.1 4.65, 72.28 3.81 C75.46 2.97, 78.71 2.27, 81.97 1.7 C85.24 1.14, 88.55 0.71, 91.86 0.43 C95.17 0.14, 98.52 0, 101.84 0 C105.17 0, 108.51 0.14, 111.82 0.43 C115.14 0.71, 118.45 1.14, 121.71 1.7 C124.97 2.27, 128.22 2.97, 131.41 3.81 C134.59 4.65, 137.74 5.63, 140.82 6.74 C143.89 7.84, 146.92 9.09, 149.85 10.45 C152.79 11.82, 155.66 13.31, 158.42 14.92 C161.19 16.52, 163.88 18.26, 166.45 20.09 C169.02 21.93, 171.5 23.88, 173.86 25.93 C176.21 27.97, 178.46 30.13, 180.57 32.36 C182.68 34.6, 184.67 36.94, 186.52 39.34 C188.37 41.75, 190.09 44.24, 191.66 46.79 C193.23 49.34, 194.66 51.97, 195.93 54.64 C197.21 57.32, 198.33 60.06, 199.3 62.82 C200.27 65.59, 201.08 68.41, 201.73 71.25 C202.38 74.09, 202.87 76.96, 203.19 79.84 C203.52 82.72, 203.6 87.07, 203.69 88.52 C203.77 89.97, 203.77 87.07, 203.69 88.52" stroke="none" stroke-width="0" fill="#fdf8f6"></path><path d="M203.69 88.52 C203.69 91.41, 203.52 94.32, 203.19 97.2 C202.87 100.07, 202.38 102.95, 201.73 105.79 C201.08 108.63, 200.27 111.45, 199.3 114.22 C198.33 116.98, 197.21 119.72, 195.93 122.39 C194.66 125.07, 193.23 127.7, 191.66 130.25 C190.09 132.8, 188.37 135.29, 186.52 137.7 C184.67 140.1, 182.68 142.44, 180.57 144.68 C178.46 146.91, 176.21 149.07, 173.86 151.11 C171.5 153.16, 169.02 155.11, 166.45 156.95 C163.88 158.78, 161.19 160.51, 158.42 162.12 C155.66 163.73, 152.79 165.22, 149.85 166.59 C146.92 167.95, 143.89 169.19, 140.82 170.3 C137.74 171.41, 134.59 172.39, 131.41 173.23 C128.22 174.07, 124.97 174.77, 121.71 175.34 C118.45 175.9, 115.14 176.33, 111.82 176.61 C108.51 176.9, 105.17 177.04, 101.84 177.04 C98.52 177.04, 95.17 176.9, 91.86 176.61 C88.55 176.33, 85.24 175.9, 81.97 175.34 C78.71 174.77, 75.46 174.07, 72.28 173.23 C69.1 172.39, 65.94 171.41, 62.87 170.3 C59.79 169.19, 56.77 167.95, 53.83 166.59 C50.9 165.22, 48.03 163.73, 45.26 162.12 C42.5 160.51, 39.81 158.78, 37.23 156.95 C34.66 155.11, 32.18 153.16, 29.83 151.11 C27.48 149.07, 25.23 146.91, 23.12 144.68 C21.01 142.44, 19.01 140.1, 17.16 137.7 C15.31 135.29, 13.59 132.8, 12.03 130.25 C10.46 127.7, 9.03 125.07, 7.75 122.39 C6.48 119.72, 5.35 116.98, 4.39 114.22 C3.42 111.45, 2.61 108.63, 1.96 105.79 C1.31 102.95, 0.82 100.07, 0.49 97.2 C0.16 94.32, 0 91.41, 0 88.52 C0 85.63, 0.16 82.72, 0.49 79.84 C0.82 76.96, 1.31 74.09, 1.96 71.25 C2.61 68.41, 3.42 65.59, 4.39 62.82 C5.35 60.06, 6.48 57.32, 7.75 54.64 C9.03 51.97, 10.46 49.34, 12.03 46.79 C13.59 44.24, 15.31 41.75, 17.16 39.34 C19.01 36.94, 21.01 34.6, 23.12 32.36 C25.23 30.13, 27.48 27.97, 29.83 25.93 C32.18 23.88, 34.66 21.93, 37.23 20.09 C39.81 18.26, 42.5 16.52, 45.26 14.92 C48.03 13.31, 50.9 11.82, 53.83 10.45 C56.77 9.09, 59.79 7.84, 62.87 6.74 C65.94 5.63, 69.1 4.65, 72.28 3.81 C75.46 2.97, 78.71 2.27, 81.97 1.7 C85.24 1.14, 88.55 0.71, 91.86 0.43 C95.17 0.14, 98.52 0, 101.84 0 C105.17 0, 108.51 0.14, 111.82 0.43 C115.14 0.71, 118.45 1.14, 121.71 1.7 C124.97 2.27, 128.22 2.97, 131.41 3.81 C134.59 4.65, 137.74 5.63, 140.82 6.74 C143.89 7.84, 146.92 9.09, 149.85 10.45 C152.79 11.82, 155.66 13.31, 158.42 14.92 C161.19 16.52, 163.88 18.26, 166.45 20.09 C169.02 21.93, 171.5 23.88, 173.86 25.93 C176.21 27.97, 178.46 30.13, 180.57 32.36 C182.68 34.6, 184.67 36.94, 186.52 39.34 C188.37 41.75, 190.09 44.24, 191.66 46.79 C193.23 49.34, 194.66 51.97, 195.93 54.64 C197.21 57.32, 198.33 60.06, 199.3 62.82 C200.27 65.59, 201.08 68.41, 201.73 71.25 C202.38 74.09, 202.87 76.96, 203.19 79.84 C203.52 82.72, 203.6 87.07, 203.69 88.52 C203.77 89.97, 203.77 87.07, 203.69 88.52" stroke="#1e1e1e" stroke-width="4" fill="none"></path></g><g stroke-linecap="round"><g transform="translate(126.58558921205213 73.90906217805741) rotate(6.9877063019096095 34.83140964685845 36.353621887654754)" fill-rule="evenodd"><path d="M0 0 C2.26 12.98, 8.47 65.29, 13.54 77.89 C18.61 90.48, 28.67 80.16, 30.44 75.56 C32.21 70.96, 22.7 55.71, 24.17 50.3 C25.63 44.88, 35.34 41.22, 39.21 43.07 C43.09 44.93, 45.47 55.48, 47.43 61.43 C49.38 67.38, 47.25 76.4, 50.95 78.75 C54.66 81.09, 68.27 89.65, 69.66 75.52 C71.05 61.39, 64.3 7.39, 59.28 -6.04 C54.27 -19.47, 42.41 -9.59, 39.57 -5.04 C36.72 -0.49, 44.95 16.76, 42.2 21.27 C39.45 25.77, 26.44 25.63, 23.08 21.99 C19.71 18.36, 25.86 3.12, 22.02 -0.55 C18.17 -4.21, 3.67 -0.09, 0 0" stroke="none" stroke-width="0" fill="#1e1e1e" fill-rule="evenodd"></path><path d="M0 0 C2.26 12.98, 8.47 65.29, 13.54 77.89 C18.61 90.48, 28.67 80.16, 30.44 75.56 C32.21 70.96, 22.7 55.71, 24.17 50.3 C25.63 44.88, 35.34 41.22, 39.21 43.07 C43.09 44.93, 45.47 55.48, 47.43 61.43 C49.38 67.38, 47.25 76.4, 50.95 78.75 C54.66 81.09, 68.27 89.65, 69.66 75.52 C71.05 61.39, 64.3 7.39, 59.28 -6.04 C54.27 -19.47, 42.41 -9.59, 39.57 -5.04 C36.72 -0.49, 44.95 16.76, 42.2 21.27 C39.45 25.77, 26.44 25.63, 23.08 21.99 C19.71 18.36, 25.86 3.12, 22.02 -0.55 C18.17 -4.21, 3.67 -0.09, 0 0 M0 0 C2.26 12.98, 8.47 65.29, 13.54 77.89 C18.61 90.48, 28.67 80.16, 30.44 75.56 C32.21 70.96, 22.7 55.71, 24.17 50.3 C25.63 44.88, 35.34 41.22, 39.21 43.07 C43.09 44.93, 45.47 55.48, 47.43 61.43 C49.38 67.38, 47.25 76.4, 50.95 78.75 C54.66 81.09, 68.27 89.65, 69.66 75.52 C71.05 61.39, 64.3 7.39, 59.28 -6.04 C54.27 -19.47, 42.41 -9.59, 39.57 -5.04 C36.72 -0.49, 44.95 16.76, 42.2 21.27 C39.45 25.77, 26.44 25.63, 23.08 21.99 C19.71 18.36, 25.86 3.12, 22.02 -0.55 C18.17 -4.21, 3.67 -0.09, 0 0" stroke="#1e1e1e" stroke-width="4" fill="none"></path></g></g><mask></mask><g stroke-linecap="round"><g transform="translate(103.15731614601145 84.73421333070883) rotate(6.9877063019096095 -23.440194457405596 30.40774431437785)" fill-rule="evenodd"><path d="M0 0 C-4.36 2.36, -19.97 8.9, -26.17 14.18 C-32.37 19.46, -37.2 24.69, -37.19 31.68 C-37.18 38.66, -32.08 52.54, -26.1 56.1 C-20.12 59.67, -6.69 54.51, -1.3 53.04 C4.1 51.57, 3.66 47.98, 6.29 47.27 C8.92 46.56, 12.54 46.03, 14.51 48.8 C16.47 51.58, 21.3 59.48, 18.06 63.94 C14.82 68.4, 5.03 74.56, -4.93 75.57 C-14.89 76.57, -31.71 76.81, -41.71 69.97 C-51.72 63.13, -62.37 44.89, -64.94 34.55 C-67.52 24.21, -63.6 16.14, -57.16 7.92 C-50.71 -0.3, -34.97 -11.41, -26.26 -14.75 C-17.55 -18.09, -9.28 -14.57, -4.91 -12.11 C-0.53 -9.65, -0.82 -2.02, 0 0" stroke="none" stroke-width="0" fill="#1e1e1e" fill-rule="evenodd"></path><path d="M0 0 C-4.36 2.36, -19.97 8.9, -26.17 14.18 C-32.37 19.46, -37.2 24.69, -37.19 31.68 C-37.18 38.66, -32.08 52.54, -26.1 56.1 C-20.12 59.67, -6.69 54.51, -1.3 53.04 C4.1 51.57, 3.66 47.98, 6.29 47.27 C8.92 46.56, 12.54 46.03, 14.51 48.8 C16.47 51.58, 21.3 59.48, 18.06 63.94 C14.82 68.4, 5.03 74.56, -4.93 75.57 C-14.89 76.57, -31.71 76.81, -41.71 69.97 C-51.72 63.13, -62.37 44.89, -64.94 34.55 C-67.52 24.21, -63.6 16.14, -57.16 7.92 C-50.71 -0.3, -34.97 -11.41, -26.26 -14.75 C-17.55 -18.09, -9.28 -14.57, -4.91 -12.11 C-0.53 -9.65, -0.82 -2.02, 0 0 M0 0 C-4.36 2.36, -19.97 8.9, -26.17 14.18 C-32.37 19.46, -37.2 24.69, -37.19 31.68 C-37.18 38.66, -32.08 52.54, -26.1 56.1 C-20.12 59.67, -6.69 54.51, -1.3 53.04 C4.1 51.57, 3.66 47.98, 6.29 47.27 C8.92 46.56, 12.54 46.03, 14.51 48.8 C16.47 51.58, 21.3 59.48, 18.06 63.94 C14.82 68.4, 5.03 74.56, -4.93 75.57 C-14.89 76.57, -31.71 76.81, -41.71 69.97 C-51.72 63.13, -62.37 44.89, -64.94 34.55 C-67.52 24.21, -63.6 16.14, -57.16 7.92 C-50.71 -0.3, -34.97 -11.41, -26.26 -14.75 C-17.55 -18.09, -9.28 -14.57, -4.91 -12.11 C-0.53 -9.65, -0.82 -2.02, 0 0" stroke="#1e1e1e" stroke-width="4" fill="none"></path></g></g><mask></mask></svg>