<svg version="1.1" xmlns="http://www.w3.org/2000/svg" viewBox="0 0 238.09282034451007 249.72672788121554" width="238.09282034451007" height="249.72672788121554"><!-- svg-source:excalidraw --><metadata></metadata><defs><style class="style-fonts">
      </style></defs><g stroke-linecap="round"><g transform="translate(13.790578366198133 21.116275244773988) rotate(0 53.47610965667036 78.43501277078394)" fill-rule="evenodd"><path d="M0 0 C-0.47 26.41, -5.97 131.86, -2.82 158.44 C0.33 185.01, 14.67 167.85, 18.93 159.45 C23.19 151.05, 18.39 115.94, 22.75 108.05 C27.11 100.15, 37.33 111.1, 45.1 112.09 C52.88 113.08, 65.23 108.35, 69.41 113.96 C73.59 119.57, 69.09 137.28, 70.19 145.76 C71.29 154.25, 71.82 162.4, 76.02 164.87 C80.22 167.33, 91.18 171.48, 95.39 160.53 C99.61 149.58, 99.92 118.51, 101.31 99.18 C102.69 79.85, 102.29 61.61, 103.7 44.58 C105.11 27.55, 112.15 5.77, 109.77 -2.99 C107.39 -11.75, 93.76 -13.44, 89.43 -8 C85.1 -2.55, 86.01 16.01, 83.8 29.67 C81.6 43.32, 83.34 65.62, 76.2 73.94 C69.05 82.26, 49.63 79.89, 40.94 79.59 C32.24 79.28, 26.31 81.83, 24.01 72.09 C21.72 62.35, 26.54 33.29, 27.15 21.14 C27.77 8.99, 32.22 2.71, 27.69 -0.81 C23.17 -4.34, 4.62 -0.14, 0 0" stroke="none" stroke-width="0" fill="#343a40" fill-rule="evenodd"></path><path d="M0 0 C-0.47 26.41, -5.97 131.86, -2.82 158.44 C0.33 185.01, 14.67 167.85, 18.93 159.45 C23.19 151.05, 18.39 115.94, 22.75 108.05 C27.11 100.15, 37.33 111.1, 45.1 112.09 C52.88 113.08, 65.23 108.35, 69.41 113.96 C73.59 119.57, 69.09 137.28, 70.19 145.76 C71.29 154.25, 71.82 162.4, 76.02 164.87 C80.22 167.33, 91.18 171.48, 95.39 160.53 C99.61 149.58, 99.92 118.51, 101.31 99.18 C102.69 79.85, 102.29 61.61, 103.7 44.58 C105.11 27.55, 112.15 5.77, 109.77 -2.99 C107.39 -11.75, 93.76 -13.44, 89.43 -8 C85.1 -2.55, 86.01 16.01, 83.8 29.67 C81.6 43.32, 83.34 65.62, 76.2 73.94 C69.05 82.26, 49.63 79.89, 40.94 79.59 C32.24 79.28, 26.31 81.83, 24.01 72.09 C21.72 62.35, 26.54 33.29, 27.15 21.14 C27.77 8.99, 32.22 2.71, 27.69 -0.81 C23.17 -4.34, 4.62 -0.14, 0 0 M0 0 C-0.47 26.41, -5.97 131.86, -2.82 158.44 C0.33 185.01, 14.67 167.85, 18.93 159.45 C23.19 151.05, 18.39 115.94, 22.75 108.05 C27.11 100.15, 37.33 111.1, 45.1 112.09 C52.88 113.08, 65.23 108.35, 69.41 113.96 C73.59 119.57, 69.09 137.28, 70.19 145.76 C71.29 154.25, 71.82 162.4, 76.02 164.87 C80.22 167.33, 91.18 171.48, 95.39 160.53 C99.61 149.58, 99.92 118.51, 101.31 99.18 C102.69 79.85, 102.29 61.61, 103.7 44.58 C105.11 27.55, 112.15 5.77, 109.77 -2.99 C107.39 -11.75, 93.76 -13.44, 89.43 -8 C85.1 -2.55, 86.01 16.01, 83.8 29.67 C81.6 43.32, 83.34 65.62, 76.2 73.94 C69.05 82.26, 49.63 79.89, 40.94 79.59 C32.24 79.28, 26.31 81.83, 24.01 72.09 C21.72 62.35, 26.54 33.29, 27.15 21.14 C27.77 8.99, 32.22 2.71, 27.69 -0.81 C23.17 -4.34, 4.62 -0.14, 0 0" stroke="#343a40" stroke-width="4" fill="none"></path></g></g><mask></mask><g stroke-linecap="round"><g transform="translate(148.2631835720249 109.41031800467317) rotate(0 10.858571969097284 27.22523229725084)" fill-rule="evenodd"><path d="M0 0 C0.4 9.39, -0.29 45.17, 2.38 56.33 C5.05 67.5, 12.81 69.05, 16.03 66.98 C19.26 64.91, 21.39 54.92, 21.72 43.91 C22.04 32.9, 20.24 10.31, 18 0.9 C15.75 -8.5, 11.25 -12.38, 8.25 -12.53 C5.25 -12.68, 1.38 -2.09, 0 0" stroke="none" stroke-width="0" fill="#343a40" fill-rule="evenodd"></path><path d="M0 0 C0.4 9.39, -0.29 45.17, 2.38 56.33 C5.05 67.5, 12.81 69.05, 16.03 66.98 C19.26 64.91, 21.39 54.92, 21.72 43.91 C22.04 32.9, 20.24 10.31, 18 0.9 C15.75 -8.5, 11.25 -12.38, 8.25 -12.53 C5.25 -12.68, 1.38 -2.09, 0 0 M0 0 C0.4 9.39, -0.29 45.17, 2.38 56.33 C5.05 67.5, 12.81 69.05, 16.03 66.98 C19.26 64.91, 21.39 54.92, 21.72 43.91 C22.04 32.9, 20.24 10.31, 18 0.9 C15.75 -8.5, 11.25 -12.38, 8.25 -12.53 C5.25 -12.68, 1.38 -2.09, 0 0" stroke="#343a40" stroke-width="4" fill="none"></path></g></g><mask></mask><g stroke-linecap="round"><g transform="translate(158.32899166959123 30.879469195812362) rotate(0 3.0679663380833517 18.520016413010126)" fill-rule="evenodd"><path d="M0 0 C-1.9 2.15, -9.83 7.47, -11.4 12.91 C-12.97 18.34, -12.08 28.59, -9.42 32.61 C-6.75 36.64, 0.11 36.93, 4.6 37.04 C9.09 37.15, 16.4 37.74, 17.53 33.3 C18.66 28.86, 14.31 15.96, 11.38 10.41 C8.46 4.86, 1.9 1.73, 0 0" stroke="none" stroke-width="0" fill="#343a40" fill-rule="evenodd"></path><path d="M0 0 C-1.9 2.15, -9.83 7.47, -11.4 12.91 C-12.97 18.34, -12.08 28.59, -9.42 32.61 C-6.75 36.64, 0.11 36.93, 4.6 37.04 C9.09 37.15, 16.4 37.74, 17.53 33.3 C18.66 28.86, 14.31 15.96, 11.38 10.41 C8.46 4.86, 1.9 1.73, 0 0 M0 0 C-1.9 2.15, -9.83 7.47, -11.4 12.91 C-12.97 18.34, -12.08 28.59, -9.42 32.61 C-6.75 36.64, 0.11 36.93, 4.6 37.04 C9.09 37.15, 16.4 37.74, 17.53 33.3 C18.66 28.86, 14.31 15.96, 11.38 10.41 C8.46 4.86, 1.9 1.73, 0 0" stroke="#343a40" stroke-width="4" fill="none"></path></g></g><mask></mask><g stroke-linecap="round"><g transform="translate(205.69556831256614 160.35157278075667) rotate(0 8.027918229261559 27.979363294662335)" fill-rule="evenodd"><path d="M0 0 C-0.62 4.01, -2.69 13.81, -3.7 24.06 C-4.71 34.32, -6.92 52.32, -6.04 61.53 C-5.16 70.74, -1.9 80.27, 1.57 79.31 C5.04 78.34, 11.72 64.28, 14.77 55.74 C17.83 47.2, 18.65 39.56, 19.87 28.08 C21.09 16.59, 23.18 -4.6, 22.09 -13.18 C21.01 -21.75, 17.03 -25.54, 13.35 -23.35 C9.67 -21.15, 2.23 -3.89, 0 0" stroke="none" stroke-width="0" fill="#343a40" fill-rule="evenodd"></path><path d="M0 0 C-0.62 4.01, -2.69 13.81, -3.7 24.06 C-4.71 34.32, -6.92 52.32, -6.04 61.53 C-5.16 70.74, -1.9 80.27, 1.57 79.31 C5.04 78.34, 11.72 64.28, 14.77 55.74 C17.83 47.2, 18.65 39.56, 19.87 28.08 C21.09 16.59, 23.18 -4.6, 22.09 -13.18 C21.01 -21.75, 17.03 -25.54, 13.35 -23.35 C9.67 -21.15, 2.23 -3.89, 0 0 M0 0 C-0.62 4.01, -2.69 13.81, -3.7 24.06 C-4.71 34.32, -6.92 52.32, -6.04 61.53 C-5.16 70.74, -1.9 80.27, 1.57 79.31 C5.04 78.34, 11.72 64.28, 14.77 55.74 C17.83 47.2, 18.65 39.56, 19.87 28.08 C21.09 16.59, 23.18 -4.6, 22.09 -13.18 C21.01 -21.75, 17.03 -25.54, 13.35 -23.35 C9.67 -21.15, 2.23 -3.89, 0 0" stroke="#343a40" stroke-width="4" fill="none"></path></g></g><mask></mask></svg>