<svg version="1.1" xmlns="http://www.w3.org/2000/svg" viewBox="0 0 792.8416238669856 619.1579058546004" width="792.8416238669856" height="619.1579058546004">
  <!-- svg-source:excalidraw -->
  
  <defs>
    <style class="style-fonts">
      
    </style>
    
  </defs>
  <rect x="0" y="0" width="792.8416238669856" height="619.1579058546004" fill="#fdf8f6"></rect><g stroke-linecap="round"><g transform="translate(364.2050844344212 590.6715201454799) rotate(0 194.0004852046311 -173.49601367588684)"><path d="M0.88 -0.39 C-0.18 -3.32, -6.06 -8.91, -5.85 -16.47 C-5.64 -24.03, 2.74 -38.66, 2.13 -45.76 C1.51 -52.87, -7.49 -53.82, -9.52 -59.1 C-11.55 -64.38, -9.11 -72.63, -10.07 -77.43 C-11.02 -82.23, -14.19 -83.19, -15.27 -87.87 C-16.35 -92.56, -17.96 -97.5, -16.55 -105.53 C-15.14 -113.57, -7.52 -129.77, -6.8 -136.06 C-6.09 -142.36, -12.95 -139.28, -12.26 -143.28 C-11.56 -147.28, -5.53 -146.72, -2.63 -160.05 C0.27 -173.38, 4.59 -205.73, 5.16 -223.25 C5.73 -240.77, -0.64 -250.19, 0.8 -265.19 C2.24 -280.18, 8.97 -303.61, 13.79 -313.24 C18.61 -322.88, 16.92 -323.4, 29.71 -323 C42.49 -322.6, 63.85 -312.99, 90.5 -310.86 C117.16 -308.73, 162.36 -308.44, 189.62 -310.24 C216.87 -312.04, 235.84 -319.83, 254.03 -321.65 C272.23 -323.47, 278.56 -319.07, 298.77 -321.17 C318.98 -323.27, 357.85 -329.91, 375.29 -334.26 C392.72 -338.61, 398.61 -345.05, 403.39 -347.26 M-0.12 -1.64 C-1.43 -3.85, -7.82 -7.76, -7.05 -14.97 C-6.28 -22.17, 4.78 -37.64, 4.49 -44.87 C4.19 -52.1, -6.68 -52.98, -8.81 -58.37 C-10.94 -63.75, -7.34 -72.61, -8.28 -77.19 C-9.22 -81.76, -13.1 -81.41, -14.44 -85.81 C-15.78 -90.22, -17.47 -95.26, -16.31 -103.61 C-15.14 -111.96, -7.89 -129.06, -7.45 -135.89 C-7.01 -142.73, -14.51 -141.06, -13.67 -144.64 C-12.83 -148.21, -5.61 -144.4, -2.41 -157.33 C0.79 -170.26, 4.72 -204.68, 5.55 -222.22 C6.38 -239.75, 1.23 -247.79, 2.57 -262.56 C3.91 -277.34, 8.64 -300.76, 13.59 -310.88 C18.54 -321, 19.48 -323.19, 32.27 -323.3 C45.06 -323.41, 64.47 -313.86, 90.33 -311.55 C116.19 -309.25, 160.33 -307.86, 187.43 -309.49 C214.53 -311.11, 234.57 -319.39, 252.94 -321.31 C271.3 -323.23, 276.93 -318.89, 297.61 -320.99 C318.3 -323.1, 359.38 -329.86, 377.06 -333.95 C394.74 -338.04, 399.36 -343.63, 403.67 -345.53" stroke="#1e1e1e" stroke-width="4" fill="none"></path></g></g><mask></mask><g stroke-linecap="round"><g transform="translate(278.4217394995385 50.79811834176735) rotate(0 248.99931571620414 71.60733423919578)"><path d="M0.5 0.75 C-0.23 6.52, -4.89 25.17, -4.39 35.36 C-3.89 45.55, -1.75 55.92, 3.49 61.88 C8.72 67.84, 19.37 68.08, 27.03 71.13 C34.68 74.18, 38.69 78.08, 49.41 80.18 C60.14 82.28, 72.64 80.7, 91.39 83.72 C110.14 86.73, 142.24 92.51, 161.9 98.29 C181.57 104.08, 182.17 110.82, 209.38 118.42 C236.6 126.03, 298.84 141.14, 325.18 143.92 C351.52 146.69, 343.59 137.87, 367.42 135.09 C391.24 132.31, 445.61 129.31, 468.14 127.24 C490.68 125.18, 496.87 123.45, 502.62 122.7 M-0.69 0.09 C-1.48 5.49, -5.88 23.27, -4.77 33.81 C-3.65 44.35, 0.55 57.46, 5.97 63.32 C11.39 69.18, 20.22 66.18, 27.77 68.99 C35.31 71.8, 40.42 77.83, 51.25 80.18 C62.07 82.52, 74.27 79.73, 92.72 83.08 C111.17 86.43, 142.12 94.45, 161.93 100.28 C181.75 106.1, 184.59 110.93, 211.62 118.04 C238.65 125.14, 297.96 140.04, 324.1 142.9 C350.24 145.76, 344.48 138.19, 368.48 135.2 C392.48 132.21, 445.46 127.08, 468.12 124.95 C490.78 122.82, 498.7 122.88, 504.42 122.41" stroke="#1e1e1e" stroke-width="4" fill="none"></path></g></g><mask></mask><g stroke-linecap="round"><g transform="translate(135.61474337347863 14.88058168075895) rotate(0 -61.98227292146112 44.43608042460892)"><path d="M1.15 -1.17 C1.12 6.83, 6.25 36.06, 0.87 48.81 C-4.5 61.56, -17.51 69.65, -31.09 75.34 C-44.67 81.02, -65.12 80.75, -80.62 82.92 C-96.12 85.08, -116.71 87.34, -124.08 88.32 M0.3 0.84 C0.11 8.95, 5.39 37.65, 0.55 50.26 C-4.3 62.88, -15.26 70.88, -28.79 76.53 C-42.31 82.18, -64.47 82.2, -80.61 84.18 C-96.74 86.17, -118.4 87.83, -125.61 88.43" stroke="#1e1e1e" stroke-width="4" fill="none"></path></g></g><mask></mask><g stroke-linecap="round"><g transform="translate(11.541202304457329 486.5937299068205) rotate(0 169.64276205950682 -16.591368244770365)"><path d="M0.2 -0.28 C17.07 1.37, 63.56 10.4, 100.18 8.76 C136.8 7.11, 188.99 -6.96, 219.92 -10.16 C250.84 -13.35, 267.22 -7.19, 285.73 -10.39 C304.25 -13.6, 322.04 -24.15, 331.01 -29.37 C339.99 -34.58, 338.26 -39.8, 339.59 -41.67 M-1.15 -1.48 C15.72 -0.1, 62.97 8.58, 99.68 6.82 C136.39 5.06, 188.02 -9.28, 219.11 -12.04 C250.21 -14.8, 267.82 -6.89, 286.25 -9.73 C304.69 -12.58, 321.18 -23.6, 329.73 -29.11 C338.27 -34.61, 335.88 -40.7, 337.51 -42.75" stroke="#1e1e1e" stroke-width="4" fill="none"></path></g></g><mask></mask><g stroke-linecap="round"><g transform="translate(331.41228843578347 132.25506193639376) rotate(0 16.355613620263057 92.07603610063506)"><path d="M-0.49 0.76 C1.7 15.27, 9.8 60.64, 14.33 87.4 C18.87 114.16, 23.65 145.3, 26.72 161.3 C29.8 177.31, 31.94 179.48, 32.8 183.46 M1.45 0.12 C3.39 14.76, 9.38 62.18, 13.43 88.7 C17.47 115.23, 22.44 143.35, 25.72 159.26 C28.99 175.18, 31.77 180.34, 33.1 184.2" stroke="#1e1e1e" stroke-width="4" fill="none"></path></g></g><mask></mask><g stroke-linecap="round"><g transform="translate(87.82111413497023 98.52971776312961) rotate(0 89.90332467561666 91.51193634107472)"><path d="M-1.11 -0.83 C-4 3.33, -10.36 8.61, -16.2 24.48 C-22.04 40.34, -32.46 76.89, -36.13 94.35 C-39.81 111.81, -40.66 118.78, -38.27 129.25 C-35.88 139.71, -33.55 148.97, -21.79 157.15 C-10.02 165.34, 10.45 174.11, 32.32 178.37 C54.2 182.62, 86.87 183.69, 109.47 182.68 C132.06 181.67, 151.16 178.83, 167.89 172.31 C184.62 165.79, 201.51 156.28, 209.83 143.55 C218.15 130.81, 217.52 112.52, 217.81 95.91 C218.1 79.31, 213.93 56.4, 211.54 43.92 C209.15 31.43, 204.59 24.93, 203.49 21.01 M0.5 1.34 C-2.56 5.2, -10.46 7.49, -16.65 22.71 C-22.85 37.92, -33.08 75.24, -36.65 92.64 C-40.22 110.03, -40.32 116.25, -38.06 127.09 C-35.8 137.93, -34.96 149.24, -23.09 157.69 C-11.21 166.14, 10.96 173.28, 33.19 177.8 C55.42 182.33, 87.44 185.73, 110.28 184.82 C133.13 183.91, 153.93 178.93, 170.24 172.37 C186.55 165.81, 200.09 158.31, 208.13 145.47 C216.17 132.64, 217.87 112.14, 218.48 95.35 C219.08 78.56, 213.98 57.11, 211.76 44.72 C209.54 32.32, 206.23 25.16, 205.18 20.98" stroke="#1e1e1e" stroke-width="4" fill="none"></path></g></g><mask></mask><g stroke-linecap="round"><g transform="translate(140.9294251426668 13.638392270530858) rotate(0 80.54151317094761 26.932148238574428)"><path d="M-1.18 0.96 C4.85 6.7, 22.24 25.27, 37.19 34.6 C52.14 43.92, 72.21 55.5, 88.51 56.89 C104.82 58.28, 123.68 50.25, 135.03 42.93 C146.39 35.61, 152.44 20.55, 156.66 12.97 C160.88 5.39, 159.47 0.04, 160.35 -2.54 M0.4 0.42 C6.28 6.25, 22.18 26.48, 36.78 35.56 C51.38 44.63, 72.08 53.48, 87.99 54.86 C103.9 56.25, 120.48 50.77, 132.24 43.86 C143.99 36.95, 153.68 21.33, 158.54 13.42 C163.39 5.5, 161.24 -0.75, 161.37 -3.64" stroke="#1e1e1e" stroke-width="4" fill="none"></path></g></g><mask></mask><g stroke-linecap="round"><g transform="translate(326.25490342258263 560.0554071953338) rotate(0 153.4734336929182 -174.6809307023418)" fill-rule="evenodd"><path d="M-1.11 0.28 C-4.36 1.07, -26.63 49.44, -21.47 5.04 C-16.31 -39.35, 7.37 -206.94, 29.83 -266.11 C52.29 -325.27, 69.79 -334.78, 113.29 -349.95 C156.8 -365.12, 254.54 -360.09, 290.86 -357.13 C327.18 -354.16, 340.03 -338.3, 331.23 -332.18 C322.42 -326.07, 277.03 -329.66, 238.02 -320.42 C199.01 -311.19, 137.04 -330.03, 97.16 -276.77 C57.28 -223.51, 15.16 -46.87, -1.27 -0.85" stroke="none" stroke-width="0" fill="#a5d8ff" fill-rule="evenodd"></path><path d="M-0.64 -0.76 C-4.59 0.48, -28.34 50.96, -23.19 6.84 C-18.04 -37.27, 7.27 -205.66, 30.27 -265.45 C53.27 -325.24, 71.29 -336.83, 114.82 -351.91 C158.34 -366.98, 255.5 -359.38, 291.42 -355.9 C327.34 -352.41, 339.49 -336.81, 330.33 -331.01 C321.17 -325.21, 275.28 -329.97, 236.43 -321.1 C197.59 -312.22, 136.74 -331.2, 97.26 -277.76 C57.79 -224.32, 15.95 -46.91, -0.42 -0.49 M1.23 1.45 C-2.9 2.4, -28.7 49.42, -24 5.08 C-19.31 -39.27, 6.15 -205.26, 29.4 -264.63 C52.65 -324, 72 -335.96, 115.47 -351.14 C158.94 -366.32, 254.18 -359.43, 290.22 -355.7 C326.26 -351.96, 340.64 -334.85, 331.71 -328.73 C322.77 -322.6, 275.33 -327.38, 236.61 -318.96 C197.89 -310.55, 138.59 -331.65, 99.38 -278.23 C60.17 -224.82, 18.03 -44.95, 1.34 1.53" stroke="#1e1e1e" stroke-width="4" fill="none"></path></g></g><mask></mask><g stroke-linecap="round"><g transform="translate(295.88462854892214 581.8046224906489) rotate(0 65.07120050139861 -213.68774281965875)" fill-rule="evenodd"><path d="M-0.27 -0.47 C-3.74 3.74, -16.64 40.42, -22.06 24.36 C-27.47 8.31, -35.11 -33.09, -32.76 -96.82 C-30.42 -160.55, -22.21 -299.19, -7.97 -358 C6.27 -416.82, 24.16 -436.86, 52.67 -449.72 C81.17 -462.57, 145.64 -439.36, 163.05 -435.13 C180.46 -430.91, 168.85 -426.77, 157.15 -424.35 C145.44 -421.94, 112.65 -427.7, 92.82 -420.64 C72.99 -413.58, 51.44 -419.46, 38.16 -381.99 C24.87 -344.52, 19.07 -259.86, 13.11 -195.83 C7.15 -131.8, 4.82 -30.76, 2.4 2.18" stroke="none" stroke-width="0" fill="#a5d8ff" fill-rule="evenodd"></path><path d="M0.14 0.86 C-3.81 4.53, -17.47 39.3, -22.65 23.05 C-27.84 6.8, -33.68 -32.88, -30.97 -96.64 C-28.25 -160.39, -20.28 -300.54, -6.35 -359.47 C7.57 -418.39, 24.79 -437.66, 52.6 -450.18 C80.41 -462.7, 143 -439.3, 160.52 -434.59 C178.05 -429.89, 169.15 -424.32, 157.75 -421.94 C146.35 -419.56, 112.05 -427.05, 92.1 -420.31 C72.15 -413.57, 51.54 -418.71, 38.08 -381.52 C24.61 -344.32, 17.66 -260.63, 11.33 -197.14 C5 -133.66, 1.88 -33.43, 0.08 -0.63 M-1.25 0.27 C-4.91 4.07, -15.41 37, -20.46 21.05 C-25.51 5.09, -33.99 -31.66, -31.57 -95.45 C-29.15 -159.24, -20.32 -302.67, -5.96 -361.72 C8.41 -420.78, 26.72 -437.5, 54.63 -449.78 C82.53 -462.05, 144.15 -439.82, 161.47 -435.37 C178.78 -430.92, 170.14 -425.57, 158.5 -423.07 C146.87 -420.57, 112.01 -427.05, 91.67 -420.36 C71.33 -413.66, 49.69 -420.03, 36.47 -382.91 C23.26 -345.8, 18.39 -261.49, 12.39 -197.67 C6.38 -133.85, 2.61 -32.77, 0.44 0.02" stroke="#1e1e1e" stroke-width="4" fill="none"></path></g></g><mask></mask><g stroke-linecap="round"><g transform="translate(334.4849926037873 199.69630605465954) rotate(0 58.77936120398317 -0.13861799467599667)" fill-rule="evenodd"><path d="M-2.28 -0.74 C8.13 4.36, 42.59 27.39, 62.47 28.52 C82.36 29.65, 123.42 15.56, 117.01 6.02 C110.61 -3.52, 43.27 -27.89, 24.05 -28.73 C4.83 -29.57, 5.7 -3.77, 1.69 0.98" stroke="none" stroke-width="0" fill="#a5d8ff" fill-rule="evenodd"></path><path d="M-0.39 -0.27 C9.85 4.78, 41.2 28.49, 60.75 29.71 C80.31 30.93, 123.09 17.04, 116.97 7.04 C110.84 -2.96, 43.47 -29.3, 24.01 -30.29 C4.55 -31.29, 4.16 -3.86, 0.21 1.07 M1.61 -1.45 C12.26 3.31, 43.86 26.45, 62.91 27.98 C81.96 29.51, 122.29 17.36, 115.89 7.73 C109.49 -1.89, 44.01 -28.19, 24.51 -29.75 C5 -31.31, 3.23 -6.85, -1.16 -1.64" stroke="#1e1e1e" stroke-width="4" fill="none"></path></g></g><mask></mask></svg>